<svg width="12" height="14" viewBox="0 0 12 14" fill="none" xmlns="http://www.w3.org/2000/svg">
<path d="M4.47283 3.98148C4.54432 3.98148 4.61532 3.96448 4.68132 3.93098L7.92865 2.26506C8.08865 2.18306 8.18714 2.01507 8.18114 1.83358C8.17514 1.65209 8.06615 1.4911 7.90116 1.4196L4.70781 0.0376664C4.56682 -0.0233307 4.40433 -0.00983135 4.27534 0.0751646C4.14584 0.159161 4.06735 0.303154 4.06435 0.458646L4.04685 1.4516C1.56147 2.29156 -0.0869473 4.63645 0.00354819 7.27682C0.0755446 9.37372 1.27449 11.3011 3.13339 12.3061C3.20289 12.3436 3.27739 12.3611 3.35088 12.3611C3.51587 12.3611 3.67537 12.2716 3.75836 12.1146C3.87836 11.8871 3.79386 11.6046 3.56887 11.4831C1.99945 10.6342 0.986999 9.01024 0.926002 7.24432C0.853506 5.13242 2.10594 3.24451 4.02935 2.45255L4.01085 3.506C4.00835 3.66949 4.09035 3.82299 4.22784 3.90998C4.30233 3.95798 4.38733 3.98148 4.47283 3.98148ZM6.63022 1.88508L4.9483 2.74804L4.9763 1.16911L6.63022 1.88508ZM11.9965 6.87234C11.9295 4.92543 10.9045 3.13152 9.25559 2.07307C9.0386 1.93458 8.75461 1.99907 8.61812 2.21706C8.48213 2.43455 8.54562 2.72304 8.76061 2.86103C10.153 3.75449 11.0185 5.26592 11.0745 6.90434C11.142 8.86324 10.0615 10.6472 8.33863 11.5271L8.31164 10.4742C8.30664 10.3107 8.21814 10.1617 8.07765 10.0807C7.93715 10.0002 7.76466 9.99919 7.62417 10.0797L4.45083 11.8806C4.29434 11.9696 4.20334 12.1416 4.21634 12.3226C4.22984 12.5031 4.34533 12.6596 4.51332 12.7241L7.76416 13.97C7.81766 13.99 7.87266 14 7.92765 14C8.02165 14 8.11565 13.9705 8.19464 13.914C8.32014 13.824 8.39263 13.6765 8.38913 13.5215L8.36413 12.5426C10.6325 11.5811 12.0814 9.34422 11.9965 6.87234ZM5.76426 12.2051L7.40818 11.2721L7.44868 12.8506L5.76426 12.2051Z" fill="#0094FF"/>
</svg>
