<svg width="22" height="16" viewBox="0 0 22 16" fill="none" xmlns="http://www.w3.org/2000/svg">
<path d="M21.3731 4.59784L11.3545 0.0894521C11.0921 -0.0298174 10.8058 -0.0298174 10.5673 0.0894521L0.54864 4.59784C0.238539 4.76482 0 5.07492 0 5.45658C0 5.81439 0.238539 6.14834 0.572494 6.31532L1.43123 6.72083V10.0604C1.43123 10.3943 1.69363 10.6567 2.02758 10.6567C2.36154 10.6567 2.62393 10.3943 2.62393 10.0604V7.34104L4.05516 8.10436V12.1595C4.05516 12.3265 4.10287 12.4696 4.19829 12.6127C4.2937 12.7559 6.46441 16 10.8535 16C15.3619 16 17.4372 12.732 17.5326 12.6127C17.6042 12.4935 17.6757 12.3265 17.6757 12.1834V8.22363L21.4685 6.29146C21.8025 6.12449 21.9933 5.79053 21.9933 5.43272C21.9456 5.07492 21.707 4.76482 21.3731 4.59784ZM15.9821 11.8971C15.505 12.4696 13.883 14.3302 10.8535 14.3302C7.89564 14.3302 6.20201 12.4935 5.72493 11.8971V8.93925L10.5434 11.3962C10.6865 11.4678 10.8297 11.4916 10.9728 11.4916C11.1159 11.4916 11.2829 11.4678 11.426 11.3962L15.9821 9.08237V11.8971ZM10.9728 9.48789L3.14871 5.52814L10.9728 1.99776L18.7969 5.52814L10.9728 9.48789ZM2.62393 11.4678C2.79091 11.6347 2.91018 11.8971 2.91018 12.1357C2.91018 12.3742 2.81476 12.6366 2.62393 12.8036C2.45695 12.9706 2.19456 13.0898 1.95602 13.0898C1.71748 13.0898 1.45509 12.9944 1.28811 12.8036C1.12113 12.6366 1.00186 12.3742 1.00186 12.1357C1.00186 11.8971 1.09728 11.6347 1.28811 11.4678C1.45509 11.3008 1.71748 11.1815 1.95602 11.1815C2.19456 11.1815 2.4331 11.2769 2.62393 11.4678Z" fill="#0094FF"/>
</svg>
