<svg width="20" height="16" viewBox="0 0 20 16" fill="none" xmlns="http://www.w3.org/2000/svg">
<path d="M19 3.42698L15 6.85698M19 3.42698C19.0013 2.963 18.8693 2.50841 18.6195 2.11738C18.3698 1.72635 18.0129 1.41536 17.5914 1.22145C17.1698 1.02755 16.7014 0.958917 16.242 1.02372C15.7826 1.08853 15.3515 1.28405 15 1.58698L10 5.87698L5.00001 1.58698C4.64857 1.28405 4.21745 1.08853 3.75801 1.02372C3.29857 0.958917 2.83019 1.02755 2.40867 1.22145C1.98714 1.41536 1.63025 1.72635 1.3805 2.11738C1.13075 2.50841 0.998672 2.963 1.00001 3.42698M19 3.42698V14.997H15V6.85698M15 6.85698L10 11.137L5.00001 6.85698M5.00001 6.85698L1.00001 3.42698M5.00001 6.85698V14.997H1.00001V3.42698" stroke="#0094FF" stroke-width="2" stroke-linecap="round" stroke-linejoin="round"/>
</svg>
