<svg width="20" height="20" viewBox="0 0 20 20" fill="none" xmlns="http://www.w3.org/2000/svg">
<path d="M18.8811 13V16.93C18.8842 17.219 18.8246 17.5051 18.7065 17.7688C18.5884 18.0325 18.4145 18.2675 18.1969 18.4576C17.9792 18.6476 17.723 18.7883 17.4458 18.8699C17.1686 18.9514 16.877 18.9719 16.5911 18.93C12.6281 18.4209 8.94709 16.6077 6.12811 13.7761C3.30913 10.9444 1.51245 7.25532 1.02114 3.29003C0.979363 3.00498 0.999661 2.71427 1.08065 2.43779C1.16163 2.16131 1.30139 1.90559 1.49036 1.68813C1.67933 1.47067 1.91306 1.29661 2.17553 1.17784C2.43801 1.05908 2.72305 0.998426 3.01114 1.00003H6.88114C7.12836 0.998531 7.36736 1.08866 7.55203 1.25302C7.73671 1.41737 7.85395 1.64431 7.88114 1.89003C7.98037 3.20061 8.31932 4.48183 8.88114 5.67003C8.97748 5.89506 8.98794 6.14761 8.91053 6.37983C8.83312 6.61205 8.67323 6.80781 8.46114 6.93003L7.60114 7.42003C7.47718 7.48821 7.3691 7.58191 7.28403 7.69495C7.19896 7.80799 7.13885 7.93779 7.10766 8.07579C7.07647 8.21378 7.07491 8.35681 7.10309 8.49545C7.13128 8.63409 7.18855 8.76517 7.27114 8.88003C8.26047 10.3292 9.51196 11.5807 10.9611 12.57C11.076 12.6526 11.2071 12.7099 11.3457 12.7381C11.4844 12.7663 11.6274 12.7647 11.7654 12.7335C11.9034 12.7023 12.0332 12.6422 12.1462 12.5571C12.2593 12.4721 12.353 12.364 12.4211 12.24L12.9111 11.38C13.0407 11.1652 13.2462 11.0068 13.487 10.9364C13.7278 10.8661 13.9863 10.8888 14.2111 11C15.3993 11.5618 16.6806 11.9008 17.9911 12C18.2369 12.0272 18.4638 12.1445 18.6282 12.3291C18.7925 12.5138 18.8826 12.7528 18.8811 13Z" stroke="#0094FF" stroke-width="2" stroke-linecap="round" stroke-linejoin="round"/>
</svg>
