<svg width="11" height="22" viewBox="0 0 11 22" fill="none" xmlns="http://www.w3.org/2000/svg">
<path d="M9.81116 17.6667C9.86406 17.8319 9.89031 18.0044 9.88894 18.1779C9.88894 19.7334 7.90005 21.0001 5.4445 21.0001C2.98894 21.0001 1.00005 19.7334 1.00005 18.1779C0.998678 18.0044 1.02493 17.8319 1.07783 17.6667" stroke="#0094FF" stroke-width="2" stroke-linecap="round" stroke-linejoin="round"/>
<path d="M5.44466 7.66667C4.56061 7.66667 3.71276 7.31548 3.08764 6.69036C2.46252 6.06523 2.11133 5.21739 2.11133 4.33333C2.11133 3.44928 2.46252 2.60143 3.08764 1.97631C3.71276 1.35119 4.56061 1 5.44466 1C6.32872 1 7.17656 1.35119 7.80168 1.97631C8.42681 2.60143 8.778 3.44928 8.778 4.33333C8.778 5.21739 8.42681 6.06523 7.80168 6.69036C7.17656 7.31548 6.32872 7.66667 5.44466 7.66667ZM5.44466 7.66667V16.5556" stroke="#0094FF" stroke-width="2" stroke-linecap="round" stroke-linejoin="round"/>
</svg>
