<svg width="20" height="20" viewBox="0 0 20 20" fill="none" xmlns="http://www.w3.org/2000/svg">
<path d="M10 0C15.5228 0 20 4.47715 20 10C20 12.8919 18.0216 15.2 15.6 15.2C14.435 15.2 13.5653 14.7363 12.9728 13.9139C12.2308 14.7081 11.2177 15.2 10 15.2C7.29557 15.2 5.6 12.7733 5.6 10C5.6 7.2267 7.29557 4.8 10 4.8C10.8174 4.8 11.5427 5.0217 12.1568 5.40767C12.3621 5.045 12.7525 4.8 13.2 4.8C13.8075 4.8 14.3096 5.25145 14.389 5.83717L14.4 6V10C14.4 11.989 14.8498 12.8 15.6 12.8C16.607 12.8 17.6 11.6415 17.6 10C17.6 5.80264 14.1974 2.4 10 2.4C5.80264 2.4 2.4 5.80264 2.4 10C2.4 14.1974 5.80264 17.6 10 17.6C10.6328 17.6 11.2542 17.5229 11.8549 17.3723L12.3014 17.2457L12.613 17.1392C13.2353 16.9114 13.9245 17.2312 14.1524 17.8535C14.3612 18.424 14.1099 19.0507 13.5872 19.3267L13.4381 19.393L13.0272 19.5333C12.056 19.8414 11.038 20 10 20C4.47715 20 0 15.5228 0 10C0 4.47715 4.47715 0 10 0ZM10 7.2C8.84291 7.2 8 8.40637 8 10C8 11.5936 8.84291 12.8 10 12.8C11.1571 12.8 12 11.5936 12 10C12 8.40637 11.1571 7.2 10 7.2Z" fill="#0094FF"/>
</svg>
