<svg width="20" height="20" viewBox="0 0 20 20" fill="none" xmlns="http://www.w3.org/2000/svg">
<path d="M7 19H2C1.73478 19 1.48043 18.8946 1.29289 18.7071C1.10536 18.5196 1 18.2652 1 18C1 16.1435 1.7375 14.363 3.05025 13.0503C4.36301 11.7375 6.14348 11 8 11H9" stroke="white" stroke-width="2" stroke-linecap="round" stroke-linejoin="round"/>
<path d="M14 6C14 6.98891 13.7068 7.95561 13.1573 8.77785C12.6079 9.6001 11.827 10.241 10.9134 10.6194C9.99979 10.9978 8.99446 11.0969 8.02455 10.9039C7.05465 10.711 6.16373 10.2348 5.46447 9.53553C4.76521 8.83627 4.289 7.94536 4.09608 6.97545C3.90315 6.00555 4.00217 5.00021 4.3806 4.08658C4.75904 3.17295 5.39991 2.39206 6.22215 1.84265C7.0444 1.29324 8.0111 1 9 1C10.3261 1 11.5979 1.52678 12.5355 2.46447C13.4732 3.40215 14 4.67392 14 6ZM18.71 12.69L17.31 11.29C17.1231 11.1068 16.8718 11.0041 16.61 11.0041C16.3482 11.0041 16.0969 11.1068 15.91 11.29L11 16.2V19H13.8L18.71 14.09C18.8932 13.9031 18.9959 13.6518 18.9959 13.39C18.9959 13.1282 18.8932 12.8769 18.71 12.69Z" stroke="white" stroke-width="2" stroke-linecap="round" stroke-linejoin="round"/>
</svg>
