<svg width="20" height="23" viewBox="0 0 20 23" fill="none" xmlns="http://www.w3.org/2000/svg">
<path d="M14 17.0556V20.3889C14 20.6836 13.8946 20.9662 13.7071 21.1746C13.5196 21.3829 13.2652 21.5 13 21.5H2C1.73478 21.5 1.48043 21.3829 1.29289 21.1746C1.10536 20.9662 1 20.6836 1 20.3889V2.61111C1 2.31643 1.10536 2.03381 1.29289 1.82544C1.48043 1.61706 1.73478 1.5 2 1.5H13C13.2652 1.5 13.5196 1.61706 13.7071 1.82544C13.8946 2.03381 14 2.31643 14 2.61111V5.94444" stroke="black" stroke-width="2" stroke-linecap="round" stroke-linejoin="round"/>
<path d="M14 9.27779V11.5H15M9 11.5C9 12.5988 9.29325 13.6729 9.84265 14.5865C10.3921 15.5001 11.173 16.2122 12.0866 16.6327C13.0002 17.0532 14.0055 17.1632 14.9755 16.9488C15.9454 16.7345 16.8363 16.2053 17.5355 15.4284C18.2348 14.6514 18.711 13.6615 18.9039 12.5838C19.0969 11.5062 18.9978 10.3891 18.6194 9.37399C18.241 8.35885 17.6001 7.49119 16.7779 6.88074C15.9556 6.27029 14.9889 5.94446 14 5.94446C12.6739 5.94446 11.4021 6.52977 10.4645 7.57164C9.52678 8.61351 9 10.0266 9 11.5Z" stroke="black" stroke-width="2" stroke-linecap="round" stroke-linejoin="round"/>
</svg>
