<svg width="22" height="23" viewBox="0 0 22 23" fill="none" xmlns="http://www.w3.org/2000/svg">
<path d="M7.8483 21.1507V17.7872C7.8483 16.9286 8.54943 16.2325 9.41432 16.2325H12.5759C12.9912 16.2325 13.3896 16.3963 13.6833 16.6879C13.9769 16.9794 14.1419 17.3749 14.1419 17.7872V21.1507C14.1393 21.5076 14.2803 21.8509 14.5336 22.1042C14.787 22.3575 15.1317 22.5 15.4913 22.5H17.6482C18.6556 22.5026 19.6227 22.1071 20.3359 21.4009C21.0492 20.6946 21.45 19.7357 21.45 18.7356V9.15354C21.45 8.3457 21.0893 7.57942 20.4651 7.06113L13.1275 1.24346C11.8511 0.223418 10.0223 0.256352 8.78397 1.32168L1.61376 7.06113C0.960063 7.56414 0.569356 8.3327 0.550049 9.15354V18.7258C0.550049 20.8102 2.25217 22.5 4.35184 22.5H6.45956C7.20639 22.5 7.81334 21.9018 7.81875 21.1604L7.8483 21.1507Z" fill="#477B9F"/>
</svg>
