<svg width="25" height="25" viewBox="0 0 25 25" fill="none" xmlns="http://www.w3.org/2000/svg">
<path d="M8.55005 2.5V5.5" stroke="#477B9F" stroke-width="1.5" stroke-miterlimit="10" stroke-linecap="round" stroke-linejoin="round"/>
<path d="M16.55 2.5V5.5" stroke="#477B9F" stroke-width="1.5" stroke-miterlimit="10" stroke-linecap="round" stroke-linejoin="round"/>
<path d="M21.55 9V14.13C20.66 13.42 19.53 13 18.3 13C17.07 13 15.9201 13.43 15.0201 14.16C13.8101 15.11 13.05 16.6 13.05 18.25C13.05 19.23 13.3301 20.17 13.8101 20.95C14.1801 21.56 14.66 22.09 15.23 22.5H8.55005C5.05005 22.5 3.55005 20.5 3.55005 17.5V9C3.55005 6 5.05005 4 8.55005 4H16.55C20.05 4 21.55 6 21.55 9Z" stroke="#477B9F" stroke-width="1.5" stroke-miterlimit="10" stroke-linecap="round" stroke-linejoin="round"/>
<path d="M7.55005 11.5H13.55" stroke="#477B9F" stroke-width="1.5" stroke-miterlimit="10" stroke-linecap="round" stroke-linejoin="round"/>
<path d="M7.55005 16.5H10.17" stroke="#477B9F" stroke-width="1.5" stroke-miterlimit="10" stroke-linecap="round" stroke-linejoin="round"/>
<path d="M18.05 22.5C20.5353 22.5 22.55 20.4853 22.55 18C22.55 15.5147 20.5353 13.5 18.05 13.5C15.5648 13.5 13.55 15.5147 13.55 18C13.55 20.4853 15.5648 22.5 18.05 22.5Z" stroke="#477B9F" stroke-width="1.5" stroke-linecap="round" stroke-linejoin="round"/>
<path d="M16.635 18.705H18.755V16.585" stroke="#477B9F" stroke-width="1.5" stroke-linecap="round" stroke-linejoin="round"/>
</svg>
