<svg width="25" height="25" viewBox="0 0 25 25" fill="none" xmlns="http://www.w3.org/2000/svg">
<path d="M8.44995 2.5V5.5" stroke="#477B9F" stroke-width="1.5" stroke-miterlimit="10" stroke-linecap="round" stroke-linejoin="round"/>
<path d="M16.45 2.5V5.5" stroke="#477B9F" stroke-width="1.5" stroke-miterlimit="10" stroke-linecap="round" stroke-linejoin="round"/>
<path d="M21.45 9V14.13C20.56 13.42 19.43 13 18.2 13C16.97 13 15.82 13.43 14.92 14.16C13.71 15.11 12.95 16.6 12.95 18.25C12.95 19.23 13.23 20.17 13.71 20.95C14.08 21.56 14.5599 22.09 15.1299 22.5H8.44995C4.94995 22.5 3.44995 20.5 3.44995 17.5V9C3.44995 6 4.94995 4 8.44995 4H16.45C19.95 4 21.45 6 21.45 9Z" stroke="#477B9F" stroke-width="1.5" stroke-miterlimit="10" stroke-linecap="round" stroke-linejoin="round"/>
<path d="M7.44995 11.5H13.45" stroke="#477B9F" stroke-width="1.5" stroke-miterlimit="10" stroke-linecap="round" stroke-linejoin="round"/>
<path d="M7.44995 16.5H10.0699" stroke="#477B9F" stroke-width="1.5" stroke-miterlimit="10" stroke-linecap="round" stroke-linejoin="round"/>
<path d="M23.45 18.25C23.45 19.23 23.1699 20.17 22.6899 20.95C22.4099 21.43 22.06 21.85 21.65 22.19C20.73 23.01 19.53 23.5 18.2 23.5C17.05 23.5 15.9899 23.13 15.1299 22.5C14.5599 22.09 14.08 21.56 13.71 20.95C13.23 20.17 12.95 19.23 12.95 18.25C12.95 16.6 13.71 15.11 14.92 14.16C15.82 13.43 16.97 13 18.2 13C19.43 13 20.56 13.42 21.45 14.13C22.67 15.09 23.45 16.58 23.45 18.25Z" stroke="#477B9F" stroke-width="1.5" stroke-miterlimit="10" stroke-linecap="round" stroke-linejoin="round"/>
<path d="M18.2 20.75C18.2 19.37 19.32 18.25 20.7 18.25C19.32 18.25 18.2 17.13 18.2 15.75C18.2 17.13 17.08 18.25 15.7 18.25C17.08 18.25 18.2 19.37 18.2 20.75Z" stroke="#477B9F" stroke-width="1.5" stroke-linecap="round" stroke-linejoin="round"/>
</svg>
