<svg width="23" height="23" viewBox="0 0 23 23" fill="none" xmlns="http://www.w3.org/2000/svg">
<path d="M15.9444 8.16664H18.5333C18.7996 8.16321 19.0583 8.25557 19.2622 8.42688C19.4662 8.59819 19.6018 8.83705 19.6444 9.09997L21.4999 20.211C21.5259 20.3711 21.5165 20.5349 21.4724 20.691C21.4283 20.847 21.3506 20.9916 21.2447 21.1144C21.1388 21.2372 21.0074 21.3354 20.8595 21.402C20.7116 21.4686 20.551 21.502 20.3888 21.4999H2.61115C2.449 21.502 2.28835 21.4686 2.14049 21.402C1.99263 21.3354 1.86115 21.2372 1.75526 21.1144C1.64938 20.9916 1.57166 20.847 1.52757 20.691C1.48348 20.5349 1.47409 20.3711 1.50005 20.211L3.35559 9.09997C3.39819 8.83705 3.5338 8.59819 3.73775 8.42688C3.94169 8.25557 4.20038 8.16321 4.4667 8.16664H7.05557" stroke="black" stroke-width="2" stroke-linecap="round" stroke-linejoin="round"/>
<path d="M15.9444 5.94442C15.9444 4.76569 15.4762 3.63523 14.6427 2.80174C13.8092 1.96825 12.6788 1.5 11.5 1.5C10.3213 1.5 9.19083 1.96825 8.35734 2.80174C7.52385 3.63523 7.0556 4.76569 7.0556 5.94442C7.0556 10.3888 11.5 14.8333 11.5 14.8333C11.5 14.8333 15.9444 10.3888 15.9444 5.94442Z" stroke="black" stroke-width="2" stroke-linecap="round" stroke-linejoin="round"/>
</svg>
