<svg width="35" height="35" viewBox="0 0 35 35" fill="none" xmlns="http://www.w3.org/2000/svg">
<rect x="0.5" y="0.5" width="34" height="34" rx="17" fill="#FAF0CC" stroke="black"/>
<path d="M24.343 24.343V26.6232C24.343 26.9256 24.2229 27.2156 24.0091 27.4294C23.7953 27.6432 23.5053 27.7633 23.2029 27.7633H9.52158C9.2192 27.7633 8.92921 27.6432 8.7154 27.4294C8.50159 27.2156 8.38147 26.9256 8.38147 26.6232V8.38144C8.38147 8.07907 8.50159 7.78908 8.7154 7.57526C8.92921 7.36145 9.2192 7.24133 9.52158 7.24133H20.9227" stroke="black" stroke-width="1.75" stroke-linecap="round" stroke-linejoin="round"/>
<path d="M7.24133 12.9419H9.52155M7.24133 17.5023H9.52155M7.24133 22.0628H9.52155M27.4327 12.5884L25.8365 10.9923C25.6234 10.7834 25.3369 10.6664 25.0384 10.6664C24.74 10.6664 24.4535 10.7834 24.2404 10.9923L18.6424 16.5902V19.7825H21.8347L27.4327 14.1846C27.6416 13.9715 27.7586 13.6849 27.7586 13.3865C27.7586 13.0881 27.6416 12.8016 27.4327 12.5884Z" stroke="black" stroke-width="1.75" stroke-linecap="round" stroke-linejoin="round"/>
</svg>
