<svg width="35" height="35" viewBox="0 0 35 35" fill="none" xmlns="http://www.w3.org/2000/svg">
<rect x="0.5" y="0.5" width="34" height="34" rx="17" fill="#F0FFE5" stroke="black"/>
<path d="M11.6123 17.8062C11.6123 18.2983 11.4321 18.7202 11.0718 19.0718C10.7202 19.4146 10.2983 19.5859 9.80615 19.5859C9.31396 19.5859 8.8877 19.4146 8.52734 19.0718C8.17578 18.7202 8 18.2983 8 17.8062C8 17.314 8.17578 16.8921 8.52734 16.5405C8.8877 16.1802 9.31396 16 9.80615 16C10.2983 16 10.7202 16.1802 11.0718 16.5405C11.4321 16.8921 11.6123 17.314 11.6123 17.8062Z" fill="black"/>
<path d="M18.8896 17.8062C18.8896 18.2983 18.7095 18.7202 18.3491 19.0718C17.9976 19.4146 17.5757 19.5859 17.0835 19.5859C16.5913 19.5859 16.165 19.4146 15.8047 19.0718C15.4531 18.7202 15.2773 18.2983 15.2773 17.8062C15.2773 17.314 15.4531 16.8921 15.8047 16.5405C16.165 16.1802 16.5913 16 17.0835 16C17.5757 16 17.9976 16.1802 18.3491 16.5405C18.7095 16.8921 18.8896 17.314 18.8896 17.8062Z" fill="black"/>
<path d="M26.167 17.8062C26.167 18.2983 25.9868 18.7202 25.6265 19.0718C25.2749 19.4146 24.853 19.5859 24.3608 19.5859C23.8687 19.5859 23.4424 19.4146 23.082 19.0718C22.7305 18.7202 22.5547 18.2983 22.5547 17.8062C22.5547 17.314 22.7305 16.8921 23.082 16.5405C23.4424 16.1802 23.8687 16 24.3608 16C24.853 16 25.2749 16.1802 25.6265 16.5405C25.9868 16.8921 26.167 17.314 26.167 17.8062Z" fill="black"/>
</svg>
