<svg width="23" height="22" viewBox="0 0 23 22" fill="none" xmlns="http://www.w3.org/2000/svg">
<path d="M15.4587 7.6666H18.0476C18.3139 7.66317 18.5726 7.75552 18.7765 7.92683C18.9805 8.09814 19.1161 8.33701 19.1587 8.59992L21.0142 19.711C21.0402 19.8711 21.0308 20.0349 20.9867 20.1909C20.9426 20.347 20.8649 20.4915 20.759 20.6143C20.6531 20.7372 20.5216 20.8353 20.3738 20.9019C20.2259 20.9685 20.0653 21.002 19.9031 20.9999H2.12543C1.96328 21.002 1.80264 20.9685 1.65478 20.9019C1.50692 20.8353 1.37543 20.7372 1.26954 20.6143C1.16366 20.4915 1.08594 20.347 1.04185 20.1909C0.997763 20.0349 0.988369 19.8711 1.01433 19.711L2.86988 8.59992C2.91247 8.33701 3.04809 8.09814 3.25203 7.92683C3.45597 7.75552 3.71466 7.66317 3.98098 7.6666H6.56986" stroke="#477B9F" stroke-width="2" stroke-linecap="round" stroke-linejoin="round"/>
<path d="M15.4588 5.44442C15.4588 4.26569 14.9905 3.13523 14.157 2.30174C13.3236 1.46825 12.1931 1 11.0144 1C9.83563 1 8.70518 1.46825 7.87169 2.30174C7.0382 3.13523 6.56995 4.26569 6.56995 5.44442C6.56995 9.88884 11.0144 14.3333 11.0144 14.3333C11.0144 14.3333 15.4588 9.88884 15.4588 5.44442Z" stroke="#477B9F" stroke-width="2" stroke-linecap="round" stroke-linejoin="round"/>
</svg>
