<svg width="25" height="25" viewBox="0 0 25 25" fill="none" xmlns="http://www.w3.org/2000/svg">
<rect width="25" height="25" rx="3" fill="#477B9F"/>
<path d="M16.875 6.25H8.125C7.62772 6.25 7.15081 6.44754 6.79917 6.79917C6.44754 7.15081 6.25 7.62772 6.25 8.125V8.85625C6.24991 9.11434 6.3031 9.36967 6.40625 9.60625V9.64375C6.49455 9.84436 6.61962 10.0267 6.775 10.1812L10.625 14.0062V18.125C10.6248 18.2312 10.6516 18.3357 10.703 18.4287C10.7544 18.5216 10.8287 18.6 10.9187 18.6562C11.0182 18.7179 11.133 18.7504 11.25 18.75C11.3478 18.7494 11.4442 18.7259 11.5312 18.6812L14.0312 17.4312C14.1343 17.3793 14.221 17.2998 14.2817 17.2017C14.3423 17.1035 14.3746 16.9904 14.375 16.875V14.0062L18.2 10.1812C18.3554 10.0267 18.4804 9.84436 18.5687 9.64375V9.60625C18.6805 9.37152 18.7422 9.11611 18.75 8.85625V8.125C18.75 7.62772 18.5525 7.15081 18.2008 6.79917C17.8492 6.44754 17.3723 6.25 16.875 6.25ZM13.3062 13.3062C13.2483 13.3646 13.2025 13.4339 13.1714 13.5101C13.1403 13.5862 13.1245 13.6677 13.125 13.75V16.4875L11.875 17.1125V13.75C11.8755 13.6677 11.8597 13.5862 11.8286 13.5101C11.7975 13.4339 11.7517 13.3646 11.6937 13.3062L8.38125 10H16.6187L13.3062 13.3062ZM17.5 8.75H7.5V8.125C7.5 7.95924 7.56585 7.80027 7.68306 7.68306C7.80027 7.56585 7.95924 7.5 8.125 7.5H16.875C17.0408 7.5 17.1997 7.56585 17.3169 7.68306C17.4341 7.80027 17.5 7.95924 17.5 8.125V8.75Z" fill="#FCFCFC"/>
</svg>
