<svg width="36" height="36" viewBox="0 0 36 36" fill="none" xmlns="http://www.w3.org/2000/svg">
<path fill-rule="evenodd" clip-rule="evenodd" d="M0 0H31V5H29V2H2V25H23.3871V27H0V0ZM30 13C31.6569 13 33 11.6569 33 10C33 8.3431 31.6569 7 30 7C28.3431 7 27 8.3431 27 10C27 11.6569 28.3431 13 30 13ZM32.0314 15.0107C33.3299 15.0107 34.3582 15.5937 35.0303 16.4959C35.6595 17.3405 35.9258 18.3864 35.9861 19.3507C36.0472 20.3298 35.9056 21.356 35.5894 22.2701C35.2881 23.1407 34.7815 24.0406 34 24.6579V34.5C34 35.2805 33.4015 35.9305 32.6237 35.9949C31.8459 36.0593 31.1487 35.5164 31.0204 34.7466L29.7293 27H29.4324L27.9743 34.7764C27.8316 35.5378 27.1325 36.0653 26.3612 35.9936C25.5899 35.9219 25 35.2746 25 34.5V20.2328C24.8874 20.4044 24.7831 20.5652 24.6911 20.7082C24.5726 20.8922 24.4752 21.0453 24.4078 21.152L24.3303 21.275L24.3105 21.3066L24.3047 21.316C24.0308 21.7555 23.5493 22.023 23.0314 22.023H18.0314C17.203 22.023 16.5314 21.3515 16.5314 20.523C16.5314 19.6946 17.203 19.023 18.0314 19.023H22.208C22.4506 18.6472 22.7705 18.1594 23.1067 17.6689C23.457 17.1577 23.8432 16.6169 24.1862 16.1935C24.3539 15.9864 24.5413 15.7699 24.7292 15.5924C24.8212 15.5056 24.9497 15.3932 25.105 15.2935C25.2158 15.2224 25.5575 15.0107 26.0314 15.0107H32.0314Z" fill="#333333"/>
</svg>
