<svg width="32" height="32" viewBox="0 0 32 32" fill="none" xmlns="http://www.w3.org/2000/svg">
<rect width="32" height="32" rx="16" fill="#477B9F"/>
<path d="M11.7612 14.756C12.3543 14.756 12.9342 14.5801 13.4274 14.2505C13.9206 13.921 14.3051 13.4525 14.5321 12.9045C14.7591 12.3565 14.8185 11.7534 14.7027 11.1717C14.587 10.5899 14.3014 10.0555 13.8819 9.63602C13.4625 9.21658 12.9281 8.93093 12.3463 8.81521C11.7645 8.69948 11.1615 8.75888 10.6134 8.98588C10.0654 9.21288 9.59698 9.5973 9.26743 10.0905C8.93787 10.5837 8.76197 11.1636 8.76197 11.7568C8.76284 12.5519 9.07911 13.3143 9.64138 13.8766C10.2036 14.4388 10.966 14.7551 11.7612 14.756ZM11.7612 10.757C11.9589 10.757 12.1522 10.8157 12.3166 10.9255C12.481 11.0354 12.6091 11.1915 12.6848 11.3742C12.7605 11.5569 12.7803 11.7579 12.7417 11.9518C12.7031 12.1457 12.6079 12.3239 12.4681 12.4637C12.3283 12.6035 12.1501 12.6987 11.9562 12.7373C11.7623 12.7759 11.5613 12.7561 11.3786 12.6804C11.1959 12.6047 11.0398 12.4766 10.9299 12.3122C10.8201 12.1478 10.7614 11.9545 10.7614 11.7568C10.7616 11.4917 10.867 11.2375 11.0544 11.0501C11.2419 10.8626 11.4961 10.7572 11.7612 10.757ZM20.2433 17.2397C19.6501 17.2397 19.0702 17.4156 18.577 17.7451C18.0838 18.0747 17.6994 18.5431 17.4724 19.0911C17.2454 19.6392 17.186 20.2422 17.3017 20.824C17.4174 21.4058 17.7031 21.9402 18.1225 22.3596C18.542 22.7791 19.0764 23.0647 19.6581 23.1804C20.2399 23.2962 20.843 23.2368 21.391 23.0098C21.939 22.7828 22.4074 22.3983 22.737 21.9051C23.0666 21.4119 23.2424 20.832 23.2424 20.2389C23.2416 19.4437 22.9253 18.6813 22.363 18.1191C21.8008 17.5568 21.0384 17.2405 20.2433 17.2397ZM20.2433 21.2386C20.0455 21.2386 19.8522 21.18 19.6878 21.0701C19.5234 20.9603 19.3953 20.8041 19.3196 20.6214C19.244 20.4388 19.2242 20.2378 19.2627 20.0438C19.3013 19.8499 19.3965 19.6718 19.5363 19.5319C19.6762 19.3921 19.8543 19.2969 20.0482 19.2583C20.2422 19.2198 20.4432 19.2396 20.6258 19.3152C20.8085 19.3909 20.9647 19.519 21.0745 19.6834C21.1844 19.8478 21.243 20.0411 21.243 20.2389C21.2428 20.504 21.1374 20.7581 20.95 20.9456C20.7625 21.133 20.5083 21.2384 20.2433 21.2386ZM23.7071 8.2929C23.6143 8.20004 23.5041 8.12638 23.3829 8.07612C23.2616 8.02587 23.1316 8 23.0003 8C22.869 8 22.739 8.02587 22.6177 8.07612C22.4965 8.12638 22.3863 8.20004 22.2935 8.2929L8.29723 22.2891C8.20345 22.3817 8.12891 22.492 8.0779 22.6135C8.02689 22.735 8.00042 22.8655 8 22.9973C7.99959 23.1291 8.02525 23.2596 8.0755 23.3815C8.12575 23.5033 8.1996 23.614 8.2928 23.7072C8.386 23.8004 8.49671 23.8743 8.61856 23.9245C8.7404 23.9748 8.87099 24.0004 9.00279 24C9.13459 23.9996 9.265 23.9731 9.38653 23.9221C9.50806 23.8711 9.6183 23.7965 9.71091 23.7027L23.7071 9.70651C23.8 9.61371 23.8736 9.50352 23.9239 9.38224C23.9741 9.26097 24 9.13098 24 8.9997C24 8.86843 23.9741 8.73844 23.9239 8.61716C23.8736 8.49589 23.8 8.3857 23.7071 8.2929Z" fill="white"/>
</svg>
