<svg width="32" height="32" viewBox="0 0 32 32" fill="none" xmlns="http://www.w3.org/2000/svg">
<rect width="32" height="32" rx="16" fill="#477B9F"/>
<path fill-rule="evenodd" clip-rule="evenodd" d="M10.9267 7.80481C10.6504 7.80481 10.3952 7.94998 10.2547 8.18881C10.1142 8.42686 10.1111 8.72266 10.2454 8.96462L13.9355 15.6097L10.2454 22.2548C10.1111 22.4967 10.1142 22.7925 10.2547 23.0306C10.3952 23.2694 10.6504 23.4146 10.9267 23.4146H20.2926C20.7234 23.4146 21.0731 23.0649 21.0731 22.6341V21.0731C21.0731 20.6423 20.7234 20.2926 20.2926 20.2926C19.8618 20.2926 19.5121 20.6423 19.5121 21.0731V21.8536H12.2528L15.5105 15.989C15.6417 15.7533 15.6417 15.4661 15.5105 15.2304L12.2528 9.36579H19.5121V10.1463C19.5121 10.5771 19.8618 10.9268 20.2926 10.9268C20.7234 10.9268 21.0731 10.5771 21.0731 10.1463V8.5853C21.0731 8.15447 20.7234 7.80481 20.2926 7.80481H10.9267Z" fill="white"/>
</svg>
