<svg width="51" height="14" viewBox="0 0 51 14" fill="none" xmlns="http://www.w3.org/2000/svg">
<rect width="50.3048" height="14" rx="7" fill="#825D66"/>
<path d="M16.5908 10H13.7051V9.65332C13.959 9.63704 14.1689 9.60449 14.335 9.55566C14.5042 9.50684 14.5889 9.44661 14.5889 9.375C14.5889 9.3457 14.5856 9.3099 14.5791 9.26758C14.5726 9.22526 14.5628 9.18783 14.5498 9.15527L13.9736 7.60254H11.5469C11.4557 7.8304 11.3809 8.02897 11.3223 8.19824C11.2669 8.36751 11.2165 8.52376 11.1709 8.66699C11.1286 8.80697 11.0993 8.9209 11.083 9.00879C11.0667 9.09668 11.0586 9.16829 11.0586 9.22363C11.0586 9.35384 11.1611 9.45475 11.3662 9.52637C11.5713 9.59798 11.8024 9.6403 12.0596 9.65332V10H9.45215V9.65332C9.53678 9.64681 9.64258 9.62891 9.76953 9.59961C9.89648 9.56706 10.0007 9.52474 10.082 9.47266C10.2122 9.38477 10.3132 9.29362 10.3848 9.19922C10.4564 9.10156 10.5264 8.9681 10.5947 8.79883C10.943 7.92969 11.3271 6.95312 11.7471 5.86914C12.167 4.78516 12.5413 3.81999 12.8701 2.97363H13.2607L15.5703 8.9502C15.6191 9.07715 15.6745 9.17969 15.7363 9.25781C15.7982 9.33594 15.8844 9.41243 15.9951 9.4873C16.07 9.53288 16.1676 9.57194 16.2881 9.60449C16.4085 9.63379 16.5094 9.65007 16.5908 9.65332V10ZM13.7979 7.16797L12.748 4.48242L11.7178 7.16797H13.7979ZM21.6006 7.58789C21.6006 8.31055 21.3727 8.91764 20.917 9.40918C20.4613 9.90072 19.9323 10.1465 19.3301 10.1465C19.0664 10.1465 18.806 10.1058 18.5488 10.0244C18.2949 9.94303 18.0557 9.83398 17.8311 9.69727L17.4697 10.2588L17.167 10.1904C17.1833 9.94954 17.1947 9.65983 17.2012 9.32129C17.2077 8.98275 17.2109 8.6556 17.2109 8.33984V3.57422C17.2109 3.46354 17.1849 3.35286 17.1328 3.24219C17.084 3.13151 17.0205 3.05176 16.9424 3.00293C16.8805 2.96061 16.7764 2.92969 16.6299 2.91016C16.4867 2.88737 16.3711 2.87272 16.2832 2.86621V2.55371L18.0508 2.44141L18.1191 2.51465V5.68848L18.1533 5.69824C18.3551 5.4834 18.5749 5.32227 18.8125 5.21484C19.0534 5.10742 19.2894 5.05371 19.5205 5.05371C20.113 5.05371 20.6077 5.28809 21.0049 5.75684C21.402 6.22559 21.6006 6.83594 21.6006 7.58789ZM20.5801 7.62207C20.5801 7.38118 20.554 7.13542 20.502 6.88477C20.4499 6.63411 20.3685 6.41602 20.2578 6.23047C20.1471 6.04167 20.0023 5.88867 19.8232 5.77148C19.6442 5.6543 19.4294 5.5957 19.1787 5.5957C18.9508 5.5957 18.7507 5.64128 18.5781 5.73242C18.4089 5.82031 18.2559 5.94076 18.1191 6.09375V8.89648C18.1387 8.97461 18.1761 9.06576 18.2314 9.16992C18.29 9.27409 18.3682 9.37337 18.4658 9.46777C18.5635 9.55892 18.6742 9.63379 18.7979 9.69238C18.9215 9.74772 19.0729 9.77539 19.252 9.77539C19.6491 9.77539 19.9697 9.58333 20.2139 9.19922C20.458 8.8151 20.5801 8.28939 20.5801 7.62207ZM25.4971 7.6416C25.6305 7.75879 25.7331 7.89388 25.8047 8.04688C25.8763 8.19987 25.9121 8.38704 25.9121 8.6084C25.9121 9.05436 25.7445 9.41895 25.4092 9.70215C25.0771 9.98535 24.6458 10.127 24.1152 10.127C23.8353 10.127 23.5765 10.0765 23.3389 9.97559C23.1045 9.87467 22.9368 9.7819 22.8359 9.69727L22.7383 10.0146H22.3721L22.3232 8.33984H22.6602C22.6862 8.4668 22.7415 8.61491 22.8262 8.78418C22.9108 8.95345 23.0133 9.10645 23.1338 9.24316C23.2607 9.38639 23.4121 9.50684 23.5879 9.60449C23.7669 9.70215 23.9671 9.75098 24.1885 9.75098C24.501 9.75098 24.7419 9.68099 24.9111 9.54102C25.0804 9.39779 25.165 9.19434 25.165 8.93066C25.165 8.79395 25.1374 8.67676 25.082 8.5791C25.0299 8.47819 24.9518 8.3903 24.8477 8.31543C24.7402 8.24056 24.6084 8.17383 24.4521 8.11523C24.2959 8.05339 24.1217 7.99316 23.9297 7.93457C23.7767 7.889 23.6058 7.82715 23.417 7.74902C23.2314 7.66764 23.0719 7.57324 22.9385 7.46582C22.7952 7.35189 22.6781 7.21191 22.5869 7.0459C22.4958 6.87988 22.4502 6.68457 22.4502 6.45996C22.4502 6.06608 22.5967 5.73242 22.8896 5.45898C23.1826 5.18555 23.5749 5.04883 24.0664 5.04883C24.2552 5.04883 24.4473 5.07324 24.6426 5.12207C24.8411 5.1709 25.0023 5.22949 25.126 5.29785L25.2383 5.04395H25.5898L25.6631 6.5918H25.3262C25.2578 6.24674 25.1097 5.9668 24.8818 5.75195C24.6572 5.53385 24.3822 5.4248 24.0566 5.4248C23.7897 5.4248 23.5798 5.49154 23.4268 5.625C23.2738 5.75846 23.1973 5.9196 23.1973 6.1084C23.1973 6.25488 23.2217 6.37695 23.2705 6.47461C23.3226 6.57227 23.3991 6.65527 23.5 6.72363C23.5977 6.78874 23.7197 6.85059 23.8662 6.90918C24.016 6.96452 24.1999 7.02799 24.418 7.09961C24.6328 7.16797 24.8346 7.24772 25.0234 7.33887C25.2155 7.43001 25.3734 7.53092 25.4971 7.6416ZM30.9219 8.86719C30.7201 9.2513 30.4499 9.55729 30.1113 9.78516C29.7728 10.013 29.3838 10.127 28.9443 10.127C28.557 10.127 28.2168 10.0586 27.9238 9.92188C27.6341 9.78516 27.3949 9.59961 27.2061 9.36523C27.0173 9.13086 26.8757 8.85742 26.7812 8.54492C26.6901 8.23242 26.6445 7.90202 26.6445 7.55371C26.6445 7.24121 26.6934 6.93522 26.791 6.63574C26.8919 6.33301 27.0384 6.0612 27.2305 5.82031C27.416 5.58919 27.6455 5.40365 27.9189 5.26367C28.1956 5.12044 28.5049 5.04883 28.8467 5.04883C29.1982 5.04883 29.4993 5.10417 29.75 5.21484C30.0007 5.32552 30.2041 5.47689 30.3604 5.66895C30.5101 5.85124 30.6208 6.06608 30.6924 6.31348C30.7673 6.56087 30.8047 6.82943 30.8047 7.11914V7.44141H27.6162C27.6162 7.75716 27.6455 8.04362 27.7041 8.30078C27.766 8.55794 27.862 8.78418 27.9922 8.97949C28.1191 9.16829 28.2852 9.31803 28.4902 9.42871C28.6953 9.53613 28.9395 9.58984 29.2227 9.58984C29.5124 9.58984 29.7614 9.52311 29.9697 9.38965C30.1813 9.25293 30.3848 9.00879 30.5801 8.65723L30.9219 8.86719ZM29.8428 7.03125C29.8428 6.84896 29.8265 6.65365 29.7939 6.44531C29.7646 6.23698 29.7158 6.06283 29.6475 5.92285C29.5726 5.77311 29.4701 5.65104 29.3398 5.55664C29.2096 5.46224 29.042 5.41504 28.8369 5.41504C28.4951 5.41504 28.2103 5.55827 27.9824 5.84473C27.7578 6.12793 27.6357 6.52344 27.6162 7.03125H29.8428ZM36.7959 10H34.4375V9.67773C34.5124 9.67122 34.5938 9.66471 34.6816 9.6582C34.7728 9.65169 34.8477 9.63867 34.9062 9.61914C34.9974 9.58984 35.0641 9.53939 35.1064 9.46777C35.152 9.3929 35.1748 9.29688 35.1748 9.17969V6.7041C35.1748 6.3623 35.0934 6.09863 34.9307 5.91309C34.7712 5.72754 34.5758 5.63477 34.3447 5.63477C34.1722 5.63477 34.0143 5.66243 33.8711 5.71777C33.7279 5.76986 33.6009 5.83496 33.4902 5.91309C33.3828 5.98796 33.2965 6.06934 33.2314 6.15723C33.1696 6.24186 33.124 6.31022 33.0947 6.3623V9.13086C33.0947 9.24154 33.1175 9.33268 33.1631 9.4043C33.2087 9.47591 33.277 9.53125 33.3682 9.57031C33.4365 9.60286 33.5098 9.62728 33.5879 9.64355C33.6693 9.65983 33.7523 9.67122 33.8369 9.67773V10H31.4785V9.67773C31.5534 9.67122 31.6299 9.66471 31.708 9.6582C31.7894 9.65169 31.8594 9.63867 31.918 9.61914C32.0091 9.58984 32.0758 9.53939 32.1182 9.46777C32.1637 9.3929 32.1865 9.29688 32.1865 9.17969V6.20605C32.1865 6.09538 32.1621 5.99447 32.1133 5.90332C32.0677 5.80892 32.0026 5.73242 31.918 5.67383C31.8561 5.63477 31.7829 5.6071 31.6982 5.59082C31.6136 5.57129 31.5225 5.55827 31.4248 5.55176V5.23438L33.0264 5.12695L33.0947 5.19531V5.87402H33.1191C33.1973 5.7959 33.2949 5.70312 33.4121 5.5957C33.5293 5.48503 33.64 5.39551 33.7441 5.32715C33.8646 5.24902 34.0078 5.18392 34.1738 5.13184C34.3398 5.07975 34.527 5.05371 34.7354 5.05371C35.1976 5.05371 35.5394 5.19857 35.7607 5.48828C35.9854 5.77474 36.0977 6.15723 36.0977 6.63574V9.14062C36.0977 9.25456 36.1172 9.34733 36.1562 9.41895C36.1953 9.4873 36.262 9.54102 36.3564 9.58008C36.4346 9.61263 36.5013 9.63542 36.5566 9.64844C36.6152 9.66146 36.695 9.67122 36.7959 9.67773V10ZM40.3604 9.79004C40.1488 9.87793 39.9486 9.95117 39.7598 10.0098C39.571 10.0716 39.3398 10.1025 39.0664 10.1025C38.6628 10.1025 38.3779 10.0016 38.2119 9.7998C38.0492 9.59473 37.9678 9.30664 37.9678 8.93555V5.67383H37.0986V5.20508H37.9873V3.70605H38.876V5.20508H40.2578V5.67383H38.8857V8.36426C38.8857 8.56608 38.8923 8.73535 38.9053 8.87207C38.9215 9.00553 38.9574 9.12272 39.0127 9.22363C39.0648 9.31803 39.1429 9.38965 39.2471 9.43848C39.3512 9.4873 39.4912 9.51172 39.667 9.51172C39.7484 9.51172 39.8672 9.50521 40.0234 9.49219C40.1829 9.47591 40.2952 9.45638 40.3604 9.43359V9.79004Z" fill="#FFA3A3"/>
</svg>
