<svg width="51" height="14" viewBox="0 0 51 14" fill="none" xmlns="http://www.w3.org/2000/svg">
<rect width="50.3048" height="14" rx="7" fill="#00653B" fill-opacity="0.5"/>
<path d="M13.9336 4.78027C13.9336 5.1416 13.862 5.46224 13.7188 5.74219C13.5788 6.01888 13.3835 6.24837 13.1328 6.43066C12.8854 6.61296 12.6136 6.74642 12.3174 6.83105C12.0212 6.91569 11.707 6.95801 11.375 6.95801H10.5986V9.05762C10.5986 9.17155 10.6165 9.27246 10.6523 9.36035C10.6914 9.44499 10.7695 9.51009 10.8867 9.55566C10.9453 9.57845 11.0479 9.59961 11.1943 9.61914C11.3441 9.63867 11.4808 9.65007 11.6045 9.65332V10H8.63086V9.65332C8.70898 9.64681 8.82129 9.63542 8.96777 9.61914C9.11751 9.60286 9.22168 9.58171 9.28027 9.55566C9.37793 9.51335 9.44792 9.4515 9.49023 9.37012C9.53581 9.28874 9.55859 9.18457 9.55859 9.05762V4.05762C9.55859 3.94368 9.54232 3.84115 9.50977 3.75C9.47721 3.65885 9.40072 3.59049 9.28027 3.54492C9.15658 3.5026 9.03288 3.47331 8.90918 3.45703C8.78874 3.4375 8.68457 3.42448 8.59668 3.41797V3.07129H11.7607C12.4053 3.07129 12.9277 3.22754 13.3281 3.54004C13.7318 3.84928 13.9336 4.2627 13.9336 4.78027ZM12.4492 5.96191C12.5599 5.80566 12.6331 5.64453 12.6689 5.47852C12.7048 5.30924 12.7227 5.15788 12.7227 5.02441C12.7227 4.83887 12.6999 4.65007 12.6543 4.45801C12.612 4.26595 12.5371 4.09831 12.4297 3.95508C12.3158 3.80208 12.166 3.68327 11.9805 3.59863C11.7949 3.514 11.5638 3.47168 11.2871 3.47168H10.5986V6.5332H11.0967C11.4482 6.5332 11.7331 6.47949 11.9512 6.37207C12.1725 6.26139 12.3385 6.12467 12.4492 5.96191ZM18.2939 5.80566C18.2939 5.97168 18.2533 6.11979 18.1719 6.25C18.0905 6.37695 17.9652 6.44043 17.7959 6.44043C17.6136 6.44043 17.4736 6.39323 17.376 6.29883C17.2816 6.20443 17.2344 6.10026 17.2344 5.98633C17.2344 5.91471 17.2393 5.84961 17.249 5.79102C17.262 5.73242 17.2734 5.67383 17.2832 5.61523C17.1302 5.61523 16.9512 5.67708 16.7461 5.80078C16.541 5.92448 16.3669 6.10026 16.2236 6.32812V9.13086C16.2236 9.24479 16.2448 9.33757 16.2871 9.40918C16.3327 9.48079 16.4027 9.53451 16.4971 9.57031C16.5785 9.60286 16.6826 9.62728 16.8096 9.64355C16.9398 9.65983 17.0521 9.67122 17.1465 9.67773V10H14.6074V9.67773C14.6823 9.67122 14.7588 9.66471 14.8369 9.6582C14.9183 9.65169 14.9883 9.63867 15.0469 9.61914C15.138 9.58984 15.2048 9.53939 15.2471 9.46777C15.2926 9.3929 15.3154 9.29688 15.3154 9.17969V6.20605C15.3154 6.10514 15.291 6.00586 15.2422 5.9082C15.1966 5.81055 15.1315 5.73242 15.0469 5.67383C14.985 5.63477 14.9118 5.6071 14.8271 5.59082C14.7425 5.57129 14.6514 5.55827 14.5537 5.55176V5.23438L16.1553 5.12695L16.2236 5.19531V5.87402H16.248C16.4499 5.61035 16.6745 5.41016 16.9219 5.27344C17.1693 5.13672 17.3955 5.06836 17.6006 5.06836C17.8057 5.06836 17.9717 5.13509 18.0986 5.26855C18.2288 5.40202 18.2939 5.58105 18.2939 5.80566ZM22.9863 8.86719C22.7845 9.2513 22.5143 9.55729 22.1758 9.78516C21.8372 10.013 21.4482 10.127 21.0088 10.127C20.6214 10.127 20.2812 10.0586 19.9883 9.92188C19.6986 9.78516 19.4593 9.59961 19.2705 9.36523C19.0817 9.13086 18.9401 8.85742 18.8457 8.54492C18.7546 8.23242 18.709 7.90202 18.709 7.55371C18.709 7.24121 18.7578 6.93522 18.8555 6.63574C18.9564 6.33301 19.1029 6.0612 19.2949 5.82031C19.4805 5.58919 19.71 5.40365 19.9834 5.26367C20.2601 5.12044 20.5693 5.04883 20.9111 5.04883C21.2627 5.04883 21.5638 5.10417 21.8145 5.21484C22.0651 5.32552 22.2686 5.47689 22.4248 5.66895C22.5745 5.85124 22.6852 6.06608 22.7568 6.31348C22.8317 6.56087 22.8691 6.82943 22.8691 7.11914V7.44141H19.6807C19.6807 7.75716 19.71 8.04362 19.7686 8.30078C19.8304 8.55794 19.9264 8.78418 20.0566 8.97949C20.1836 9.16829 20.3496 9.31803 20.5547 9.42871C20.7598 9.53613 21.0039 9.58984 21.2871 9.58984C21.5768 9.58984 21.8258 9.52311 22.0342 9.38965C22.2458 9.25293 22.4492 9.00879 22.6445 8.65723L22.9863 8.86719ZM21.9072 7.03125C21.9072 6.84896 21.891 6.65365 21.8584 6.44531C21.8291 6.23698 21.7803 6.06283 21.7119 5.92285C21.637 5.77311 21.5345 5.65104 21.4043 5.55664C21.2741 5.46224 21.1064 5.41504 20.9014 5.41504C20.5596 5.41504 20.2747 5.55827 20.0469 5.84473C19.8223 6.12793 19.7002 6.52344 19.6807 7.03125H21.9072ZM26.7217 7.6416C26.8551 7.75879 26.9577 7.89388 27.0293 8.04688C27.1009 8.19987 27.1367 8.38704 27.1367 8.6084C27.1367 9.05436 26.9691 9.41895 26.6338 9.70215C26.3018 9.98535 25.8704 10.127 25.3398 10.127C25.0599 10.127 24.8011 10.0765 24.5635 9.97559C24.3291 9.87467 24.1615 9.7819 24.0605 9.69727L23.9629 10.0146H23.5967L23.5479 8.33984H23.8848C23.9108 8.4668 23.9661 8.61491 24.0508 8.78418C24.1354 8.95345 24.238 9.10645 24.3584 9.24316C24.4854 9.38639 24.6367 9.50684 24.8125 9.60449C24.9915 9.70215 25.1917 9.75098 25.4131 9.75098C25.7256 9.75098 25.9665 9.68099 26.1357 9.54102C26.305 9.39779 26.3896 9.19434 26.3896 8.93066C26.3896 8.79395 26.362 8.67676 26.3066 8.5791C26.2546 8.47819 26.1764 8.3903 26.0723 8.31543C25.9648 8.24056 25.833 8.17383 25.6768 8.11523C25.5205 8.05339 25.3464 7.99316 25.1543 7.93457C25.0013 7.889 24.8304 7.82715 24.6416 7.74902C24.4561 7.66764 24.2965 7.57324 24.1631 7.46582C24.0199 7.35189 23.9027 7.21191 23.8115 7.0459C23.7204 6.87988 23.6748 6.68457 23.6748 6.45996C23.6748 6.06608 23.8213 5.73242 24.1143 5.45898C24.4072 5.18555 24.7995 5.04883 25.291 5.04883C25.4798 5.04883 25.6719 5.07324 25.8672 5.12207C26.0658 5.1709 26.2269 5.22949 26.3506 5.29785L26.4629 5.04395H26.8145L26.8877 6.5918H26.5508C26.4824 6.24674 26.3343 5.9668 26.1064 5.75195C25.8818 5.53385 25.6068 5.4248 25.2812 5.4248C25.0143 5.4248 24.8044 5.49154 24.6514 5.625C24.4984 5.75846 24.4219 5.9196 24.4219 6.1084C24.4219 6.25488 24.4463 6.37695 24.4951 6.47461C24.5472 6.57227 24.6237 6.65527 24.7246 6.72363C24.8223 6.78874 24.9443 6.85059 25.0908 6.90918C25.2406 6.96452 25.4245 7.02799 25.6426 7.09961C25.8574 7.16797 26.0592 7.24772 26.248 7.33887C26.4401 7.43001 26.598 7.53092 26.7217 7.6416ZM32.1465 8.86719C31.9447 9.2513 31.6745 9.55729 31.3359 9.78516C30.9974 10.013 30.6084 10.127 30.1689 10.127C29.7816 10.127 29.4414 10.0586 29.1484 9.92188C28.8587 9.78516 28.6195 9.59961 28.4307 9.36523C28.2419 9.13086 28.1003 8.85742 28.0059 8.54492C27.9147 8.23242 27.8691 7.90202 27.8691 7.55371C27.8691 7.24121 27.918 6.93522 28.0156 6.63574C28.1165 6.33301 28.263 6.0612 28.4551 5.82031C28.6406 5.58919 28.8701 5.40365 29.1436 5.26367C29.4202 5.12044 29.7295 5.04883 30.0713 5.04883C30.4229 5.04883 30.724 5.10417 30.9746 5.21484C31.2253 5.32552 31.4287 5.47689 31.585 5.66895C31.7347 5.85124 31.8454 6.06608 31.917 6.31348C31.9919 6.56087 32.0293 6.82943 32.0293 7.11914V7.44141H28.8408C28.8408 7.75716 28.8701 8.04362 28.9287 8.30078C28.9906 8.55794 29.0866 8.78418 29.2168 8.97949C29.3438 9.16829 29.5098 9.31803 29.7148 9.42871C29.9199 9.53613 30.1641 9.58984 30.4473 9.58984C30.737 9.58984 30.986 9.52311 31.1943 9.38965C31.4059 9.25293 31.6094 9.00879 31.8047 8.65723L32.1465 8.86719ZM31.0674 7.03125C31.0674 6.84896 31.0511 6.65365 31.0186 6.44531C30.9893 6.23698 30.9404 6.06283 30.8721 5.92285C30.7972 5.77311 30.6947 5.65104 30.5645 5.55664C30.4342 5.46224 30.2666 5.41504 30.0615 5.41504C29.7197 5.41504 29.4349 5.55827 29.207 5.84473C28.9824 6.12793 28.8604 6.52344 28.8408 7.03125H31.0674ZM38.0205 10H35.6621V9.67773C35.737 9.67122 35.8184 9.66471 35.9062 9.6582C35.9974 9.65169 36.0723 9.63867 36.1309 9.61914C36.222 9.58984 36.2887 9.53939 36.3311 9.46777C36.3766 9.3929 36.3994 9.29688 36.3994 9.17969V6.7041C36.3994 6.3623 36.318 6.09863 36.1553 5.91309C35.9958 5.72754 35.8005 5.63477 35.5693 5.63477C35.3968 5.63477 35.2389 5.66243 35.0957 5.71777C34.9525 5.76986 34.8255 5.83496 34.7148 5.91309C34.6074 5.98796 34.5212 6.06934 34.4561 6.15723C34.3942 6.24186 34.3486 6.31022 34.3193 6.3623V9.13086C34.3193 9.24154 34.3421 9.33268 34.3877 9.4043C34.4333 9.47591 34.5016 9.53125 34.5928 9.57031C34.6611 9.60286 34.7344 9.62728 34.8125 9.64355C34.8939 9.65983 34.9769 9.67122 35.0615 9.67773V10H32.7031V9.67773C32.778 9.67122 32.8545 9.66471 32.9326 9.6582C33.014 9.65169 33.084 9.63867 33.1426 9.61914C33.2337 9.58984 33.3005 9.53939 33.3428 9.46777C33.3883 9.3929 33.4111 9.29688 33.4111 9.17969V6.20605C33.4111 6.09538 33.3867 5.99447 33.3379 5.90332C33.2923 5.80892 33.2272 5.73242 33.1426 5.67383C33.0807 5.63477 33.0075 5.6071 32.9229 5.59082C32.8382 5.57129 32.7471 5.55827 32.6494 5.55176V5.23438L34.251 5.12695L34.3193 5.19531V5.87402H34.3438C34.4219 5.7959 34.5195 5.70312 34.6367 5.5957C34.7539 5.48503 34.8646 5.39551 34.9688 5.32715C35.0892 5.24902 35.2324 5.18392 35.3984 5.13184C35.5645 5.07975 35.7516 5.05371 35.96 5.05371C36.4222 5.05371 36.764 5.19857 36.9854 5.48828C37.21 5.77474 37.3223 6.15723 37.3223 6.63574V9.14062C37.3223 9.25456 37.3418 9.34733 37.3809 9.41895C37.4199 9.4873 37.4867 9.54102 37.5811 9.58008C37.6592 9.61263 37.7259 9.63542 37.7812 9.64844C37.8398 9.66146 37.9196 9.67122 38.0205 9.67773V10ZM41.585 9.79004C41.3734 9.87793 41.1732 9.95117 40.9844 10.0098C40.7956 10.0716 40.5645 10.1025 40.291 10.1025C39.8874 10.1025 39.6025 10.0016 39.4365 9.7998C39.2738 9.59473 39.1924 9.30664 39.1924 8.93555V5.67383H38.3232V5.20508H39.2119V3.70605H40.1006V5.20508H41.4824V5.67383H40.1104V8.36426C40.1104 8.56608 40.1169 8.73535 40.1299 8.87207C40.1462 9.00553 40.182 9.12272 40.2373 9.22363C40.2894 9.31803 40.3675 9.38965 40.4717 9.43848C40.5758 9.4873 40.7158 9.51172 40.8916 9.51172C40.973 9.51172 41.0918 9.50521 41.248 9.49219C41.4076 9.47591 41.5199 9.45638 41.585 9.43359V9.79004Z" fill="#A3FFE7"/>
</svg>
