<svg width="21" height="19" viewBox="0 0 21 19" fill="none" xmlns="http://www.w3.org/2000/svg">
<path d="M16.4985 0.733274C12.3354 -0.242796 7.73096 -0.246216 3.54883 0.733764C2.24561 1.04284 1.20654 1.94421 0.76953 3.14636C0.25879 4.55798 0 6.02526 0 7.50671C0 8.98767 0.25879 10.4545 0.76904 11.8651C1.20605 13.0814 2.24902 13.9852 3.55517 14.2811C4.37744 14.4706 5.19042 14.6244 5.97802 14.7396L7.36523 16.6C8.03711 17.5116 9.00341 18.0346 10.0156 18.0341C11.0278 18.0341 11.9927 17.5116 12.6616 16.6044L14.0513 14.7406C14.854 14.6244 15.6724 14.4706 16.4888 14.2821C17.7983 13.9886 18.8423 13.0853 19.2808 11.8666C19.7847 10.473 20.0395 9.00622 20.0395 7.50671C20.0395 6.00671 19.7847 4.53991 19.2798 3.14441C18.8413 1.9403 17.8022 1.03894 16.4985 0.733274ZM17.3989 11.1884C17.1938 11.7606 16.69 12.1879 16.0454 12.3319C15.1431 12.5404 14.2437 12.7025 13.3726 12.8148C13.104 12.8495 12.8608 12.9916 12.6987 13.2089L11.0552 15.4134C10.4648 16.2147 9.56885 16.2191 8.97168 15.4091L7.33154 13.2089C7.16992 12.9921 6.92724 12.85 6.65869 12.8148C5.80469 12.704 4.91162 12.5414 4.00098 12.3314C3.36035 12.1864 2.85596 11.7591 2.65039 11.1869C2.21875 9.99353 2 8.75525 2 7.50671C2 6.25769 2.21875 5.01989 2.6499 3.82849C2.85547 3.26257 3.36426 2.83337 4.00781 2.68054C5.94336 2.22692 7.96631 1.99694 10.02 1.99694C12.0806 1.99694 14.1069 2.22692 16.0415 2.68053C16.686 2.83141 17.1938 3.26061 17.3999 3.82653C17.8247 5.00133 18.0395 6.23913 18.0395 7.50671C18.0395 8.7738 17.8247 10.0121 17.3989 11.1884Z" fill="url(#paint0_linear_292_297)"/>
<path d="M12.7271 5.29981C12.3364 4.90918 11.7036 4.90918 11.313 5.29981L10.02 6.59278L8.72705 5.29981C8.33642 4.90918 7.70361 4.90918 7.31299 5.29981C6.92237 5.69044 6.92236 6.32325 7.31299 6.71387L8.60596 8.00684L7.31299 9.29981C6.92236 9.69044 6.92236 10.3232 7.31299 10.7139C7.5083 10.9092 7.76416 11.0068 8.02002 11.0068C8.27588 11.0068 8.53174 10.9092 8.72705 10.7139L10.02 9.4209L11.313 10.7139C11.5083 10.9092 11.7642 11.0068 12.02 11.0068C12.2759 11.0068 12.5317 10.9092 12.7271 10.7139C13.1177 10.3232 13.1177 9.69043 12.7271 9.29981L11.4341 8.00684L12.7271 6.71387C13.1177 6.32325 13.1177 5.69043 12.7271 5.29981Z" fill="url(#paint1_linear_292_297)"/>
<defs>
<linearGradient id="paint0_linear_292_297" x1="10.0198" y1="0" x2="10.02" y2="21.0068" gradientUnits="userSpaceOnUse">
<stop stop-color="#FF4C4C"/>
<stop offset="1" stop-color="#FF8B4A"/>
</linearGradient>
<linearGradient id="paint1_linear_292_297" x1="6.02002" y1="3.00684" x2="14.52" y2="12.0068" gradientUnits="userSpaceOnUse">
<stop stop-color="#FF0000"/>
<stop offset="0.9999" stop-color="#FFA338"/>
<stop offset="1" stop-color="#FF634E"/>
</linearGradient>
</defs>
</svg>
