<svg width="186" height="164" viewBox="0 0 186 164" fill="none" xmlns="http://www.w3.org/2000/svg">
<path fill-rule="evenodd" clip-rule="evenodd" d="M92.2784 17.7809C135.017 53.8478 179.88 40.0254 184.911 81.5359C190.255 125.659 175.96 99.1037 141.536 126.633C91.2949 166.815 15.8533 152.795 13.0595 81.1168C11.1999 33.3638 58.323 -10.8724 92.2784 17.7809Z" fill="#E1EBFF"/>
<path d="M1.60891 114.513C1.98558 113.678 2.21098 112.826 2.65526 112.122C3.15649 111.436 3.99879 110.907 4.87075 111.217C8.77262 112.482 12.697 112.453 14.8087 109.227C14.7903 109.284 14.7909 109.331 14.7915 109.378C14.7915 109.426 14.849 109.444 14.8959 109.443C14.9439 109.537 15.1243 109.61 15.2192 109.656C15.7127 109.877 16.2691 109.898 16.8065 109.835C17.4845 109.723 18.0355 109.272 18.6257 108.944C19.0101 108.722 19.4224 108.51 19.8263 108.373C19.8388 108.627 19.8038 108.836 19.7587 109.025C19.7302 109.016 19.7113 109.025 19.6929 109.035C19.2195 109.683 18.2313 109.884 17.4068 110.357C16.7033 110.695 16.1249 111.231 15.632 111.841C15.1765 112.385 14.7779 112.994 14.5032 113.658C13.8412 115.091 13.6627 116.68 13.5868 118.238C13.5808 118.55 13.4225 120.222 13.9474 119.952C14.4504 119.407 14.7156 118.725 15.2678 118.368C16.867 117.235 18.8654 117.06 20.2825 115.664C21.7079 114.193 22.74 111.358 20.9753 109.774C20.7179 109.551 20.4136 109.375 20.0915 109.256C20.0345 109.238 19.9966 109.21 19.9396 109.192C20.0209 108.889 20.0547 108.586 20.0416 108.284C20.3709 108.186 20.719 108.125 21.0773 108.13C21.5963 108.124 22.1349 108.202 22.6427 108.083C23.5176 107.893 24.2069 107.157 24.4513 106.295C24.5236 106.02 24.6322 105.679 24.6286 105.349C25.067 105.693 25.5427 106.018 26.0825 106.191C26.8589 106.408 27.8294 106.311 28.1295 105.42C28.311 104.852 28.1722 104.259 28.1182 103.693C28.0666 103.316 28.1823 102.758 28.2523 102.294C28.2926 102.511 28.3703 102.708 28.486 102.886C28.6301 103.12 28.7933 103.345 28.9564 103.569C28.8769 104.797 28.865 106.157 29.5389 107.234C27.8661 106.981 27.493 109.666 25.1559 108.354C24.8522 108.226 24.0337 107.604 23.9275 108.18C23.9014 108.36 23.9785 108.511 24.0372 108.67C24.1932 109.065 24.4145 109.449 24.6731 109.767C25.4774 110.73 26.8631 111.44 28.1141 111.104C28.556 110.995 28.9671 110.64 29.2381 110.43C29.6029 110.17 29.8936 110.044 30.2981 109.907C31.0687 109.653 31.8979 109.558 32.5812 109.134C32.7402 109.028 32.8897 108.903 33.0107 108.77C33.1222 109.401 33.554 110.009 34.4853 110.574C35.7482 111.228 36.9974 111.582 38.0105 112.627C38.1819 112.776 38.5278 113.263 38.7573 113.524C39.0444 113.851 39.2502 113.698 39.3113 113.31C39.7461 111.804 39.8203 110.151 39.1233 108.705C38.803 107.944 38.2828 107.073 38.0764 106.396C37.9465 105.774 37.9589 105.293 37.9981 104.631C38.09 103.658 38.3623 102.757 38.8332 101.921C38.9993 101.598 39.2502 101.302 39.4543 101.007C39.917 101.813 40.0053 102.86 39.8357 103.683C39.567 104.867 38.9026 106.111 39.408 107.323C39.6133 107.906 40.0065 108.439 40.6311 108.592C40.9722 108.701 41.3495 108.696 41.681 108.834C41.9177 108.925 42.0126 108.972 42.222 109.101C42.2505 109.11 42.279 109.12 42.3074 109.128C42.3733 109.118 42.4195 109.023 42.3905 108.967C42.5394 108.795 42.6461 108.265 42.7108 108.161C43.4689 106.084 44.6232 104.824 43.839 102.379C43.7506 102.069 43.6243 101.778 43.4884 101.467C43.7049 101.427 43.912 101.368 44.1285 101.327C45.3041 101.03 46.5504 101.099 47.5576 101.72C47.8898 101.904 48.3364 102.172 48.5375 102.378C48.6615 102.48 48.7297 102.659 48.8904 102.695C49.2012 102.653 48.9414 102.241 48.9207 102.062C48.6449 101.112 48.5019 100.189 48.547 99.2627C48.5553 97.6197 49.4528 96.1364 49.9047 94.5261C50.2274 93.1247 49.9451 91.6087 49.2878 90.3325C48.3708 88.5969 46.3291 87.5362 44.4132 88.2396L44.113 88.3945C43.4137 87.4965 42.3685 86.8958 41.2979 86.5218C40.6151 86.2565 39.8974 86.152 39.2058 85.9146C37.9737 85.4576 36.5317 84.7768 35.3715 85.5644C35.3899 85.5074 35.4178 85.4694 35.4267 85.4409C36.1664 84.2045 36.2049 82.7129 36.339 81.3139C36.3585 80.6152 36.492 79.9528 36.6824 79.3082C36.6824 79.3082 36.6919 79.3272 36.7109 79.3171C37.1534 79.2554 37.5716 79.5142 38.0823 79.5836C38.5355 79.6347 39.0076 79.6287 39.4691 79.6044C39.5759 79.8579 39.6827 80.1119 39.8458 80.3363C40.2296 80.8509 40.7527 81.2219 41.3412 81.489C42.6598 82.0677 43.2589 80.9275 43.8319 79.9671C44.0448 79.6436 44.4102 79.4311 44.7744 79.1248C45.1386 78.8185 45.4453 78.4464 45.6571 78.0285C46.0076 77.3726 46.1298 76.5499 45.838 75.8453C45.625 75.3853 45.1321 75.212 44.6777 75.0666C43.9772 74.8582 43.2684 74.7722 42.5862 74.5069C42.0933 74.3335 41.6466 74.0652 41.1264 73.9299C40.7284 73.8029 40.2948 73.8361 39.8897 73.8789C39.4662 73.9786 39.0142 74.0219 38.5711 74.0368C38.822 72.9576 39.0248 71.7848 39.6666 71.0499C40.2337 70.3537 41.079 70.0604 41.9373 70.0219C42.069 70.0017 42.2013 70.0278 42.3151 70.0646C42.6817 70.7306 43.1426 71.3948 43.9001 71.6221C44.4405 71.8423 45.1185 71.7302 45.5283 71.3283C45.6025 71.2422 45.6488 71.1473 45.695 71.0523C46.0195 72.1433 46.7058 72.7392 47.8939 72.6496C48.2243 72.6454 48.544 72.5754 48.8738 72.5243C49.0055 72.5042 49.1562 72.4739 49.2588 72.3967C49.483 72.2335 49.5073 71.8649 49.2695 71.7266C48.9278 71.5705 48.5149 71.7355 48.1668 71.7966C47.7812 71.8768 47.5374 72.0026 47.2432 71.8928C46.7882 71.6999 46.3855 71.1953 45.9851 70.8321C46.5966 70.6831 47.14 70.3555 47.4917 69.8414C47.8826 69.4022 48.3234 69.1986 48.9165 69.0597C49.4717 68.9398 50.0732 68.7718 50.4546 68.3142C50.9926 67.5615 50.9974 66.372 50.2814 65.7203C49.2131 64.7516 47.9467 65.3333 47.9829 66.7869C47.9787 67.2404 48.0428 67.8245 47.9425 68.1373C47.7966 68.5451 47.4419 68.8703 46.9828 69.1309C46.5978 69.3054 46.2046 69.5084 45.9442 69.8325C45.9406 68.7659 45.1985 68.2459 44.3029 67.5206C43.5786 66.9442 42.7624 66.5103 41.8726 66.2569C41.5132 66.1572 41.1057 66.0111 40.7302 66.1577C40.3268 66.3418 40.4176 66.8415 40.6383 67.1312C41.1003 67.8904 42.012 68.37 42.0589 69.1529C42.1075 69.2942 42.0352 69.5215 42.0559 69.7008C41.1407 69.674 40.1827 70.0254 39.5682 70.7223C38.7205 71.6103 38.5752 72.849 38.3059 73.9851C37.5704 74.032 36.8159 74.0409 36.0815 74.1347C36.0531 74.1258 36.0347 74.1353 36.0068 74.1733C35.9783 74.1644 35.9498 74.1549 35.9315 74.165C35.8283 74.1946 35.811 74.346 35.887 74.4018C36.5893 74.752 37.2661 75.329 37.6884 75.919C37.2038 77.1898 36.6059 78.4244 36.2915 79.7498C35.9783 81.1696 36.1017 82.745 35.7209 84.033C35.5589 84.6865 35.2624 85.124 34.9871 85.7413C35.015 85.7033 34.9782 85.7698 34.9409 85.8363C34.8661 85.9223 34.792 86.0078 34.7558 86.1218L34.7273 86.1129C33.2782 85.6493 31.8291 86.7521 30.5989 87.173C30.1949 87.3101 29.7524 87.3718 29.4226 87.4235C29.0643 87.4656 28.0554 87.487 28.7689 87.998C29.492 88.48 30.2892 88.8765 30.9939 89.4155C31.3943 89.7787 31.7692 90.3218 32.0397 90.8472C32.7651 92.3014 33.3227 93.9373 34.3566 95.2087C34.3477 95.2372 34.3483 95.2847 34.3578 95.3031C34.7926 96.1477 34.3975 97.0398 33.5445 97.5028C33.1507 97.7058 32.5385 97.7604 32.0604 98.0305C30.695 97.4524 29.2067 98.4335 28.4658 99.575C28.1799 100.126 28.0838 100.769 28.0631 101.373C28.0654 101.562 28.0678 101.751 28.0886 101.93C28.0215 101.846 27.9266 101.8 27.8133 101.811C27.3234 101.873 27.0019 102.586 26.8067 102.805C26.5463 103.129 26.1139 103.257 25.7189 103.319C26.2047 102.142 26.3951 100.714 26.4218 99.8456C26.4182 99.5625 26.49 99.2408 26.4491 98.9766C26.468 98.9671 26.5054 98.9476 26.5232 98.8906C26.5493 98.7107 26.9616 98.4507 27.1371 98.1468C27.3495 97.7759 27.4106 97.3414 27.4052 96.9164C27.4509 96.0379 27.0921 95.2022 26.5457 94.5101C26.0273 93.78 25.0895 93.4327 24.4341 93.0819C23.5319 92.5738 22.7981 91.9785 22.4564 91.0383C22.3099 90.6151 22.2476 90.1723 22.2892 89.6998C22.3858 89.1038 22.3461 88.1506 21.4985 88.3025C20.3086 88.9875 20.3525 91.8378 20.6597 93.0327C21.0969 94.8496 21.849 96.955 21.5578 98.6484C21.451 99.1785 21.2197 99.5589 20.8424 99.5637C20.814 99.5548 20.795 99.5637 20.7671 99.5554C20.3792 98.6632 19.8785 97.8293 19.3589 97.0048C19.3204 96.93 19.2723 96.8831 19.2337 96.8083C19.4188 96.5228 19.5944 96.2189 19.6946 95.9061C19.8595 95.4888 19.9485 95.0627 20.0191 94.6466C20.1217 94.57 20.063 94.3629 20.0523 94.2495C19.9983 93.6838 19.7089 93.168 19.4858 92.6421C19.1175 91.8349 19.0967 90.919 18.7468 90.0547C18.2823 89.1068 17.3576 88.3251 16.2904 88.2343C16.2151 88.226 16.1208 88.2271 16.036 88.2467C15.9328 87.5398 15.877 86.8329 15.8972 86.1336C16.4043 85.9669 16.8623 85.6119 17.045 85.0907C17.1458 84.8723 17.1998 84.6076 17.1867 84.3529C17.7698 84.1951 18.3986 83.9416 18.6465 83.3629C18.7011 83.1925 18.7557 83.0216 18.7912 82.8607C18.936 83.1421 19.1187 83.4044 19.3287 83.6282C20.101 84.2983 20.8709 83.2127 21.2221 82.6043C21.7215 81.7769 22.8076 81.1216 23.1344 80.0508C23.4992 79.0079 23.3794 77.7157 22.5958 76.8853C22.0703 76.3249 21.3484 75.9374 20.5915 75.7581C20.0244 75.6708 19.4218 75.7439 18.8956 75.9676L18.8767 75.9771C18.4205 75.6898 17.8807 75.5171 17.4181 75.4946C16.6624 75.4091 15.9589 75.7486 15.2352 75.9552C15.0187 75.9955 14.887 76.0157 14.613 75.9908L14.5845 75.9819C14.556 75.973 14.5275 75.9635 14.5092 75.9736C14.1995 75.326 13.8899 74.6784 13.6176 74.0112C13.3845 73.4663 13.1419 72.903 12.9183 72.3297C13.2493 72.373 13.5696 72.3498 13.8982 72.2519C14.4154 72.1041 14.8146 71.5895 14.7702 71.0422C14.7375 70.7027 14.5637 70.3649 14.5797 70.1192C14.5679 69.9115 14.7452 69.7488 14.9018 69.4544C15.1409 68.9511 14.8888 68.3688 14.6094 67.9189C14.1384 67.1882 13.1905 66.822 12.3245 66.984C12.0137 67.0255 11.796 66.9715 11.5214 66.8991C12.0623 66.3827 12.2213 65.4935 12.63 64.9504C12.7136 64.8359 12.8257 64.7308 12.9373 64.6258C12.9189 64.6827 12.9479 64.7391 12.9859 64.767C12.9859 64.8145 13.0061 64.8519 13.025 64.8893C13.2427 65.7268 13.6485 66.5151 14.1853 67.1882C14.5981 67.7592 15.1883 68.2145 15.915 68.2435C16.3023 68.3047 16.6588 68.1213 16.9678 67.9379C17.3143 67.7354 17.6707 67.5514 18.0272 67.368C18.9372 66.9229 20.0043 67.0137 20.843 67.7206C21.0999 67.8969 21.3021 68.2435 21.5791 68.5047C21.6657 68.6264 21.8538 68.5771 21.8425 68.4163C21.8223 68.3314 21.7369 68.2572 21.6984 68.1818C21.2084 67.4606 20.8484 66.5305 20.3009 65.744C19.5902 64.7332 18.8138 63.6849 17.7585 63.0184C17.0556 62.6207 16.2234 62.48 15.422 62.4895C14.6201 62.499 13.8513 62.8955 13.378 63.5431C13.2297 63.7621 13.101 64.0185 13.0191 64.2744C12.9817 64.2939 12.9628 64.3034 12.9349 64.3414C12.2521 64.8121 12.1098 65.5505 11.7592 66.2058C11.5747 66.5382 11.4354 66.7288 11.1637 66.8926L11.0889 66.9312C10.6346 65.2656 10.2555 63.5615 10.3771 61.9078C10.376 61.8134 10.4032 61.728 10.4115 61.6526C10.5432 61.6318 10.685 61.6306 10.8072 61.5908C11.2871 61.462 11.5647 61.0341 11.7005 60.5604C11.9194 59.9253 11.9384 59.1792 11.5261 58.6082C11.4591 58.5239 11.3535 58.3648 11.2485 58.3001C11.2574 58.2716 11.2669 58.2431 11.2663 58.1962C11.5985 58.3808 11.9271 58.2354 12.1982 58.0247L12.2077 58.0437C12.3316 58.1458 12.5197 58.0965 12.6614 58.1422C12.7937 58.1689 13.1627 58.2402 13.2766 58.3233C13.6372 58.5174 13.7914 58.7702 14.0311 59.0979C14.2416 59.3691 14.5086 59.5644 14.8401 59.7015C15.5425 60.0517 16.3913 60.0416 16.7668 60.6316C17.0645 61.0715 17.2621 61.7772 17.6547 62.2634C17.8653 62.5346 18.1044 62.7679 18.3618 62.9911C18.4953 63.1122 18.6572 63.2422 18.8369 63.2683C19.2996 63.2908 19.0392 62.8314 18.9609 62.5868C18.8535 62.2859 18.7729 61.8526 18.7687 61.5226C18.7426 60.9189 19.0849 60.3859 19.0677 59.7063C19.0991 59.1679 18.9324 58.6598 18.672 58.2004C18.3535 57.5813 17.9033 57.0299 17.332 56.612C16.5325 56.0267 15.4636 55.7947 14.4759 56.0428C14.0061 56.19 13.6135 56.4874 13.2297 56.7562C12.6591 57.1694 12.0926 57.9125 11.6032 57.9748C11.4241 57.9956 11.4235 57.9487 11.2621 57.8656C11.3855 57.1373 11.4709 56.428 11.5943 55.6997C11.6821 55.1791 11.9484 54.5434 12.3002 53.9825C12.3287 53.9914 12.3476 53.9825 12.385 53.9623C12.7409 53.7314 13.2338 53.9522 13.7831 54.0965C14.766 54.2544 15.7946 54.2704 15.7791 52.996C15.7744 52.6185 15.7406 52.1371 15.8123 51.8629C15.9292 51.3987 16.0834 50.8687 15.842 50.3991C16.2347 50.1018 16.6369 49.8228 17.0491 49.5634C17.7888 49.1105 18.4834 48.8001 19.2628 48.5169C19.5475 48.6552 19.8328 48.8404 20.1449 48.8933C20.7499 49.0084 21.5418 48.933 22.0519 49.0025C22.667 49.1366 23.0763 49.4714 23.6647 49.7379C24.2804 49.9664 24.9679 49.8258 25.6091 49.8275C25.8167 49.8157 26.2699 49.8667 26.0771 49.5385C24.9383 48.2024 23.6766 46.8585 22.027 46.189C20.8424 45.7313 18.882 45.8874 18.5219 47.3547C18.5273 47.7797 18.7005 48.07 18.761 48.4184C18.5641 48.4962 18.3665 48.5745 18.1601 48.6808C17.2971 49.0785 16.4731 49.5978 15.7068 50.1831C15.4665 49.8085 15.0946 49.5011 14.7334 49.2601C14.3336 48.9912 13.9439 48.7407 13.48 48.5769C12.5701 48.2386 11.5581 48.8078 10.8452 49.1283C10.4981 49.2838 10.2627 49.3337 9.93286 49.3378C9.67839 49.3503 9.39485 49.3064 9.18902 49.4601C8.83371 49.7385 8.91557 50.2656 9.09945 50.6223C9.22521 50.8663 9.49094 51.0141 9.7377 51.1245C10.1262 51.28 10.7858 51.2248 11.0694 51.2687C11.4282 51.321 11.6661 51.4598 11.8387 51.7032C11.8962 51.7685 11.955 51.9757 11.9378 52.0795C11.9218 52.3253 11.8494 52.5526 11.8518 52.7888C11.8179 53.0916 11.9437 53.3824 12.1169 53.6258C12.1264 53.6448 12.146 53.6822 12.1839 53.7101C11.7859 54.3191 11.4822 54.9744 11.3588 55.7027C11.2183 56.5348 11.1334 57.3385 10.9733 58.1333C10.9353 58.1054 10.9068 58.0965 10.8499 58.0781C9.89193 57.646 8.60357 56.4345 7.39469 57.129C6.81279 57.3813 6.38689 58.0289 5.97523 58.3357C5.1709 58.8931 4.29538 59.083 3.40325 58.6408C2.68255 58.3476 2.49096 58.8503 2.86584 59.4404C3.16361 59.8802 3.58298 60.234 4.03913 60.5212C4.40037 60.7622 4.78949 60.9652 5.24267 60.9694C5.93075 60.9231 6.67221 60.6121 7.22089 60.7094C7.7411 60.7972 8.22512 61.0465 8.71745 61.2199C9.15343 61.3748 9.64517 61.5012 10.1268 61.5143C10.1185 61.5897 10.0912 61.6751 10.0924 61.7695C10.0272 62.6106 10.1031 63.4499 10.2265 64.2886C10.3682 65.0703 10.5379 65.8616 10.7455 66.6332C10.4987 66.5228 10.1968 66.489 9.93286 66.5299C9.40553 66.6118 8.97548 66.9288 8.4873 67.133C8.0365 67.3176 7.33952 67.3924 7.03345 67.0279C6.6989 66.6546 6.45689 66.1382 5.94498 65.9743C5.54756 65.8942 5.60094 66.413 5.61399 66.6676C5.62882 67.111 5.84118 67.5241 6.06302 67.9082C6.41003 68.5362 6.92608 69.0775 7.51629 69.4859C8.24885 69.9868 8.94048 70.2237 9.68135 70.6493C10.271 71.0576 10.8523 71.5414 11.535 71.8067C11.8666 71.9444 12.2177 72.072 12.5861 72.1433C12.7611 72.5754 12.9462 73.0265 13.1211 73.4586C13.7523 74.914 14.4576 76.284 14.9653 77.7317C14.0578 77.5821 13.1508 77.48 12.296 77.0182C11.8215 76.7879 11.2046 76.465 10.6998 76.084C10.1096 75.6287 8.92684 74.5763 8.54484 75.7706C8.40189 76.414 8.65517 77.0907 9.01997 77.6154C9.52772 78.2796 10.1867 78.9135 10.497 79.608C11.1032 81.3851 11.5059 83.4566 13.0037 84.845C13.5951 85.3946 14.244 86.0102 15.0845 86.0755C15.2542 86.0826 15.4333 86.0618 15.603 86.0221C15.5947 86.0974 15.6047 86.1639 15.5964 86.2393C15.6036 86.853 15.6587 87.4656 15.7601 88.0782C14.3656 88.2272 13.0553 89.0926 12.1721 90.142C11.169 91.4662 10.3475 92.9585 9.77211 94.5136C9.59 95.0822 9.22936 95.6717 9.41621 96.2646C9.58289 96.7721 10.1434 97.1241 10.682 97.1556C11.0878 97.1603 11.4626 96.9668 11.8482 96.8392C11.9894 96.7905 12.1489 96.7318 12.2996 96.7015C12.2391 97.1366 12.0742 97.5539 11.7954 97.9349C11.3968 98.497 10.7811 99.0989 10.4412 99.8207C9.75728 99.4135 8.89718 99.3108 8.13674 99.5845C7.1503 99.9269 6.4818 100.794 5.735 101.464C5.27826 101.913 4.95142 102.2 4.3108 102.293C3.73661 102.375 2.7822 102.274 2.11489 102.499C1.42859 102.686 0.954056 103.24 0.678825 103.857C-0.0857696 105.367 -0.00806442 107.132 0.0121033 108.784C0.0779451 110.34 0.0595568 111.917 0.304536 113.453C0.424356 114.009 0.479521 114.669 0.712043 115.166C1.16285 115.765 1.48909 114.694 1.60951 114.513H1.60891ZM37.9565 76.2537C38.2264 76.7321 38.4305 77.22 38.663 77.7181C38.8854 78.1496 39.1168 78.5526 39.3013 79.0037C39.3689 79.1349 39.4175 79.2762 39.4573 79.3984C38.9483 79.4234 38.3824 79.4305 37.9755 79.3314C37.6255 79.2506 37.2744 79.0755 36.9066 79.0987C36.8876 79.1082 36.8592 79.0987 36.8592 79.0987C37.1593 78.1603 37.5722 77.2111 37.9565 76.2531V76.2537ZM35.1342 86.2571C35.1716 86.2375 35.2369 86.1805 35.2641 86.0951C36.2423 85.0919 37.5597 85.5763 38.9815 86.1253C39.8725 86.4732 40.8269 86.5747 41.6899 86.9611C42.4006 87.2359 43.2185 87.7636 43.7055 88.2485C43.801 88.3417 43.906 88.4539 43.9926 88.5756C43.2156 89.0475 42.6105 89.7627 42.3573 90.6537C41.8098 92.1708 41.8305 93.9171 41.4806 95.3565C41.1816 96.3893 40.7118 97.32 39.9947 98.0934C39.446 97.2126 38.5794 97.2796 37.6582 97.5651C37.1973 97.6839 36.8491 97.745 36.6195 97.4832C36.4475 97.2874 36.3407 97.0333 36.2055 96.771C36.2719 96.8078 36.3574 96.8351 36.4238 96.8719C36.8971 97.0078 37.4156 96.9544 37.886 96.854C38.9293 96.53 39.3766 95.3256 39.516 94.3516C39.5409 94.0773 39.4905 93.7948 39.3837 93.5414C39.5812 93.5105 39.7414 93.4523 39.9098 93.3651C40.2563 93.1627 40.5167 92.8386 40.7581 92.524C41.3329 91.7049 41.4622 90.6649 41.2237 89.6956C40.7177 87.6532 39.0308 87.0032 37.087 86.9611C36.4262 86.9219 35.715 86.6471 35.0233 86.3634C35.1075 86.2963 35.1164 86.2678 35.1354 86.2583L35.1342 86.2571ZM32.7877 98.1522C33.2669 98.0234 33.7563 97.9136 34.13 97.5788C34.5411 97.2244 34.7985 96.7116 34.8584 96.1821C34.8756 96.0308 34.8454 95.88 34.8151 95.7292C34.8626 95.7761 34.9106 95.8224 34.9682 95.8877C34.7689 96.5602 34.7113 97.2785 34.6728 97.9872C34.6585 98.3742 34.6817 98.7422 34.8466 99.1084C34.856 99.1274 34.8377 99.1369 34.8466 99.1559C35.1947 99.8789 35.9386 100.54 36.304 101.111C36.7192 101.918 36.3823 102.923 35.8621 103.571C35.295 104.267 34.585 104.823 33.9034 105.436L33.8744 105.379C33.7587 105.154 33.5861 104.958 33.4146 104.809C32.7088 104.176 31.736 104.084 31.0598 103.554C30.7549 103.331 30.6184 102.926 30.7946 102.669C30.8136 102.66 30.8225 102.631 30.8415 102.621C30.9441 102.545 31.0568 102.486 31.1594 102.41C31.9744 101.918 32.8529 101.276 33.0113 100.291C33.0712 99.8094 33.0463 99.2995 32.965 98.8193C32.9247 98.6027 32.8559 98.3771 32.7871 98.151L32.7877 98.1522ZM15.3022 104.057C15.4054 104.027 15.5092 103.998 15.5561 103.997C15.8295 103.975 15.9713 104.02 16.246 104.093C16.9376 104.329 17.6791 104.802 18.4466 105.095C18.434 105.101 18.4247 105.114 18.4187 105.133C18.2188 105.759 17.7615 106.161 17.0651 106.33C16.5004 106.431 16.0805 106.814 15.775 107.28C15.6913 107.395 15.6267 107.499 15.5531 107.632C15.6166 107.433 15.6991 107.224 15.7625 107.025C15.9067 106.476 15.9375 105.891 15.8361 105.325C15.7554 104.892 15.5519 104.451 15.3016 104.058L15.3022 104.057ZM12.1282 98.2614C12.4342 97.8423 12.5701 97.3687 12.6395 96.8582C12.8085 96.8184 12.9877 96.7977 13.1383 96.7674C14.0145 96.6718 14.7435 96.8897 15.4108 97.4476C15.9162 97.8756 16.5052 98.2371 17.1755 98.2477C17.9952 98.1813 18.6785 97.7106 19.1614 97.0814C19.8062 98.1023 20.4219 99.1144 20.8608 100.29C21.104 100.9 21.2618 101.484 21.4297 102.086C21.2796 102.163 21.1105 102.203 20.9308 102.177C20.6099 102.152 20.1354 101.922 19.7474 101.813C18.5261 101.47 17.236 101.636 16.0514 102.009C15.4689 102.215 14.8514 102.628 14.3899 102.699C14.3431 102.7 14.2956 102.701 14.2298 102.711C13.276 102.609 12.3091 102.253 11.761 101.419C11.5018 101.054 11.3078 100.632 10.965 100.334C10.889 100.278 10.8125 100.222 10.7271 100.148C11.0777 99.4919 11.6376 98.966 12.1288 98.2614H12.1282Z" fill="url(#paint0_linear_198_365)"/>
<path fill-rule="evenodd" clip-rule="evenodd" d="M19.1525 123.313C19.3631 124.803 20.0624 126.334 21.0216 127.814C22.2548 129.716 23.8747 131.553 25.1322 133.117C26.2379 134.522 27.4076 135.858 28.6212 137.147C29.8396 138.439 31.1167 139.667 32.4478 140.849C34.2047 142.408 36.059 143.873 38.0508 145.219C42.6752 148.342 47.9989 150.83 54.2823 152.459C54.9378 152.61 55.5986 152.198 55.7457 151.539C55.8975 150.88 55.4865 150.223 54.8257 150.073C48.7042 148.849 43.4095 146.813 38.8439 143.994C36.8574 142.769 35.0026 141.404 33.2948 139.894C31.9934 138.748 30.7845 137.512 29.6391 136.215C28.5038 134.922 27.4468 133.553 26.439 132.137C25.328 130.542 23.8652 128.671 22.8129 126.745C22.1426 125.516 21.658 124.267 21.5898 123.075C21.5263 122.403 20.9243 121.91 20.254 121.976C19.579 122.042 19.0896 122.642 19.1531 123.313H19.1525Z" fill="#E1EBFF"/>
<path fill-rule="evenodd" clip-rule="evenodd" d="M55.2943 6.25735C56.3074 5.459 57.4475 4.83872 58.651 4.34369C60.5349 3.5679 62.5659 3.08236 64.5086 2.6823C69.0107 1.76583 73.6837 1.5563 78.2054 2.24306C82.7319 2.93041 87.0917 4.50811 90.9722 7.10081C94.2115 9.297 97.0842 11.99 99.986 14.6237C101.958 16.4192 103.945 18.1886 106.088 19.7444C108.393 21.4242 110.874 22.8624 113.688 23.8388C116.012 24.6514 118.356 25.0301 120.71 25.2111C126.063 25.6219 131.47 24.9482 136.809 26.0985C139.016 26.5775 141.032 27.4144 142.926 28.471C145.842 30.0968 148.47 32.2461 151.068 34.4476C151.592 34.8774 152.36 34.8026 152.791 34.2808C153.221 33.7591 153.148 32.9868 152.624 32.5577C149.85 30.3354 147.04 28.1813 143.953 26.5668C141.849 25.4687 139.627 24.614 137.2 24.154C131.749 23.1117 126.268 23.9124 120.817 23.6126C118.59 23.4904 116.369 23.1764 114.157 22.4528C111.466 21.5642 109.082 20.2335 106.866 18.6605C104.747 17.157 102.779 15.4422 100.842 13.6805C97.8963 11.0047 95.0188 8.2268 91.7451 5.96947C87.7377 3.16961 83.1964 1.44412 78.4741 0.604813C73.762 -0.23271 68.8636 -0.180476 64.1266 0.638052C62.0368 0.993599 59.8546 1.44649 57.8141 2.20388C56.3851 2.73394 55.0297 3.41891 53.8114 4.31164C53.2781 4.7212 53.1701 5.48987 53.5812 6.02764C53.9923 6.56482 54.7604 6.66928 55.2937 6.25913L55.2943 6.25735Z" fill="#E1EBFF"/>
<path fill-rule="evenodd" clip-rule="evenodd" d="M100.968 45.669C100.968 41.2873 97.4134 37.73 93.037 37.73H34.5245C30.1481 37.73 26.5938 41.2873 26.5938 45.669V128.38C26.5938 132.761 30.1481 136.319 34.5245 136.319H93.037C97.4134 136.319 100.968 132.762 100.968 128.38V45.669Z" fill="white"/>
<mask id="mask0_198_365" style="mask-type:luminance" maskUnits="userSpaceOnUse" x="26" y="37" width="75" height="100">
<path d="M100.968 45.669C100.968 41.2873 97.4134 37.73 93.037 37.73H34.5245C30.1481 37.73 26.5938 41.2873 26.5938 45.669V128.38C26.5938 132.761 30.1481 136.319 34.5245 136.319H93.037C97.4134 136.319 100.968 132.762 100.968 128.38V45.669Z" fill="white"/>
</mask>
<g mask="url(#mask0_198_365)">
<path fill-rule="evenodd" clip-rule="evenodd" d="M109.788 50.6597V39.2739C109.788 38.4215 108.933 37.73 107.882 37.73H19.681C18.6305 37.73 17.7758 38.4215 17.7758 39.2739V50.6597C17.7758 51.5115 18.6305 52.2036 19.681 52.2036H107.882C108.933 52.2036 109.788 51.5121 109.788 50.6597Z" fill="#4CA9EC"/>
<path d="M34.8531 46.928C35.9355 46.928 36.8129 46.0499 36.8129 44.9668C36.8129 43.8837 35.9355 43.0057 34.8531 43.0057C33.7707 43.0057 32.8933 43.8837 32.8933 44.9668C32.8933 46.0499 33.7707 46.928 34.8531 46.928Z" fill="white"/>
<path d="M41.0618 46.928C42.1442 46.928 43.0216 46.0499 43.0216 44.9668C43.0216 43.8837 42.1442 43.0057 41.0618 43.0057C39.9794 43.0057 39.102 43.8837 39.102 44.9668C39.102 46.0499 39.9794 46.928 41.0618 46.928Z" fill="white"/>
<path d="M49.3947 45.2836C49.5682 44.2145 48.8426 43.2072 47.7742 43.0336C46.7058 42.8601 45.6991 43.5861 45.5257 44.6552C45.3523 45.7243 46.0778 46.7317 47.1462 46.9052C48.2146 47.0788 49.2213 46.3528 49.3947 45.2836Z" fill="white"/>
</g>
<path d="M57.7067 83.072C62.9727 77.8024 62.9727 69.2588 57.7067 63.9892C52.4407 58.7196 43.9028 58.7196 38.6367 63.9892C33.3707 69.2588 33.3707 77.8024 38.6367 83.072C43.9028 88.3415 52.4407 88.3415 57.7067 83.072Z" fill="#353C54"/>
<mask id="mask1_198_365" style="mask-type:luminance" maskUnits="userSpaceOnUse" x="34" y="60" width="28" height="28">
<path d="M57.7067 83.072C62.9727 77.8024 62.9727 69.2588 57.7067 63.9892C52.4407 58.7196 43.9028 58.7196 38.6367 63.9892C33.3707 69.2588 33.3707 77.8024 38.6367 83.072C43.9028 88.3415 52.4407 88.3415 57.7067 83.072Z" fill="white"/>
</mask>
<g mask="url(#mask1_198_365)">
<path fill-rule="evenodd" clip-rule="evenodd" d="M34.7956 80.2241C41.4064 69.7114 44.4601 69.1416 48.1691 73.3215C51.883 77.5014 53.0183 78.7301 57.2612 76.8016C61.4988 74.8731 63.4759 76.963 64.7826 79.8442C66.0894 82.726 48.6247 90.6103 45.3949 90.5468C42.1651 90.4839 28.1799 90.7367 34.7956 80.2241Z" fill="url(#paint1_linear_198_365)"/>
</g>
<path d="M55.7647 70.895C58.3815 70.895 60.5029 68.7722 60.5029 66.1536C60.5029 63.535 58.3815 61.4122 55.7647 61.4122C53.1478 61.4122 51.0264 63.535 51.0264 66.1536C51.0264 68.7722 53.1478 70.895 55.7647 70.895Z" fill="url(#paint2_linear_198_365)"/>
<path fill-rule="evenodd" clip-rule="evenodd" d="M61.1192 97.7147C61.1192 97.399 60.9947 97.0968 60.7734 96.8742C60.548 96.6511 60.2455 96.5258 59.9287 96.5258H38.5563C38.2443 96.5258 37.9417 96.6511 37.7163 96.8742C37.4957 97.0968 37.3705 97.3995 37.3705 97.7147V97.7159C37.3705 98.0317 37.4951 98.3338 37.7163 98.5564C37.9417 98.7796 38.2443 98.9048 38.5563 98.9048H59.9287C60.2455 98.9048 60.548 98.7796 60.7734 98.5564C60.9941 98.3332 61.1192 98.0311 61.1192 97.7159V97.7147Z" fill="#353C54"/>
<path fill-rule="evenodd" clip-rule="evenodd" d="M97.4396 75.7652C97.4396 73.7875 95.835 72.183 93.8562 72.183H69.1282C67.1494 72.183 65.5514 73.7875 65.5514 75.7652V75.7664C65.5514 77.7442 67.1494 79.348 69.1282 79.348H93.8562C95.8345 79.348 97.4396 77.7442 97.4396 75.7664V75.7652Z" fill="#EFEFFE"/>
<path fill-rule="evenodd" clip-rule="evenodd" d="M59.6333 114.307C59.6333 113.651 59.1007 113.118 58.447 113.118H37.8943C37.2412 113.118 36.7079 113.651 36.7079 114.307V114.309C36.7079 114.965 37.2406 115.497 37.8943 115.497H58.447C59.1001 115.497 59.6333 114.965 59.6333 114.309V114.307Z" fill="#353C54"/>
<path fill-rule="evenodd" clip-rule="evenodd" d="M87.7086 114.173C87.7086 113.517 87.176 112.984 86.5223 112.984H65.9696C65.3165 112.984 64.7832 113.517 64.7832 114.173V114.174C64.7832 114.831 65.3159 115.363 65.9696 115.363H86.5223C87.1754 115.363 87.7086 114.831 87.7086 114.174V114.173Z" fill="#353C54"/>
<path fill-rule="evenodd" clip-rule="evenodd" d="M87.708 102.128C87.708 101.812 87.5858 101.51 87.3622 101.287C87.1386 101.064 86.8331 100.939 86.5181 100.939H38.5622C38.2466 100.939 37.9417 101.064 37.7181 101.287C37.4945 101.51 37.3723 101.813 37.3723 102.128V102.129C37.3723 102.445 37.4945 102.747 37.7181 102.97C37.9417 103.193 38.2472 103.318 38.5622 103.318H86.5181C86.8337 103.318 87.1386 103.193 87.3622 102.97C87.5858 102.746 87.708 102.444 87.708 102.129V102.128Z" fill="#353C54"/>
<path fill-rule="evenodd" clip-rule="evenodd" d="M59.6333 118.72C59.6333 118.063 59.1007 117.531 58.447 117.531H37.8943C37.2412 117.531 36.7079 118.063 36.7079 118.72V118.721C36.7079 119.378 37.2406 119.91 37.8943 119.91H58.447C59.1001 119.91 59.6333 119.378 59.6333 118.721V118.72Z" fill="#353C54"/>
<path fill-rule="evenodd" clip-rule="evenodd" d="M87.7086 118.586C87.7086 117.929 87.176 117.397 86.5223 117.397H65.9696C65.3165 117.397 64.7832 117.929 64.7832 118.586V118.587C64.7832 119.243 65.3159 119.776 65.9696 119.776H86.5223C87.1754 119.776 87.7086 119.243 87.7086 118.587V118.586Z" fill="#353C54"/>
<path fill-rule="evenodd" clip-rule="evenodd" d="M87.708 106.808C87.708 106.492 87.5858 106.19 87.3622 105.968C87.1386 105.745 86.8331 105.619 86.5181 105.619H38.5622C38.2466 105.619 37.9417 105.745 37.7181 105.968C37.4945 106.19 37.3723 106.493 37.3723 106.808V106.809C37.3723 107.125 37.4945 107.427 37.7181 107.65C37.9417 107.873 38.2472 107.998 38.5622 107.998H86.5181C86.8337 107.998 87.1386 107.873 87.3622 107.65C87.5858 107.427 87.708 107.125 87.708 106.809V106.808Z" fill="#353C54"/>
<path fill-rule="evenodd" clip-rule="evenodd" d="M59.6333 123.401C59.6333 122.744 59.1007 122.212 58.447 122.212H37.8943C37.2412 122.212 36.7079 122.744 36.7079 123.401V123.402C36.7079 124.058 37.2406 124.591 37.8943 124.591H58.447C59.1001 124.591 59.6333 124.058 59.6333 123.402V123.401Z" fill="#353C54"/>
<path fill-rule="evenodd" clip-rule="evenodd" d="M87.7086 123.267C87.7086 122.61 87.176 122.078 86.5223 122.078H65.9696C65.3165 122.078 64.7832 122.61 64.7832 123.267V123.268C64.7832 123.924 65.3159 124.457 65.9696 124.457H86.5223C87.1754 124.457 87.7086 123.924 87.7086 123.268V123.267Z" fill="#353C54"/>
<path fill-rule="evenodd" clip-rule="evenodd" d="M147.366 51.6931C152.063 51.6931 155.488 56.0208 154.819 61.8959C154.345 66.0592 149.267 70.3934 144.242 72.4709C139.903 74.2653 139.879 67.6992 139.879 61.7867C139.879 55.8742 142.672 51.6931 147.366 51.6931Z" fill="url(#paint3_linear_198_365)"/>
<path fill-rule="evenodd" clip-rule="evenodd" d="M143.783 82.9378C148.3 93.4083 118.039 126.955 107.951 126.094C97.8613 125.229 83.2474 77.7548 83.2474 77.7548L78.9961 72.183L90.2112 73.6034L89.4306 75.1271C89.4306 75.1271 105.247 102.68 109.546 104.744C111.683 105.771 117.256 88.9043 129.083 82.1982C141.979 74.892 141.2 76.9487 143.783 82.9378Z" fill="url(#paint4_linear_198_365)"/>
<mask id="mask2_198_365" style="mask-type:luminance" maskUnits="userSpaceOnUse" x="78" y="72" width="67" height="55">
<path d="M143.783 82.9378C148.3 93.4083 118.039 126.955 107.951 126.094C97.8613 125.229 83.2474 77.7548 83.2474 77.7548L78.9961 72.183L90.2112 73.6034L89.4306 75.1271C89.4306 75.1271 105.247 102.68 109.546 104.744C111.683 105.771 117.256 88.9043 129.083 82.1982C141.979 74.892 141.2 76.9487 143.783 82.9378Z" fill="white"/>
</mask>
<g mask="url(#mask2_198_365)">
<path fill-rule="evenodd" clip-rule="evenodd" d="M115.56 89.9319C118.891 89.4517 124.406 90.3509 126.296 93.4363C127.38 95.2045 127.024 97.3111 127.541 99.2461C128.693 103.56 132.711 107.705 137.448 107.534C143.245 107.329 145.126 99.5678 146.225 95.1576C147.698 89.2202 149.156 81.6047 144.188 76.8823C143.3 76.0377 142.281 75.3693 141.186 74.8309C139.732 74.1139 138.181 73.6438 136.585 73.388C134.591 73.0681 132.515 73.0544 130.524 73.4117C127.252 74.0053 124.209 75.6714 121.678 77.7952C118.398 80.5577 116.008 83.9636 114.109 87.7826L115.56 89.9313L115.56 89.9319Z" fill="url(#paint5_linear_198_365)"/>
</g>
<path fill-rule="evenodd" clip-rule="evenodd" d="M150.361 75.456C166.205 76.8509 171.561 77.2016 170.713 106.514C169.858 136.407 130.609 135.358 130.609 135.358C130.609 135.358 136.372 116.66 131.744 100.716C126.149 81.4706 139.17 74.4701 150.361 75.4554V75.456Z" fill="url(#paint6_linear_198_365)"/>
<path fill-rule="evenodd" clip-rule="evenodd" d="M111.629 68.3759C111.629 65.4923 109.29 63.1507 106.408 63.1507H76.7095C73.8273 63.1507 71.4884 65.4923 71.4884 68.3759C71.4884 71.2594 73.8273 73.6022 76.7095 73.6022H106.408C109.29 73.6022 111.629 71.2606 111.629 68.3759Z" fill="#ABCDFF"/>
<path d="M79.2423 66.0968V66.8672C79.0317 66.8293 78.846 66.8097 78.6794 66.8097C78.1805 66.8097 77.8133 66.9165 77.5784 67.1296C77.3436 67.3433 77.2065 67.7024 77.1769 68.2093H77.216C77.4165 67.8609 77.754 67.687 78.2291 67.687C78.6355 67.687 78.9582 67.8146 79.1978 68.0704C79.4374 68.3262 79.5549 68.6758 79.5549 69.1198C79.5549 69.6066 79.4179 69.9912 79.1438 70.2731C78.8698 70.5557 78.4931 70.6969 78.0186 70.6969C77.6811 70.6969 77.3874 70.6144 77.1377 70.4494C76.888 70.2844 76.6976 70.0458 76.5701 69.7348C76.4431 69.4231 76.3791 69.048 76.3791 68.6082C76.3791 67.7695 76.5647 67.1343 76.9467 66.704C77.3281 66.2731 77.891 66.0576 78.6396 66.0576C78.8745 66.0576 79.075 66.0713 79.2417 66.098L79.2423 66.0968ZM78.7138 69.143C78.7138 68.9067 78.655 68.7245 78.5376 68.5975C78.4154 68.4699 78.244 68.4064 78.0192 68.4064C77.7944 68.4064 77.6128 68.4722 77.4663 68.6022C77.3145 68.7328 77.2409 68.883 77.2409 69.0528C77.2409 69.305 77.3097 69.5157 77.4515 69.6867C77.5885 69.8576 77.7742 69.9425 78.0091 69.9425C78.2244 69.9425 78.3958 69.876 78.5228 69.7431C78.6497 69.6101 78.7138 69.4101 78.7138 69.1424V69.143Z" fill="#204B8C"/>
<path d="M83.7931 68.256V68.2792C84.5126 68.3688 84.8744 68.7291 84.8744 69.3606C84.8744 69.7761 84.7226 70.1026 84.4094 70.34C84.1009 70.5775 83.6561 70.6968 83.0783 70.6968C82.5842 70.6968 82.1536 70.6154 81.7864 70.4522V69.6485C81.9673 69.7399 82.1678 69.8124 82.3885 69.8646C82.6038 69.9168 82.8191 69.9435 83.0243 69.9435C83.3524 69.9435 83.5968 69.8919 83.7581 69.7892C83.9194 69.6871 84.0025 69.528 84.0025 69.3144C84.0025 69.0751 83.9094 68.9072 83.7284 68.8092C83.5475 68.7107 83.2586 68.662 82.8577 68.662H82.4762V67.9557H82.8381C83.1904 67.9557 83.4544 67.91 83.6359 67.8186C83.8168 67.7271 83.9099 67.5657 83.9099 67.333C83.9099 67.168 83.8512 67.0398 83.7438 66.9484C83.6365 66.857 83.4651 66.8107 83.2349 66.8107C83.0688 66.8107 82.9021 66.8374 82.7361 66.8896C82.5747 66.9419 82.3985 67.0261 82.217 67.1425L81.7911 66.4967C82.2657 66.2041 82.7598 66.058 83.2836 66.058C83.7433 66.058 84.1057 66.1542 84.3696 66.3477C84.6336 66.5406 84.7659 66.8036 84.7659 67.136C84.7659 67.4173 84.6781 67.6547 84.5114 67.8506C84.3453 68.0459 84.1003 68.1818 83.7919 68.2578L83.7931 68.256Z" fill="#204B8C"/>
<path d="M89.3475 68.2488C89.6803 68.4228 89.9199 68.6085 90.0718 68.8062C90.2183 69.0033 90.2966 69.2229 90.2966 69.4639C90.2966 69.8319 90.1495 70.1299 89.8612 70.356C89.5676 70.5827 89.1862 70.6961 88.7211 70.6961C88.2223 70.6961 87.8308 70.5887 87.5514 70.375C87.2774 70.1607 87.1356 69.8639 87.1356 69.4841C87.1356 69.2211 87.2092 68.9902 87.3509 68.7914C87.4879 68.5931 87.708 68.4222 88.0016 68.2791C87.517 67.9782 87.2726 67.6007 87.2726 67.1478C87.2726 66.8154 87.4096 66.5507 87.6789 66.3524C87.9482 66.1553 88.2952 66.0562 88.7211 66.0562C89.147 66.0562 89.494 66.1541 89.7586 66.3494C90.0225 66.5441 90.1596 66.8124 90.1596 67.1543C90.1596 67.6226 89.8855 67.9877 89.3475 68.2488ZM88.7211 67.8808C88.9513 67.7847 89.1079 67.685 89.1957 67.5811C89.2835 67.4772 89.3279 67.3573 89.3279 67.2214C89.3279 67.0766 89.274 66.9614 89.1613 66.8765C89.0486 66.7916 88.8973 66.7489 88.7111 66.7489C88.5349 66.7489 88.3878 66.7905 88.2757 66.873C88.163 66.9555 88.1096 67.0718 88.1096 67.2214C88.1096 67.3555 88.1535 67.4748 88.2466 67.5799C88.3445 67.685 88.5011 67.7853 88.7211 67.8808ZM88.6672 68.6406C88.1974 68.8388 87.9625 69.1024 87.9625 69.4306C87.9625 69.6093 88.0259 69.75 88.1582 69.8521C88.2852 69.9548 88.4714 70.0064 88.7063 70.0064C88.9412 70.0064 89.1369 69.9565 89.2692 69.8574C89.4015 69.7583 89.465 69.6182 89.465 69.4372C89.465 69.3012 89.411 69.173 89.3036 69.0525C89.1909 68.9314 89.01 68.8104 88.7603 68.6875L88.6672 68.6412V68.6406Z" fill="#204B8C"/>
<path d="M95.7039 70.6291H92.5572V69.9631L93.7269 68.805C94.1623 68.3723 94.4363 68.072 94.5443 67.9046C94.6522 67.7372 94.711 67.5645 94.711 67.3858C94.711 67.2072 94.657 67.0795 94.5496 66.9828C94.447 66.8854 94.3052 66.8368 94.1291 66.8368C93.9529 66.8368 93.7767 66.8718 93.6106 66.9418C93.4392 67.0125 93.2488 67.1335 93.0281 67.3051L92.5435 66.6997C92.7784 66.5234 92.9641 66.3963 93.1064 66.3198C93.2435 66.2426 93.4001 66.1797 93.581 66.131C93.7571 66.0823 93.9481 66.0568 94.1534 66.0568C94.5793 66.0568 94.9215 66.1732 95.1807 66.4052C95.44 66.6373 95.5722 66.9329 95.5722 67.2926C95.5722 67.5134 95.5283 67.7224 95.4447 67.9206C95.3617 68.1177 95.2341 68.3177 95.058 68.5195C94.8865 68.7219 94.6226 68.9884 94.2655 69.3208L93.737 69.8129V69.8497H95.7039V70.6297V70.6291Z" fill="#204B8C"/>
<path d="M98.1994 70.6558V69.8823C98.3655 69.9227 98.5517 69.9423 98.7623 69.9423C99.2665 69.9423 99.6384 69.8319 99.878 69.6129C100.118 69.3932 100.245 69.027 100.265 68.5165H100.226C100.108 68.7195 99.9712 68.8608 99.8045 68.9404C99.6431 69.0193 99.4373 69.0591 99.1977 69.0591C98.7866 69.0591 98.4639 68.9303 98.2338 68.6727C97.9989 68.4145 97.8814 68.0548 97.8814 67.593C97.8814 67.1312 98.0185 66.743 98.2973 66.4681C98.5713 66.1939 98.948 66.0562 99.413 66.0562C99.9219 66.0562 100.323 66.2373 100.617 66.5987C100.915 66.9602 101.062 67.4748 101.062 68.1414C101.062 68.9736 100.871 69.6075 100.494 70.0426C100.118 70.4777 99.5548 70.6955 98.8062 70.6955C98.5665 70.6955 98.3607 70.6825 98.1994 70.6552V70.6558ZM98.7231 67.5799C98.7231 68.0862 98.9533 68.3397 99.4083 68.3397C99.6331 68.3397 99.8193 68.2738 99.9712 68.1426C100.123 68.0108 100.196 67.8612 100.196 67.6939C100.196 67.4576 100.127 67.2511 99.9854 67.0742C99.8436 66.8979 99.6574 66.81 99.4278 66.81C99.1983 66.81 99.0363 66.8771 98.9088 67.0113C98.7866 67.1448 98.7231 67.3342 98.7231 67.5805V67.5799Z" fill="#204B8C"/>
<path d="M104.874 70.6961C104.355 70.6961 103.964 70.5008 103.7 70.1103C103.435 69.7197 103.304 69.1451 103.304 68.386C103.304 67.6268 103.436 67.016 103.695 66.632C103.954 66.2479 104.351 66.0562 104.874 66.0562C105.921 66.0562 106.45 66.8308 106.45 68.3794C106.45 69.1849 106.317 69.7719 106.063 70.1417C105.804 70.5109 105.408 70.6955 104.874 70.6955L104.874 70.6961ZM104.874 69.9429C105.129 69.9429 105.31 69.8206 105.418 69.5761C105.53 69.3315 105.584 68.9332 105.584 68.38C105.584 67.8268 105.53 67.4155 105.418 67.1727C105.31 66.9305 105.129 66.8094 104.874 66.8094C104.693 66.8094 104.552 66.8676 104.448 66.984C104.346 67.1003 104.272 67.2718 104.228 67.4998C104.189 67.7277 104.165 68.0227 104.165 68.3866C104.165 68.9356 104.224 69.3321 104.331 69.5767C104.444 69.8212 104.625 69.9435 104.874 69.9435V69.9429Z" fill="#204B8C"/>
<path fill-rule="evenodd" clip-rule="evenodd" d="M87.8308 73.6023C87.7822 73.0194 89.0397 71.0066 89.5629 70.6962C90.067 70.3982 90.9182 71.1585 90.9722 71.7408C91.0215 72.3237 90.385 73.8812 89.8612 74.1911C89.3374 74.5015 87.8794 74.1846 87.8302 73.6023H87.8308Z" fill="#FB9C9A"/>
<path fill-rule="evenodd" clip-rule="evenodd" d="M147.863 51.6931C147.863 51.6931 148.89 53.9658 148.147 55.7566C147.951 56.2291 147.491 56.5746 147.119 56.9165C146.165 57.7843 144.966 58.2461 143.934 58.9833C143.625 59.1999 142.97 59.6196 143.009 60.0701C143.063 60.5954 144.095 60.3485 144.379 60.2642C145.495 59.93 146.376 59.5353 146.978 60.4446C147.59 61.373 147.1 63.6564 146.469 65.2033C146.356 65.4775 145.847 66.6397 146.43 66.756C146.807 66.8302 147.139 66.3928 147.345 66.147C147.937 65.4252 148.094 62.9619 148.681 62.2324C148.955 61.8947 149.376 61.5095 149.767 62.1191C150.971 64.0007 149.757 65.9375 148.416 66.5827C146.802 67.3632 146.596 71.2974 146.596 71.2974C146.596 71.2974 150.1 72.3955 151.186 69.5749C153.109 70.245 156.755 69.7856 156.73 66.0764C160.185 64.6429 161.77 59.2177 158.531 57.3409C159.001 57.1123 159.29 56.444 159.417 55.981C160.743 51.3037 155.277 46.0578 150.129 48.9912C148.994 49.6376 148.167 50.4709 147.863 51.6949V51.6931Z" fill="url(#paint7_linear_198_365)"/>
<path d="M99.4504 163.515C109.132 163.515 116.98 155.661 116.98 145.973C116.98 136.285 109.132 128.432 99.4504 128.432C89.7689 128.432 81.9205 136.285 81.9205 145.973C81.9205 155.661 89.7689 163.515 99.4504 163.515Z" fill="url(#paint8_linear_198_365)"/>
<path fill-rule="evenodd" clip-rule="evenodd" d="M163 78.8019C174.353 79.7991 190.912 119.807 183.93 130.855C176.942 141.903 132.867 143.044 121.093 145.089C112.148 152.908 108.493 143.181 109.775 143.169C115.471 143.111 115.319 138.54 115.319 138.54C115.319 138.54 115.413 138.062 113.803 136.117C115.579 134.866 119.548 138.477 119.548 138.477C119.548 138.477 162.056 122.113 165.913 119.308C167.831 117.914 155.857 104.989 155.367 91.3956C155.201 86.7361 156.507 78.232 163.001 78.8025L163 78.8019Z" fill="url(#paint9_linear_198_365)"/>
<mask id="mask3_198_365" style="mask-type:luminance" maskUnits="userSpaceOnUse" x="109" y="78" width="77" height="71">
<path d="M163 78.8019C174.353 79.7991 190.912 119.807 183.93 130.855C176.942 141.903 132.867 143.044 121.093 145.089C112.148 152.908 108.493 143.181 109.775 143.169C115.471 143.111 115.319 138.54 115.319 138.54C115.319 138.54 115.413 138.062 113.803 136.117C115.579 134.866 119.548 138.477 119.548 138.477C119.548 138.477 162.056 122.113 165.913 119.308C167.831 117.914 155.857 104.989 155.367 91.3956C155.201 86.7361 156.507 78.232 163.001 78.8025L163 78.8019Z" fill="white"/>
</mask>
<g mask="url(#mask3_198_365)">
<path fill-rule="evenodd" clip-rule="evenodd" d="M155.743 106.977C156.903 103.816 160.314 99.3862 163.925 99.1879C165.995 99.074 167.678 100.388 169.626 100.851C173.966 101.886 179.52 100.317 181.62 96.0646C184.193 90.8626 178.263 85.5193 174.906 82.4565C170.384 78.3395 164.38 73.4372 157.867 75.5687C156.703 75.9492 155.631 76.5291 154.638 77.2372C153.317 78.1769 152.166 79.3195 151.183 80.6039C149.955 82.2072 148.956 84.0294 148.325 85.9514C147.292 89.1145 147.312 92.5857 147.978 95.823C148.848 100.024 150.708 103.747 153.165 107.233L155.744 106.976L155.743 106.977Z" fill="url(#paint10_linear_198_365)"/>
</g>
<path d="M91 151.177V154.256H94.0043V152.141C94.0043 152.015 94.0583 151.899 94.1418 151.816C94.2252 151.734 94.343 151.681 94.4707 151.681C94.7308 151.681 94.937 151.889 94.937 152.141V154.256H102.119V149.662C102.433 149.522 106.994 147.436 108.879 141.768C109.07 141.187 109.041 140.548 108.751 140.011C108.491 139.531 108.02 139.125 107.19 139.362C106.655 139.517 106.213 139.88 105.933 140.354C105.089 141.792 102.364 145.838 98.0591 146.55C93.8963 147.242 92.4972 147.523 91.6185 148.927C91.2651 149.488 91.0687 150.132 91.0098 150.79C91.0049 150.926 91 151.052 91 151.177Z" fill="white"/>
<path d="M96.9595 145.364C99.302 145.364 101.201 143.492 101.201 141.182C101.201 138.872 99.302 137 96.9595 137C94.6171 137 92.7181 138.872 92.7181 141.182C92.7181 143.492 94.6171 145.364 96.9595 145.364Z" fill="white"/>
<defs>
<linearGradient id="paint0_linear_198_365" x1="3.50052" y1="52.0015" x2="48.6156" y2="129.062" gradientUnits="userSpaceOnUse">
<stop stop-color="#DBE0F9"/>
<stop offset="0.61" stop-color="#C1CEFA"/>
<stop offset="0.82" stop-color="#8598FB"/>
<stop offset="1" stop-color="#466EFD"/>
</linearGradient>
<linearGradient id="paint1_linear_198_365" x1="52.6011" y1="75.2968" x2="43.2371" y2="92.1925" gradientUnits="userSpaceOnUse">
<stop stop-color="#AAC7FF"/>
<stop offset="1" stop-color="#0024E3"/>
</linearGradient>
<linearGradient id="paint2_linear_198_365" x1="57.6501" y1="61.8386" x2="47.7572" y2="81.3509" gradientUnits="userSpaceOnUse">
<stop stop-color="#AAC7FF"/>
<stop offset="1" stop-color="#0040E3"/>
</linearGradient>
<linearGradient id="paint3_linear_198_365" x1="140.606" y1="53.6774" x2="153.454" y2="73.1278" gradientUnits="userSpaceOnUse">
<stop stop-color="#FB9C9A"/>
<stop offset="0.64" stop-color="#FC8886"/>
<stop offset="0.84" stop-color="#FD5450"/>
<stop offset="1" stop-color="#FF1712"/>
</linearGradient>
<linearGradient id="paint4_linear_198_365" x1="105.705" y1="99.1463" x2="157.338" y2="99.1463" gradientUnits="userSpaceOnUse">
<stop stop-color="#FB9C9A"/>
<stop offset="0.63" stop-color="#FC8784"/>
<stop offset="0.83" stop-color="#FD524E"/>
<stop offset="1" stop-color="#FF1712"/>
</linearGradient>
<linearGradient id="paint5_linear_198_365" x1="129.694" y1="82.477" x2="142.203" y2="105.282" gradientUnits="userSpaceOnUse">
<stop stop-color="#20658C"/>
<stop offset="0.54" stop-color="#1A487F"/>
<stop offset="1" stop-color="#051651"/>
</linearGradient>
<linearGradient id="paint6_linear_198_365" x1="132.813" y1="85.9694" x2="162.738" y2="128.695" gradientUnits="userSpaceOnUse">
<stop stop-color="#20458C"/>
<stop offset="0.51" stop-color="#193B7E"/>
<stop offset="1" stop-color="#052851"/>
</linearGradient>
<linearGradient id="paint7_linear_198_365" x1="146.608" y1="70.0576" x2="158.332" y2="47.8356" gradientUnits="userSpaceOnUse">
<stop/>
<stop offset="1" stop-color="#4D4D4D"/>
</linearGradient>
<linearGradient id="paint8_linear_198_365" x1="106.474" y1="129.702" x2="89.3712" y2="170.401" gradientUnits="userSpaceOnUse">
<stop stop-color="#AAE0FF"/>
<stop offset="0.6" stop-color="#92C4FF"/>
<stop offset="0.81" stop-color="#5B62FF"/>
<stop offset="1" stop-color="#2253FF"/>
</linearGradient>
<linearGradient id="paint9_linear_198_365" x1="162.898" y1="113.452" x2="204.011" y2="113.452" gradientUnits="userSpaceOnUse">
<stop stop-color="#FB9C9A"/>
<stop offset="0.47" stop-color="#FC7875"/>
<stop offset="1" stop-color="#FF1712"/>
</linearGradient>
<linearGradient id="paint10_linear_198_365" x1="168.817" y1="78.7421" x2="158.867" y2="110.924" gradientUnits="userSpaceOnUse">
<stop stop-color="#20588C"/>
<stop offset="0.49" stop-color="#194D7D"/>
<stop offset="1" stop-color="#054351"/>
</linearGradient>
</defs>
</svg>
