<svg width="142" height="144" viewBox="0 0 142 144" fill="none" xmlns="http://www.w3.org/2000/svg">
<path d="M78.6533 27.0134C57.7488 31.4282 60.8624 55.8334 24.873 69.529C-13.7011 84.2076 9.66199 139.586 53.55 142.739C97.232 145.876 117.377 126.19 121.861 88.7764C125.233 60.644 109.718 20.4536 78.6533 27.0134Z" fill="#ECF2FA"/>
<path d="M29.5195 64.5113C38.8945 61.2914 53.1057 46.2431 47.9667 29.3879C42.8277 12.5333 1.84126 74.0168 29.5195 64.5113Z" fill="#ECF2FA"/>
<path d="M111.046 143.046H69.5902C68.3576 143.046 67.4978 142.046 67.6715 140.814L71.6509 110.516C71.824 109.283 72.9646 108.284 74.1973 108.284H115.653C116.886 108.284 117.746 109.283 117.572 110.516L113.593 140.814C113.42 142.046 112.279 143.046 111.046 143.046Z" fill="#425FEC"/>
<path d="M109.674 140.94H68.2181C66.9849 140.94 66.1258 139.941 66.2994 138.709L70.2789 110.516C70.4525 109.283 71.5926 108.284 72.8258 108.284H114.281C115.514 108.284 116.374 109.283 116.201 110.516L112.152 139.031C111.979 140.263 110.908 140.94 109.674 140.94H109.674Z" fill="#425FEC"/>
<path d="M108.221 139.744H70.007C68.8706 139.744 68.0785 138.823 68.2381 137.687L71.93 111.538C72.0896 110.402 73.1407 109.481 74.2771 109.481H112.491C113.628 109.481 114.42 110.402 114.26 111.538L110.568 137.687C110.408 138.823 109.357 139.744 108.221 139.744Z" fill="#CFE0FA"/>
<path d="M91.1783 119.64L90.6786 117.362C90.5726 116.879 90.1528 116.545 89.6495 116.545H76.1829C75.5584 116.545 75.0167 117.052 74.9728 117.676L74.7785 120.455L74.6688 122.022L73.338 141.045C73.2942 141.669 73.7658 142.175 74.3903 142.175H105.721C106.345 142.175 106.888 141.669 106.931 141.045L108.292 121.586C108.336 120.961 107.865 120.455 107.24 120.455H92.2074C91.7041 120.455 91.2843 120.123 91.1783 119.639V119.64Z" fill="#425FEC"/>
<path d="M102.033 107.614L76.6277 107.645L76.6654 138.508L102.071 138.477L102.033 107.614Z" fill="white"/>
<path d="M90.823 113.618L80.3903 113.63L80.3912 114.42L90.824 114.407L90.823 113.618Z" fill="#425FEC"/>
<path d="M85.6096 115.869L80.3932 115.876L80.3942 116.665L85.6105 116.659L85.6096 115.869Z" fill="#425FEC"/>
<path d="M92.3095 115.868L87.0931 115.874L87.0941 116.664L92.3105 116.658L92.3095 115.868Z" fill="#425FEC"/>
<path d="M99.102 115.853L93.8856 115.859L93.8866 116.649L99.103 116.642L99.102 115.853Z" fill="#425FEC"/>
<path d="M99.0986 113.609L91.8337 113.618L91.8347 114.407L99.0996 114.398L99.0986 113.609Z" fill="#425FEC"/>
<path d="M99.1049 118.023L88.6721 118.036L88.6731 118.825L99.1058 118.813L99.1049 118.023Z" fill="#425FEC"/>
<path d="M87.6599 118.038L80.395 118.047L80.396 118.836L87.6609 118.827L87.6599 118.038Z" fill="#425FEC"/>
<path d="M90.8262 120.191L80.3934 120.203L80.3944 120.993L90.8271 120.98L90.8262 120.191Z" fill="#425FEC"/>
<path d="M85.6175 122.438L80.4011 122.444L80.4021 123.234L85.6185 123.227L85.6175 122.438Z" fill="#425FEC"/>
<path d="M92.3271 122.43L87.1107 122.436L87.1117 123.226L92.3281 123.219L92.3271 122.43Z" fill="#425FEC"/>
<path d="M99.1014 123.219L93.885 123.226L93.8838 122.436L99.1002 122.43L99.1014 123.219Z" fill="#425FEC"/>
<path d="M99.0982 120.974L91.8339 120.983L91.8333 120.193L99.0975 120.185L99.0982 120.974Z" fill="#425FEC"/>
<path d="M99.1128 124.593L88.6801 124.606L88.681 125.395L99.1138 125.382L99.1128 124.593Z" fill="#425FEC"/>
<path d="M87.6681 124.607L80.4032 124.616L80.4042 125.405L87.6691 125.396L87.6681 124.607Z" fill="#425FEC"/>
<path d="M84.9249 120.406L83.8641 118.128C83.6386 117.645 83.1372 117.312 82.6333 117.312H69.1667C68.5422 117.312 68.1248 117.818 68.2351 118.442L68.7256 121.221L69.0022 122.788L72.3577 141.811C72.468 142.435 73.0639 142.941 73.6885 142.941H105.019C105.644 142.941 106.061 142.435 105.951 141.811L102.518 122.352C102.408 121.728 101.812 121.221 101.187 121.221H86.1545C85.6512 121.221 85.1491 120.888 84.9237 120.405L84.9249 120.406Z" fill="#7B7EBE"/>
<path d="M58.307 138.792H53.6097V139.587H58.307V138.792Z" fill="#425FEC"/>
<path d="M63.8348 138.792H59.1376V139.587H63.8348V138.792Z" fill="#425FEC"/>
<path d="M69.3624 138.792H64.6652V139.587H69.3624V138.792Z" fill="#425FEC"/>
<path d="M85.7634 138.792H70.1923V139.587H85.7634V138.792Z" fill="#425FEC"/>
<path d="M91.4727 138.792H86.7755V139.587H91.4727V138.792Z" fill="#425FEC"/>
<path d="M97.0006 138.792H92.3027V139.587H97.0006V138.792Z" fill="#425FEC"/>
<path d="M102.528 138.792H97.8304V139.587H102.528V138.792Z" fill="#425FEC"/>
<path d="M108.056 138.792H103.358V139.587H108.056V138.792Z" fill="#425FEC"/>
<path d="M109.632 143.046H53.3085C51.7749 143.046 50.5319 142.843 50.5319 141.31V139.587H112.408V141.31C112.408 142.842 111.165 143.046 109.632 143.046Z" fill="#425FEC"/>
<path d="M110.258 141.31H50.5923V139.548H112.02C112.02 140.521 111.231 141.31 110.258 141.31Z" fill="#425FEC"/>
<path d="M112.062 139.721L112.208 139.07L113.038 139.35L112.607 141.867L111.879 142.81L111.232 142.969C111.232 142.969 111.141 142.988 111.045 142.989C110.949 142.991 109.005 142.989 109.005 142.989C109.005 142.989 110.286 141.583 110.396 141.583C110.506 141.583 111.505 141.519 111.505 141.519L111.811 140.622L112.021 140.352L112.063 139.721H112.062Z" fill="#425FEC"/>
<path d="M131.32 49.8369V96.3154C131.32 98.7533 129.343 100.725 126.908 100.725H64.3807C61.9459 100.725 59.9686 98.7533 59.9686 96.3154V49.8369C59.9686 47.8612 61.5724 46.2534 63.5539 46.2534H127.735C129.715 46.2534 131.32 47.8612 131.32 49.8369H131.32Z" fill="white"/>
<path d="M126.908 101.075H64.3806C61.755 101.075 59.6194 98.9403 59.6194 96.3161V49.8376C59.6194 47.6689 61.3846 45.9045 63.5544 45.9045H127.735C129.905 45.9045 131.67 47.6689 131.67 49.8376V96.3161C131.67 98.9403 129.534 101.075 126.908 101.075ZM63.5544 46.6031C61.7703 46.6031 60.3189 48.0538 60.3189 49.8376V96.3161C60.3189 98.5548 62.1414 100.376 64.3806 100.376H126.908C129.149 100.376 130.971 98.5548 130.971 96.3161V49.8376C130.971 48.0544 129.519 46.6031 127.735 46.6031H63.5544Z" fill="#CFE0FA"/>
<path d="M123.503 48.2456C123.196 48.2456 122.948 48.4941 122.948 48.8004C122.948 49.1068 123.196 49.3546 123.503 49.3546C123.809 49.3546 124.058 49.1061 124.058 48.8004C124.058 48.4947 123.809 48.2456 123.503 48.2456Z" fill="#2B173F"/>
<path d="M125.845 48.2456C125.539 48.2456 125.29 48.4941 125.29 48.8004C125.29 49.1068 125.539 49.3546 125.845 49.3546C126.151 49.3546 126.399 49.1061 126.399 48.8004C126.399 48.4947 126.151 48.2456 125.845 48.2456Z" fill="#425FEC"/>
<path d="M128.187 48.2456C127.88 48.2456 127.632 48.4941 127.632 48.8004C127.632 49.1068 127.88 49.3546 128.187 49.3546C128.493 49.3546 128.742 49.1061 128.742 48.8004C128.742 48.4947 128.493 48.2456 128.187 48.2456Z" fill="#FC721A"/>
<path d="M131.112 52.0757H77.2207V52.7742H131.112V52.0757Z" fill="#CFE0FA"/>
<g opacity="0.3">
<path d="M101.411 74.0868C100.63 73.0539 100.522 71.7342 99.2953 71.029C98.2753 70.4449 97.7592 69.8121 97.2284 69.2415C98.3563 68.4108 99.9332 66.8614 100.638 65.4607C101.227 64.3017 101.092 63.4217 100.571 63.8127C99.38 64.6976 95.5705 66.8353 94.3707 68.1373C94.3616 68.1465 94.3525 68.1599 94.3482 68.1733C93.3459 68.923 91.4637 73.0052 91.3558 73.9169C91.1938 75.2775 93.8449 76.1532 93.0589 79.4359C93.0229 79.4718 88.6419 89.3513 87.101 92.3196C86.5124 93.2941 85.9146 94.2734 85.3486 95.2387C84.5894 94.8258 83.8033 94.3946 83.0216 93.9725C82.7559 93.1778 77.0411 98.0785 76.6189 97.2838C76.6189 97.2838 67.0715 90.9396 59.9686 88.2094V96.3173C59.9686 98.7552 61.9453 100.727 64.3807 100.727H97.2327C97.8932 92.4951 98.1223 81.7623 98.1223 81.7623C97.686 78.7806 99.4165 78.7763 100.485 77.6807C101.555 76.5893 102.193 75.121 101.411 74.0881L101.411 74.0868Z" fill="#091022"/>
</g>
<g opacity="0.3">
<path d="M71.7666 65.5356H117.812C119.725 65.5356 121.279 67.088 121.279 69.0004V86.3202C121.279 88.2326 119.725 89.785 117.812 89.785H71.7666C69.8533 89.785 68.3002 88.2326 68.3002 86.3202V69.0004C68.3002 67.088 69.8533 65.5356 71.7666 65.5356Z" fill="#091022"/>
</g>
<path fill-rule="evenodd" clip-rule="evenodd" d="M40.9461 18.7227L36.8223 12.9236L43.9086 12.2537L40.9461 18.7227Z" fill="#425FEC"/>
<path d="M40.5204 17.4298L36.2521 11.4279L43.5864 10.7343L40.5204 17.4298ZM36.5135 11.5473L40.4929 17.1436L43.3519 10.9005L36.5135 11.5473Z" fill="#425FEC"/>
<path d="M15.6638 58.7809L15.6881 58.7998L17.2407 56.7955L14.7784 56.4587L14.7516 56.586C14.6505 57.3966 14.9697 58.2407 15.6644 58.7809H15.6638Z" fill="#425FEC"/>
<path d="M16.5178 30.7582C16.4599 31.0518 16.1742 31.243 15.8805 31.1845C15.5868 31.1261 15.3961 30.841 15.454 30.5475C15.5118 30.254 15.797 30.0633 16.0913 30.1212C16.385 30.179 16.5763 30.4647 16.5178 30.7582Z" fill="#FC721A"/>
<path d="M120.343 3.50094C120.285 3.79449 119.999 3.98511 119.706 3.92726C119.412 3.8694 119.221 3.58438 119.279 3.29022C119.337 2.99668 119.622 2.80544 119.917 2.86391C120.21 2.92177 120.402 3.20679 120.343 3.50094H120.343Z" fill="#FC721A"/>
<path d="M44.4405 37.399C44.3826 37.6925 44.0974 37.8831 43.8031 37.8253C43.5094 37.7668 43.3181 37.4818 43.3766 37.1882C43.4351 36.8947 43.7203 36.7041 44.014 36.7619C44.3076 36.8198 44.499 37.1054 44.4405 37.399Z" fill="#425FEC"/>
<path d="M68.0774 6.46622C67.9611 7.05331 67.3907 7.43517 66.8034 7.31885C66.216 7.20252 65.8339 6.63248 65.9503 6.04539C66.0667 5.45768 66.637 5.07644 67.2244 5.19276C67.8118 5.30908 68.1938 5.87913 68.0774 6.46622Z" fill="#7109B5"/>
<path d="M141.979 11.1721C141.862 11.7592 141.291 12.1411 140.705 12.0248C140.117 11.9084 139.735 11.3384 139.851 10.7513C139.968 10.1642 140.539 9.78235 141.126 9.89867C141.714 10.015 142.096 10.585 141.979 11.1727L141.979 11.1721Z" fill="#FC721A"/>
<path d="M85.1695 62.2754H84.2708V58.3844C84.2708 56.1036 86.1273 54.2486 88.4092 54.2486C90.1952 54.2486 91.6484 52.7961 91.6484 51.011V36.5267H92.5471V51.011C92.5471 53.2918 90.6905 55.1469 88.4092 55.1469C86.6227 55.1469 85.1695 56.5994 85.1695 58.385V62.2761V62.2754Z" fill="#425FEC"/>
<path d="M94.5401 62.2754H93.6414V58.3844C93.6414 56.1036 95.498 54.2486 97.7792 54.2486C99.5658 54.2486 101.019 52.7961 101.019 51.011V36.5267H101.918V51.011C101.918 53.2918 100.061 55.1469 97.7792 55.1469C95.9933 55.1469 94.5401 56.5994 94.5401 58.385V62.2761V62.2754Z" fill="#425FEC"/>
<path d="M84.4588 59.6225L85.109 59.6335C85.4636 59.639 85.7634 59.8972 85.8213 60.2468L86.3703 63.5666L83.0708 63.513L83.7276 60.2127C83.7965 59.8649 84.1042 59.6165 84.4588 59.6225Z" fill="#425FEC"/>
<path d="M93.8296 59.6225L94.4797 59.6335C94.8337 59.639 95.1341 59.8972 95.192 60.2468L95.741 63.5666L92.4415 63.513L93.0978 60.2127C93.1672 59.8649 93.4749 59.6165 93.8296 59.6225Z" fill="#425FEC"/>
<path d="M101.739 43.6236L101.089 43.6132C100.734 43.6077 100.435 43.3489 100.377 42.9993L99.827 39.6802L103.127 39.7338L102.47 43.034C102.401 43.3818 102.093 43.6303 101.739 43.6242V43.6236Z" fill="#425FEC"/>
<path d="M92.3685 43.6236L91.7183 43.6132C91.3637 43.6077 91.0639 43.3489 91.006 42.9993L90.457 39.6802L93.7565 39.7338L93.0996 43.034C93.0308 43.3818 92.7231 43.6303 92.3685 43.6242V43.6236Z" fill="#425FEC"/>
<path d="M67.9736 61.4156H114.019C115.932 61.4156 117.486 62.968 117.486 64.8804V82.2002C117.486 84.1126 115.932 85.665 114.019 85.665H67.9736C66.0604 85.665 64.5072 84.1126 64.5072 82.2002V64.8804C64.5072 62.968 66.0604 61.4156 67.9736 61.4156Z" fill="#425FEC"/>
<path d="M115.52 64.881V82.2015C115.52 84.1144 113.969 85.6637 112.055 85.6637H66.0076C64.0937 85.6637 62.5436 84.1144 62.5436 82.2015V64.881C62.5436 62.968 64.0937 61.4144 66.0076 61.4144H112.055C113.969 61.4144 115.52 62.968 115.52 64.881Z" fill="#425FEC"/>
<path d="M105.389 82.0279H72.6733C70.9648 82.0279 69.5743 80.6382 69.5743 78.9299C69.5743 77.2216 70.9648 75.8324 72.6733 75.8324H105.389C107.098 75.8324 108.488 77.2216 108.488 78.9299C108.488 80.6382 107.098 82.0279 105.389 82.0279ZM72.6733 76.5346C71.3517 76.5346 70.2769 77.6089 70.2769 78.9299C70.2769 80.2508 71.3517 81.3257 72.6733 81.3257H105.389C106.711 81.3257 107.786 80.2508 107.786 78.9299C107.786 77.6089 106.711 76.5346 105.389 76.5346H72.6733Z" fill="white"/>
<path d="M105.389 71.2489H72.6733C70.9648 71.2489 69.5743 69.8591 69.5743 68.1514C69.5743 66.4437 70.9648 65.054 72.6733 65.054H105.389C107.098 65.054 108.488 66.4437 108.488 68.1514C108.488 69.8591 107.098 71.2489 105.389 71.2489ZM72.6733 65.7555C71.3517 65.7555 70.2769 66.8305 70.2769 68.1514C70.2769 69.4724 71.3517 70.5467 72.6733 70.5467H105.389C106.711 70.5467 107.786 69.4718 107.786 68.1514C107.786 66.8311 106.711 65.7555 105.389 65.7555H72.6733Z" fill="white"/>
<path d="M76.7917 80.0565L76.2738 79.6552C76.4383 79.47 76.6101 79.2934 76.7881 79.1241C76.8587 79.0553 76.9038 79.0121 76.9221 78.9938C76.8648 78.9853 76.7015 78.9475 76.4316 78.8805C76.2372 78.8324 76.1093 78.7971 76.0477 78.7739L76.25 78.1704C76.5498 78.2916 76.8167 78.4256 77.0525 78.5717C76.9977 78.199 76.9702 77.8951 76.9702 77.66H77.5808C77.5808 77.8269 77.5497 78.1332 77.4882 78.5784C77.5339 78.5602 77.6326 78.5157 77.7831 78.4451C77.9884 78.3513 78.1785 78.2715 78.3522 78.2051L78.5344 78.8257C78.2803 78.8829 77.9866 78.939 77.6527 78.9932L78.064 79.456C78.1462 79.5498 78.2114 79.6259 78.2589 79.6856L77.7343 80.0316L77.2712 79.2672C77.1317 79.5145 76.9715 79.777 76.7911 80.0559L76.7917 80.0565Z" fill="white"/>
<path d="M81.4768 80.0565L80.9588 79.6552C81.1234 79.47 81.2952 79.2934 81.4731 79.1241C81.5444 79.0553 81.5883 79.0121 81.6072 78.9938C81.5499 78.9853 81.386 78.9475 81.1167 78.8805C80.9223 78.8324 80.7943 78.7971 80.7328 78.7739L80.9345 78.1704C81.2343 78.2916 81.5017 78.4256 81.7376 78.5717C81.6827 78.199 81.6553 77.8951 81.6553 77.66H82.2658C82.2658 77.8269 82.2348 78.1332 82.1732 78.5784C82.2189 78.5602 82.3176 78.5157 82.4681 78.4451C82.6735 78.3513 82.8636 78.2715 83.0372 78.2051L83.2194 78.8257C82.9653 78.8829 82.6716 78.939 82.3377 78.9932L82.749 79.456C82.8319 79.5498 82.8965 79.6259 82.9446 79.6856L82.42 80.0316L81.9569 79.2672C81.8174 79.5145 81.6571 79.777 81.4768 80.0559V80.0565Z" fill="white"/>
<path d="M86.1626 80.0565L85.6446 79.6552C85.8091 79.47 85.9804 79.2934 86.1589 79.1241C86.2302 79.0553 86.2741 79.0121 86.2929 78.9938C86.2357 78.9853 86.0718 78.9475 85.8025 78.8805C85.6081 78.8324 85.4795 78.7971 85.418 78.7739L85.6203 78.1704C85.9194 78.2916 86.1875 78.4256 86.4233 78.5717C86.3685 78.199 86.3411 77.8951 86.3411 77.66H86.9516C86.9516 77.8269 86.9205 78.1332 86.859 78.5784C86.9047 78.5602 87.0028 78.5157 87.1539 78.4451C87.3593 78.3513 87.5494 78.2715 87.723 78.2051L87.9046 78.8257C87.6505 78.8829 87.3568 78.939 87.0229 78.9932L87.4342 79.456C87.5165 79.5498 87.5817 79.6259 87.6298 79.6856L87.1052 80.0316L86.6421 79.2672C86.5026 79.5145 86.3429 79.777 86.1619 80.0559L86.1626 80.0565Z" fill="white"/>
<path d="M90.8474 80.0565L90.3294 79.6552C90.494 79.47 90.6652 79.2934 90.8437 79.1241C90.9144 79.0553 90.9589 79.0121 90.9772 78.9938C90.9199 78.9853 90.7566 78.9475 90.4867 78.8805C90.2923 78.8324 90.1637 78.7971 90.1022 78.7739L90.3045 78.1704C90.6042 78.2916 90.8711 78.4256 91.1075 78.5717C91.0527 78.199 91.0253 77.8951 91.0253 77.66H91.6364C91.6364 77.8269 91.6054 78.1332 91.5438 78.5784C91.5895 78.5602 91.6876 78.5157 91.8387 78.4451C92.0447 78.3513 92.2348 78.2715 92.4084 78.2051L92.59 78.8257C92.3359 78.8829 92.0422 78.939 91.7083 78.9932L92.1196 79.456C92.2019 79.5498 92.2671 79.6259 92.3152 79.6856L91.7906 80.0316L91.3275 79.2672C91.188 79.5145 91.0277 79.777 90.8474 80.0559V80.0565Z" fill="white"/>
<path d="M95.5332 80.0565L95.0152 79.6552C95.1804 79.47 95.3516 79.2934 95.5295 79.1241C95.6008 79.0553 95.6453 79.0121 95.6636 78.9938C95.6063 78.9853 95.443 78.9475 95.1731 78.8805C94.9787 78.8324 94.8501 78.7971 94.7886 78.7739L94.9909 78.1704C95.29 78.2916 95.5575 78.4256 95.7933 78.5717C95.7385 78.199 95.7111 77.8951 95.7111 77.66H96.3216C96.3216 77.8269 96.2905 78.1332 96.229 78.5784C96.2747 78.5602 96.3728 78.5157 96.5239 78.4451C96.7299 78.3513 96.9194 78.2715 97.093 78.2051L97.2752 78.8257C97.0211 78.8829 96.7274 78.939 96.3935 78.9932L96.8048 79.456C96.8871 79.5498 96.9523 79.6259 97.0004 79.6856L96.4758 80.0316L96.0127 79.2672C95.8732 79.5145 95.7129 79.777 95.5325 80.0559L95.5332 80.0565Z" fill="white"/>
<path d="M100.219 80.0565L99.7009 79.6552C99.866 79.47 100.037 79.2934 100.215 79.1241C100.286 79.0553 100.33 79.0121 100.349 78.9938C100.292 78.9853 100.129 78.9475 99.8587 78.8805C99.6644 78.8324 99.5364 78.7971 99.4749 78.7739L99.6772 78.1704C99.9769 78.2916 100.244 78.4256 100.48 78.5717C100.425 78.199 100.397 77.8951 100.397 77.66H101.008C101.008 77.8269 100.977 78.1332 100.915 78.5784C100.961 78.5602 101.059 78.5157 101.21 78.4451C101.416 78.3513 101.606 78.2715 101.779 78.2051L101.961 78.8257C101.707 78.8829 101.414 78.939 101.08 78.9932L101.491 79.456C101.573 79.5498 101.638 79.6259 101.686 79.6856L101.161 80.0316L100.698 79.2672C100.559 79.5145 100.399 79.777 100.218 80.0559L100.219 80.0565Z" fill="white"/>
<path d="M102.933 67.3481H74.9705V68.9279H102.933V67.3481Z" fill="white"/>
<g opacity="0.3">
<path d="M98.0417 74.0868C97.26 73.0539 97.1521 71.7342 95.9256 71.029C94.9056 70.4449 94.3889 69.8121 93.8588 69.2415C94.986 68.4108 96.5635 66.8614 97.2685 65.4607C97.8571 64.3017 97.7224 63.4217 97.2009 63.8127C96.0103 64.6976 92.2002 66.8353 91.0004 68.1373C90.9919 68.1465 90.9828 68.1599 90.9779 68.1733C89.9756 68.923 88.0934 73.0052 87.9855 73.9169C87.8235 75.2775 90.4746 76.1532 89.688 79.4358C89.6703 79.4541 88.3268 82.4669 86.8711 85.6643H94.6442C94.7203 83.3025 94.7514 81.7617 94.7514 81.7617C94.3158 78.7799 96.0456 78.7757 97.115 77.6801C98.1843 76.5887 98.8223 75.1203 98.0405 74.0874L98.0417 74.0868Z" fill="#091022"/>
</g>
<path d="M130.589 20.7983C129.594 20.763 128.63 20.8769 127.71 21.1034C127.797 20.5985 127.864 20.0857 127.883 19.5589C128.105 13.3147 123.221 8.07285 116.973 7.85056C114.086 7.74763 111.421 8.7446 109.358 10.4535C107.014 4.53323 101.341 0.251827 94.5681 0.010655C85.4411 -0.313952 77.7796 6.81827 77.4554 15.9402C77.4353 16.5084 77.4438 17.0711 77.4798 17.6265C75.9053 16.7495 74.1096 16.213 72.1848 16.1448C65.6913 15.914 60.2403 20.9877 60.0094 27.478C59.7785 33.9677 64.8553 39.416 71.3482 39.6468L130.876 41.7632L130.878 41.7108C136.194 41.3807 140.492 37.0652 140.686 31.634C140.892 25.8544 136.371 21.0029 130.588 20.7971L130.589 20.7983Z" fill="#425FEC"/>
<path d="M136.859 31.0139C136.859 36.4488 132.716 40.9147 127.415 41.433V41.4854H67.8494C61.3529 41.4854 56.0853 36.2216 56.0853 29.727C56.0853 23.2325 61.3529 17.9687 67.8494 17.9687C67.9195 17.9687 67.9884 17.9687 68.0572 17.9718H68.0584C69.9083 18.004 71.6461 18.4705 73.1944 19.2617C73.1383 18.7081 73.1085 18.1459 73.1085 17.5765C73.1085 17.113 73.1286 16.6532 73.1664 16.1995C73.8646 7.71527 80.9754 1.04895 89.6448 1.04895C89.9945 1.04895 90.3406 1.06052 90.6837 1.08245H90.6849C97.0139 1.47465 102.376 5.42719 104.799 10.9577C106.455 9.48386 108.543 8.48203 110.852 8.18239C111.332 8.11905 111.82 8.08677 112.316 8.08677C113.374 8.08677 114.398 8.23111 115.369 8.50395H115.371C120.138 9.83587 123.634 14.2086 123.634 19.3999C123.634 19.9267 123.585 20.4413 123.517 20.9499C124.429 20.6898 125.388 20.5424 126.383 20.5424C132.168 20.5424 136.859 25.2313 136.859 31.0139Z" fill="#CFE0FA"/>
<path d="M88.2068 32.5512C88.7899 33.581 89.5442 34.4848 90.4216 35.2351L89.4376 37.5452L92.9387 39.4063L94.3048 37.2991C95.4174 37.6073 96.5843 37.7279 97.7694 37.6335L98.7084 39.9624L102.504 38.8034L101.98 36.3478C103.011 35.7644 103.915 35.011 104.666 34.134L106.977 35.1176L108.838 31.6188L106.731 30.2534C107.038 29.1407 107.157 27.9702 107.066 26.7905L109.395 25.8514L108.235 22.0578L105.778 22.5822C105.193 21.5474 104.441 20.6479 103.563 19.8976L104.547 17.5876L101.046 15.7271L99.6808 17.8336C98.567 17.5255 97.3965 17.4067 96.2156 17.4987L95.2761 15.1698L91.4806 16.3294L92.004 18.7849C90.9694 19.3696 90.0694 20.1211 89.3188 20.9987L87.0076 20.0152L85.1462 23.5146L87.255 24.8794C86.9467 25.9921 86.8254 27.1589 86.9193 28.3429L84.5892 29.2814L85.7494 33.075L88.2068 32.5512ZM90.1426 29.6584C88.9861 25.8776 91.1156 21.8757 94.8983 20.7204C98.6809 19.5645 102.685 21.693 103.841 25.4732C104.997 29.2546 102.869 33.2571 99.0855 34.4124C95.3029 35.5683 91.299 33.4398 90.1426 29.659V29.6584Z" fill="#425FEC"/>
<path d="M107.843 26.5706L109.502 25.9019L108.627 23.0414L108.459 23.0925L109.287 25.7996L107.777 26.408L107.843 26.5706Z" fill="#CBCBCB"/>
<path d="M102.418 38.8216L102.59 38.7851L102.08 36.3959C103.262 35.7954 104.17 34.796 104.179 34.7856L104.049 34.6681C104.04 34.6784 103.122 35.6876 101.941 36.2692L101.88 36.299L102.418 38.8216Z" fill="#CBCBCB"/>
<path d="M92.9576 33.5864L93.0581 33.4433C88.448 30.2076 90.2961 25.2782 90.3156 25.2289L90.1523 25.1649C90.1322 25.2161 88.2354 30.2728 92.9576 33.5864Z" fill="#CBCBCB"/>
<path d="M86.9813 26.7983C87.1111 25.7642 87.3372 24.9104 87.3396 24.9018L87.3561 24.8403L86.5816 24.3391L86.4866 24.4865L87.1544 24.9189C87.1002 25.1351 86.9186 25.8909 86.8071 26.7764L86.9813 26.7983Z" fill="#CBCBCB"/>
<path d="M96.6787 37.4465C94.9507 37.6554 93.6133 37.2327 93.3037 37.1225L91.9309 39.2394L88.2878 37.3027L89.2773 34.9787C87.988 33.9288 87.2733 32.6565 87.1204 32.3654L84.6483 32.8922L83.4419 28.9446L85.7859 28.0006C85.6178 26.3075 86.012 24.9378 86.1113 24.6278L83.9909 23.2557L85.9285 19.6138L88.2519 20.6028C89.1573 19.436 90.566 18.6168 90.8683 18.4487L90.3406 15.9773L94.2902 14.7709L95.2353 17.1144C97.0486 16.9426 98.3105 17.3312 98.6109 17.4365L99.9831 15.3202L103.626 17.2563L102.638 19.576C103.684 20.33 104.607 21.8751 104.791 22.1942L107.264 21.6662L108.471 25.6138L106.126 26.559C106.258 28.218 105.89 29.6188 105.801 29.93L107.922 31.3039L105.985 34.9452L103.661 33.9562C102.72 35.1365 101.343 35.944 101.046 36.1103L101.573 38.5817L97.6226 39.7882L96.6781 37.4465H96.6787ZM100.849 36.0195L100.907 35.9891C100.923 35.9806 102.536 35.12 103.565 33.7972L103.607 33.7442L105.907 34.7229L107.695 31.363L105.597 30.0037L105.617 29.9403C105.622 29.9251 106.11 28.3764 105.948 26.5097L105.943 26.4458L108.259 25.5121L107.145 21.869L104.702 22.3903L104.671 22.3343C104.661 22.3154 103.618 20.4603 102.481 19.6777L102.423 19.6375L103.404 17.3348L100.042 15.548L98.6803 17.6491L98.6145 17.6229C98.6005 17.6174 97.2259 17.087 95.1883 17.2934L95.1231 17.3001L94.1891 14.984L90.5441 16.0973L91.0651 18.5407L91.0066 18.5712C90.9901 18.5797 89.3346 19.4554 88.3487 20.7618L88.3079 20.816L86.0065 19.8367L84.2188 23.1973L86.3197 24.5566L86.2966 24.6211C86.2917 24.6358 85.7597 26.1364 85.9657 28.0475L85.973 28.1127L83.6546 29.0469L84.7684 32.69L87.2154 32.1687L87.2453 32.2302C87.2526 32.2448 87.9771 33.7168 89.437 34.8856L89.4888 34.9264L88.5096 37.2248L91.8718 39.0123L93.2343 36.9105L93.3007 36.9379C93.3147 36.9434 94.7673 37.5208 96.7226 37.2674L96.789 37.2589L97.7237 39.5774L101.369 38.4641L100.848 36.0214L100.849 36.0195Z" fill="#425FEC"/>
<path d="M88.7021 27.2794C88.7021 23.2812 91.9565 20.0284 95.9567 20.0284C99.9569 20.0284 103.211 23.2812 103.211 27.2794C103.211 31.2776 99.9569 34.531 95.9567 34.531C91.9565 34.531 88.7021 31.2782 88.7021 27.2794ZM88.8758 27.2794C88.8758 31.182 92.0528 34.3568 95.9567 34.3568C99.8606 34.3568 103.038 31.182 103.038 27.2794C103.038 23.3768 99.8612 20.202 95.9567 20.202C92.0522 20.202 88.8758 23.3768 88.8758 27.2794Z" fill="#425FEC"/>
<mask id="mask0_218_8" style="mask-type:luminance" maskUnits="userSpaceOnUse" x="0" y="47" width="99" height="96">
<path d="M9.91821e-05 142.942H98.1107L98.1107 47.2724L9.91821e-05 47.2724L9.91821e-05 142.942Z" fill="white"/>
</mask>
<g mask="url(#mask0_218_8)">
<path d="M22.8646 116.41C22.9256 117.424 17.5794 118.571 10.9232 118.972C4.26703 119.372 1.8718 118.478 1.81087 117.464C1.74994 116.45 4.04585 115.7 10.702 115.299C17.3582 114.899 22.8037 115.395 22.8653 116.41H22.8646Z" fill="#425FEC"/>
<path d="M18.6884 147.933C20.6735 148.363 23.8658 148.511 23.8658 148.511C23.8658 148.511 18.9047 121.864 17.9602 114.309C17.6586 111.895 6.42279 107.015 5.55147 117.282C4.86416 125.382 17.4393 138.616 17.6702 145.318C17.7141 146.597 18.31 147.852 18.6884 147.934V147.933Z" fill="#F8A3A2"/>
<path d="M17.8568 147.134C17.8568 147.134 16.6302 156.245 19.6073 154.769C22.8087 153.183 29.0122 154.607 29.0122 154.607C29.0122 154.607 28.7892 148.993 26.3245 148.096C20.4817 145.97 20.4872 141.827 20.4872 141.827L17.8568 147.133V147.134Z" fill="#F8A3A2"/>
<path d="M31.4853 82.4793C28.6855 80.4086 21.9489 79.8641 16.8964 85.3252C11.844 90.7857 5.6082 100.479 1.81763 117.363C1.81763 117.363 12.4253 112.864 22.8592 116.474C22.8592 116.474 31.8156 104.172 33.911 97.4587C36.0065 90.7455 34.5734 84.7631 31.4853 82.4787V82.4793Z" fill="#425FEC"/>
<path d="M12.2156 142.314C11.092 147.038 10.5528 178.381 13.0028 183.379C14.7491 186.941 34.4082 195.769 36.23 185.847C37.8301 177.134 42.5816 148.018 42.1691 142.833C41.7706 137.827 15.5918 128.124 12.2156 142.314Z" fill="#FC721A"/>
<path d="M42.9424 132.51C42.7193 129.18 31.1405 123.637 22.3529 124.442L19.8169 155.303C20.5755 156.192 23.0268 159.88 23.4856 160.886C26.9715 168.532 30.1412 173.855 38.0111 175.966C40.2053 160.817 43.2074 136.474 42.9417 132.51H42.9424Z" fill="#425FEC"/>
<path d="M21.1958 138.343C21.9124 143.145 37.2105 182.699 41.3466 186.427C44.2939 189.083 55.1818 189.714 60.7229 181.283C66.2641 172.852 51.5027 132.335 49.1879 127.676C46.9529 123.178 19.0419 123.917 21.1958 138.343V138.343Z" fill="#FC721A"/>
<path d="M47.9307 80.9189C54.8172 85.1145 57.4897 95.4666 57.9863 113.253C58.4823 131.04 61.6581 142.624 59.704 147.238C59.704 147.238 39.1559 165.941 9.2323 154.009C9.2323 154.009 10.1432 148.921 12.1814 126.872C14.219 104.824 14.1647 98.843 17.0998 90.24C20.0349 81.6376 33.9694 73.7891 37.732 75.8592C41.5055 77.9347 42.6144 77.6796 47.9307 80.9183V80.9189Z" fill="#425FEC"/>
<path d="M66.4754 89.885C66.4754 89.885 71.0764 92.5659 74.8139 94.8954C75.5884 93.9265 76.3909 92.9484 77.1903 91.9758C79.3631 89.0068 85.8444 79.1279 85.8847 79.0883C87.3702 75.8069 84.9073 74.9318 85.3564 73.5718C85.6568 72.6601 88.4103 68.5797 89.5686 67.8282C89.579 67.8135 89.5899 67.8008 89.6021 67.7904C91.0785 66.4895 95.3419 64.3543 96.7189 63.4658C97.3252 63.0748 97.2722 63.9548 96.4387 65.1168C95.4333 66.5182 93.528 68.0675 92.2222 68.8964C92.6329 69.4664 93.0149 70.098 93.9088 70.6832C94.9873 71.3897 94.8118 72.7101 95.3754 73.7423C95.9384 74.774 94.9854 76.2424 93.6852 77.3362C92.3849 78.43 90.6526 78.4361 90.4539 81.4178C90.4539 81.4178 85.3503 103.226 82.7058 108.515C81.0083 111.91 78.8263 113.059 76.7333 112.85C71.4304 112.88 61.933 109.752 55.2268 104.684C48.1221 99.3144 56.7544 85.0153 66.4748 89.885H66.4754Z" fill="#F8A3A2"/>
<path d="M38.7149 83.5316C36.8564 85.7503 35.4934 89.0365 39.4625 94.8466C43.4316 100.656 54.4194 108.414 63.9181 112.665C63.9181 112.665 75.6353 101.876 72.2462 91.2357C72.2462 91.2357 55.9939 83.3203 50.5265 81.249C45.0591 79.1771 40.764 81.0846 38.7149 83.5316Z" fill="#425FEC"/>
<path d="M59.498 102.349C59.4407 102.383 53.6772 105.726 48.1665 100.858L48.4529 100.534C53.7217 105.189 59.2214 102.01 59.2768 101.978L59.498 102.349Z" fill="white"/>
<path d="M68.6793 107.605C66.5388 110.794 64.2496 112.882 64.2173 112.911L64.1344 112.986L64.026 112.961C63.8895 112.931 50.2755 109.849 42.6316 101.324L42.9533 101.036C50.1433 109.054 62.7044 112.204 64.0095 112.514C64.6182 111.941 68.4612 108.207 70.5597 103.297L70.957 103.467C70.3129 104.975 69.5068 106.372 68.6793 107.605Z" fill="white"/>
<path d="M28.5618 137.647C23.3192 137.647 20.0722 134.779 20.0234 134.734L20.3141 134.415C20.386 134.48 27.6058 140.836 37.9283 134.172L38.1628 134.535C34.5386 136.874 31.2818 137.647 28.5624 137.647H28.5618Z" fill="white"/>
<path d="M40.9327 75.5524C40.9327 75.5524 39.4204 73.9336 37.6698 70.7454L40.6567 71.4786L40.9327 75.5524Z" fill="#425FEC"/>
<path d="M46.0017 63.0515C45.5758 59.6556 45.7287 54.4589 41.7267 55.1738C40.7037 55.3566 35.9577 55.8566 34.9054 56.3724C32.409 57.6026 33.301 61.4394 32.6405 64.9206C32.4468 65.9541 32.5364 67.9578 32.9269 68.8682L31.9088 68.7696L31.6583 77.0827C31.6583 77.0827 37.0806 80.7362 41.0717 77.6058L40.7701 73.1521C41.6987 73.3799 42.4664 73.4767 42.8887 73.3878C45.7994 72.78 46.4806 66.8621 46.0017 63.0515Z" fill="#F8A3A2"/>
<path d="M44.3444 56.9967C43.9794 57.1739 42.854 57.6362 42.854 57.6362C42.854 57.6362 42.6218 60.5132 42.2179 61.5924C41.8139 62.6716 43.3006 66.4036 45.298 66.7179C47.2953 67.0327 46.0937 69.1923 45.9414 70.115C45.7239 71.4341 46.9815 72.7953 44.5187 73.7393C42.8771 74.3684 38.696 73.5389 39.716 70.8939C40.736 68.2496 42.517 64.9341 40.5928 62.1064C38.6686 59.2787 40.9968 65.6156 37.4664 67.9999C36.4891 68.66 35.7116 69.2069 35.0986 69.6533C34.1225 70.3635 32.8386 70.3111 31.8235 69.6582C31.7102 69.5857 31.5895 69.5255 31.461 69.4834C30.43 69.1454 27.423 65.6905 27.2067 61.1405C26.9904 56.5905 29.0194 54.9967 33.0379 54.0917C37.0569 53.1873 35.5757 51.5247 38.0818 50.9894C40.5879 50.454 43.7077 47.3505 43.7077 47.3505C43.7077 47.3505 47.6895 55.3731 44.345 56.9961L44.3444 56.9967Z" fill="#425FEC"/>
<path d="M36.4336 64.7312C37.1702 66.1752 38.7709 66.8348 40.0084 66.2045C41.2466 65.5735 41.653 63.8914 40.9169 62.4474C40.1803 61.0034 38.5796 60.3439 37.3421 60.9742C36.1039 61.6045 35.6975 63.2873 36.4336 64.7312Z" fill="#F8A3A2"/>
<path d="M40.1509 65.1264C40.0924 65.1953 40.0236 65.255 39.9437 65.2982C39.7798 65.3871 39.594 65.3932 39.4057 65.3159C39.003 65.1496 38.9792 64.8359 38.9603 64.5844C38.942 64.3402 38.9244 64.1094 38.624 63.8591C38.3845 63.6599 38.1268 63.5869 37.8995 63.5223C37.5071 63.4115 37.0635 63.2854 37.1512 62.5125C37.1799 62.2598 37.2981 62.0515 37.4998 61.8932C38.0774 61.4407 39.1839 61.5753 39.2308 61.5807L39.1766 62.0095C38.9067 61.9754 38.1268 61.9498 37.766 62.233C37.6582 62.3189 37.5966 62.4261 37.5808 62.5613C37.5345 62.9699 37.6363 62.9985 38.0171 63.1069C38.2724 63.1788 38.5904 63.2689 38.9006 63.5272C39.3417 63.895 39.3704 64.2744 39.3911 64.5521C39.4088 64.7897 39.4197 64.8548 39.5702 64.9163C39.6561 64.9517 39.7043 64.9364 39.7366 64.9188C39.9017 64.8299 40.0156 64.4809 40.0449 64.3256L40.4696 64.406C40.4592 64.4608 40.3782 64.8597 40.1497 65.1271L40.1509 65.1264Z" fill="#425FEC"/>
<path d="M13.753 111.042L13.3911 111.035C13.6227 99.5458 17.0842 89.7637 17.1189 89.6663L17.4601 89.7881C17.4254 89.8849 13.9834 99.614 13.753 111.042Z" fill="white"/>
</g>
<path d="M136.771 142.943H4.97815V143.836H136.771V142.943Z" fill="#131313"/>
</svg>
