<svg width="193" height="146" viewBox="0 0 193 146" fill="none" xmlns="http://www.w3.org/2000/svg">
<g clip-path="url(#clip0_127_15)">
<path d="M96.8374 96.9441C123.564 96.9441 145.231 75.2424 145.231 48.472C145.231 21.7017 123.564 0 96.8374 0C70.1106 0 48.4443 21.7017 48.4443 48.472C48.4443 75.2424 70.1106 96.9441 96.8374 96.9441Z" fill="#07AEE3"/>
<path d="M46.879 77.3263C46.879 77.3263 37.3575 99.0186 47.6738 98.1259C55.7215 97.4293 46.879 77.3263 46.879 77.3263Z" fill="#07AEE3"/>
<path d="M46.879 83.3469V103.201" stroke="black" stroke-miterlimit="10"/>
<path d="M45.0903 84.9891L46.879 87.0792L48.866 84.9891" stroke="black" stroke-miterlimit="10"/>
<path d="M45.0903 88.8705L46.879 90.9602L48.866 88.8705" stroke="black" stroke-miterlimit="10"/>
<path d="M45.0903 92.5524L46.879 94.6425L48.866 92.5524" stroke="black" stroke-miterlimit="10"/>
<path d="M193 102.941C189.041 101.622 184.478 100.812 179.499 100.412C172.142 99.8213 163.878 100.126 155.314 101.009C154.298 101.114 153.279 101.227 152.255 101.347C151.883 101.391 151.511 101.435 151.138 101.482C150.87 101.515 150.601 101.548 150.333 101.582C149.299 101.712 148.262 101.851 147.223 101.996C137.654 103.33 127.952 105.245 118.927 107.314C118.814 107.34 118.701 107.366 118.589 107.392C117.962 107.536 117.339 107.681 116.72 107.826C116.473 107.884 116.227 107.942 115.982 108.001C115.611 108.089 115.241 108.176 114.873 108.264C113.038 108.704 111.239 109.147 109.481 109.59C109.475 109.592 109.47 109.593 109.464 109.594C109.342 109.625 109.219 109.656 109.097 109.687C108.762 109.772 108.429 109.857 108.097 109.941C107.594 110.07 107.095 110.198 106.6 110.326C106.555 110.338 106.509 110.35 106.464 110.361C106.388 110.381 106.313 110.4 106.237 110.42C105.023 110.735 103.832 111.049 102.668 111.361C100.154 112.034 97.7625 112.694 95.5215 113.329C94.3042 113.674 93.131 114.011 92.0068 114.338C91.8341 114.389 91.6626 114.439 91.4923 114.489C91.4589 114.498 91.4251 114.508 91.3921 114.518C90.4432 114.795 89.5305 115.065 88.6569 115.326C86.355 116.013 84.3239 116.638 82.6148 117.173C78.7488 118.385 76.5272 119.142 76.5272 119.142L81.169 119.156L92.992 119.193L102.269 119.222H102.291L103.555 119.226L107.698 119.239L109.201 119.243L114.149 119.259L116.002 119.264L119.285 119.274L121.252 119.281L193 119.504V102.941L193 102.941Z" fill="#AFD6F2"/>
<path d="M0 112.499C2.04058 111.442 6.17905 109.381 11.5468 107.145C12.3247 106.82 13.1278 106.492 13.9547 106.164C15.304 105.626 16.7155 105.086 18.1764 104.554C26.7856 101.416 37.1374 98.5466 46.879 98.1828C49.4159 98.0878 51.9108 98.1626 54.3232 98.4475C54.9642 98.5226 55.5999 98.6131 56.2282 98.7188C56.6985 98.7981 57.1656 98.886 57.6285 98.983C59.5537 99.3864 62.0275 99.8547 64.9499 100.376C65.5608 100.485 66.1916 100.597 66.8408 100.71C72.9453 101.776 80.7024 103.033 89.3507 104.384C92.2282 104.833 95.2037 105.292 98.2502 105.758C98.4588 105.79 98.6674 105.822 98.8768 105.854C101.041 106.185 103.241 106.519 105.465 106.854C106.139 106.956 106.816 107.058 107.495 107.16C108.097 107.251 108.702 107.342 109.307 107.433C111.152 107.709 113.009 107.987 114.873 108.265C115.242 108.32 115.612 108.375 115.982 108.43C116.281 108.475 116.58 108.519 116.88 108.563C117.556 108.664 118.232 108.764 118.909 108.864C118.915 108.866 118.921 108.866 118.927 108.867C154.58 114.15 191.394 119.265 191.394 119.265H0V112.5V112.499Z" fill="url(#paint0_linear_127_15)"/>
<path d="M121.884 95.2367L122.764 94.3555C124.042 95.446 125.625 95.9907 127.208 95.9907C128.965 95.9907 130.723 95.3188 132.064 93.9756C134.613 91.4226 134.74 87.3625 132.443 84.66L133.323 83.7788C134.794 85.2517 135.529 87.1816 135.529 89.1116C135.529 91.0415 134.794 92.9714 133.323 94.4443L132.532 95.2371C129.591 98.1824 124.824 98.1824 121.883 95.2371L121.884 95.2367Z" fill="#384160"/>
<path d="M118.928 96.8933H115.982V110.414H118.928V96.8933Z" fill="#0E1B23"/>
<path d="M130.398 63.95H142.064C143.044 63.95 143.84 64.7469 143.84 65.7284V85.6493C143.84 86.6308 143.044 87.4277 142.064 87.4277H128.622V65.7284C128.622 64.7469 129.418 63.95 130.398 63.95Z" fill="#384160"/>
<path d="M128.312 63.95H139.978C140.958 63.95 141.754 64.7469 141.754 65.7284V85.6493C141.754 86.6308 140.958 87.4277 139.978 87.4277H126.536V65.7284C126.536 64.7469 127.332 63.95 128.312 63.95Z" fill="#0E1B23"/>
<path d="M127.211 119.265H125.71C125.548 117.243 124.662 115.426 123.312 114.074C121.814 112.573 119.742 111.644 117.455 111.644C113.107 111.644 109.542 114.998 109.199 119.265H107.698C107.698 116.752 108.714 114.478 110.358 112.833C112.001 111.187 114.271 110.169 116.779 110.169H118.13C123.145 110.169 127.211 114.241 127.211 119.265H127.211Z" fill="#0E1B23"/>
<path d="M129.186 92.099H105.723C105.086 92.099 104.569 92.6166 104.569 93.2552V97.8265C104.569 98.465 105.086 98.9826 105.723 98.9826H129.186C129.824 98.9826 130.34 98.465 130.34 97.8265V93.2552C130.34 92.6166 129.824 92.099 129.186 92.099Z" fill="#0E1B23"/>
<path d="M94.0148 115.208L92.9104 119.511H81.129C81.129 119.511 81.0548 117.034 84.9336 116.315C88.2471 115.7 89.4744 113.242 89.4744 113.242L94.0152 115.208H94.0148Z" fill="url(#paint1_linear_127_15)" stroke="#000E3E" stroke-miterlimit="10"/>
<path d="M108.997 108.971L112.708 113.921L102.511 119.832C102.511 119.832 101.208 117.725 104.205 115.157C106.766 112.963 104.368 111.512 104.368 111.512L108.997 108.971Z" fill="url(#paint2_linear_127_15)" stroke="#000E3E" stroke-miterlimit="10"/>
<path d="M96.6536 83.802C93.34 84.0477 85.8541 88.8416 92.6037 97.4462C99.3533 106.051 104.017 113.426 104.017 113.426L110.03 109.001L100.335 87.9811L106.927 85.0837L96.6536 83.8016V83.802Z" fill="#0E1B23"/>
<path d="M87.8176 113.303C87.8176 113.303 91.5517 86.3835 96.9866 84.9697C102.422 83.5563 131.383 83.5563 131.383 83.5563C131.383 83.5563 135.065 91.4231 128.316 93.1441C121.566 94.8651 102.509 93.9344 102.509 93.9344L94.6901 115.639L87.8176 113.303Z" fill="#384160"/>
<path d="M89.7197 82.3303C89.7197 82.3303 92.4306 79.1051 97.2055 79.9949C101.98 80.8847 110.353 79.1707 110.353 79.1707L111.131 67.269H116.35C116.35 67.269 116.35 80.1716 114.018 83.5084C111.686 86.8451 100.762 82.123 97.9422 82.0842L89.7197 82.3299V82.3303Z" fill="#EFBF6A" stroke="#000E3E" stroke-miterlimit="10"/>
<path d="M110.091 72.309H116.35L115.859 60.6314C115.859 60.6314 109.6 59.894 110.091 72.309H110.091Z" fill="white"/>
<path d="M115.663 60.6645C115.734 60.6645 115.788 60.6674 115.82 60.6694L116.308 72.2677H110.132C110.029 69.6077 110.233 67.3495 110.738 65.5558C111.15 64.092 111.763 62.9285 112.561 62.0973C113.802 60.804 115.144 60.6645 115.664 60.6645M115.664 60.6232C114.607 60.6232 109.653 61.2116 110.092 72.309H116.351L115.86 60.6314C115.86 60.6314 115.789 60.6232 115.663 60.6232H115.664Z" fill="url(#paint3_linear_127_15)"/>
<path d="M115.86 60.6316C115.86 60.6316 121.75 59.8942 132.427 60.1398L133.249 84.701L115 83.6175L115.86 60.6312V60.6316Z" fill="white"/>
<path d="M128.148 60.1306C129.529 60.1306 130.955 60.1471 132.387 60.1797L133.206 84.6567L115.043 83.5786L115.899 60.6678C116.327 60.6174 120.652 60.1306 128.148 60.1306M128.147 60.0893C120.187 60.0893 115.859 60.631 115.859 60.631L115 83.6174L133.248 84.7009L132.426 60.1397C130.901 60.1046 129.474 60.0893 128.147 60.0893Z" fill="url(#paint4_linear_127_15)"/>
<path d="M62.8437 119.133H60.8802L68.6118 83.4948H70.5753L62.8437 119.133Z" fill="url(#paint5_linear_127_15)" stroke="white" stroke-miterlimit="10"/>
<g style="mix-blend-mode:multiply">
<path d="M105.244 113.847L110.47 110.936L109.048 109.001L104.508 111.459C104.508 111.459 105.244 112.547 105.244 113.847Z" fill="#CAD4E8"/>
</g>
<path d="M51.7991 119.133H49.8351L57.5667 83.4948H59.5302L51.7991 119.133Z" fill="white"/>
<path d="M51.8155 119.154H49.8096L49.8149 119.129L57.5498 83.4737H59.5553L59.55 83.4989L51.8151 119.154H51.8155ZM49.8607 119.112H51.7821L59.5046 83.5154H57.5832L49.8607 119.112Z" fill="url(#paint6_linear_127_15)"/>
<path d="M108.128 119.133H110.091L102.36 83.4948H100.397L108.128 119.133Z" fill="white"/>
<path d="M110.117 119.154H108.111L108.108 119.138L100.371 83.4741H102.376L102.38 83.4902L110.116 119.154H110.117ZM108.144 119.112H110.066L102.343 83.5154H100.422L108.144 119.112Z" fill="url(#paint7_linear_127_15)"/>
<path d="M119.173 119.133H121.136L113.405 83.4948H111.441L119.173 119.133Z" fill="url(#paint8_linear_127_15)" stroke="white" stroke-miterlimit="10"/>
<path d="M87.3242 82.1854H109.158L111.441 80.8427H89.6071L87.3242 82.1854Z" fill="url(#paint9_linear_127_15)"/>
<path d="M105.244 73.622H74.9174L71.746 53.5277H102.073L105.244 73.622Z" fill="#0E1B23"/>
<path d="M104.073 73.622H73.7462L70.5753 53.5277H100.902L104.073 73.622Z" fill="white"/>
<path d="M104.097 73.6427H73.7289L73.726 73.6253L70.551 53.5071H100.919L100.922 53.5244L104.097 73.6427ZM73.7644 73.6014H104.049L100.884 53.5484H70.5996L73.7644 73.6014Z" fill="url(#paint10_linear_127_15)"/>
<path d="M84.8437 82.1854H91.2721L91.7685 72.7619L91.066 70.8853L84.8437 82.1854Z" fill="#0E1B23"/>
<path d="M83.8651 82.1855H90.2935L90.9659 70.8853H84.5374L83.8651 82.1855Z" fill="white"/>
<path d="M90.3129 82.2061H83.8432L83.8444 82.1842L84.5176 70.8651H90.9873L90.9861 70.8869L90.3125 82.2061H90.3129ZM83.8869 82.1648H90.2741L90.944 70.9063H84.5568L83.8869 82.1648Z" fill="url(#paint11_linear_127_15)"/>
<path d="M121.496 48.5691C121.496 48.5691 120.925 55.7281 123.797 60.5323C123.964 61.8974 120.111 65.908 118.905 62.1605L117.456 57.663C117.456 57.663 114.34 57.5404 113.893 56.682C113.616 56.1501 113.205 51.4797 114.848 49.0749C115.857 47.5971 117.772 48.0273 121.495 48.5687L121.496 48.5691Z" fill="#EFBF6A" stroke="#000E3E" stroke-miterlimit="10"/>
<path d="M113.566 53.2887C113.566 53.2887 112.007 57.5235 114.381 58.5285C116.163 59.2829 119.72 56.3781 120.118 52.441C120.949 52.3778 121.17 55.3218 122.053 55.9214C122.053 55.9214 123.955 49.7773 121.495 48.5691C121.495 48.5691 122.261 46.6548 118.026 45.0659C111.529 42.6289 110.82 49.9201 114.344 50.0262C117.573 50.1233 118.346 50.8859 118.595 51.6502C118.872 52.5004 116.249 53.7821 113.565 53.2887H113.566Z" fill="#0E1B23"/>
<path d="M113.761 54.031C113.761 54.031 115.387 54.3358 116.612 53.9637C116.612 53.9637 114.882 56.8661 113.761 54.031Z" fill="#EFBF6A"/>
<g style="mix-blend-mode:multiply">
<path d="M128.316 66.8387C128.316 66.8387 128.07 75.1973 127.456 77.164C126.843 79.1307 116.043 82.6673 116.043 82.6673V83.778L131.874 83.8015C131.874 83.8015 134.697 73.4763 133.593 70.403C132.488 67.3301 128.316 66.8383 128.316 66.8383V66.8387Z" fill="#CAD4E8"/>
</g>
<path d="M120.064 53.5616C120.064 53.5616 121.982 53.1367 122.195 52.2832C122.601 50.6638 121.217 50.4045 120.141 50.9049" fill="#EFBF6A"/>
<path d="M120.064 53.5616C120.064 53.5616 121.982 53.1367 122.195 52.2832C122.601 50.6638 121.217 50.4045 120.141 50.9049" stroke="#000E3E" stroke-miterlimit="10"/>
<path d="M117.332 82.1425H53.6397V84.9697H117.332V82.1425Z" fill="white"/>
<path d="M117.352 84.9903H53.6191V82.1218H117.352V84.9903ZM53.6603 84.949H117.311V82.1631H53.6603V84.949Z" fill="url(#paint12_linear_127_15)"/>
<path d="M104.073 82.1854C104.073 82.1854 107.514 78.3321 112.791 79.3157C118.069 80.2992 131.691 78.7013 131.691 78.7013L129.972 65.9175H135.74C135.74 65.9175 138.318 79.8075 135.74 83.4952C133.163 87.1829 115.956 82.2284 112.84 82.1858H104.073L104.073 82.1854Z" fill="#EFBF6A" stroke="#000E3E" stroke-miterlimit="10"/>
<path d="M132.427 60.14C132.427 60.14 136.508 61.2057 136.676 72.965L129.973 73.6616C129.973 73.6616 124.818 60.263 132.427 60.1404V60.14Z" fill="white"/>
<path d="M132.421 60.181C132.499 60.2041 133.469 60.5233 134.453 62.1634C135.055 63.1676 135.543 64.4616 135.901 66.0088C136.348 67.9363 136.595 70.2635 136.635 72.9271L130 73.6163C129.901 73.3524 129.169 71.3655 128.703 69.0214C128.412 67.551 128.28 66.2297 128.312 65.095C128.352 63.6804 128.648 62.5536 129.192 61.7459C129.875 60.7326 130.961 60.2058 132.421 60.181M132.426 60.1397C124.818 60.2627 129.972 73.6609 129.972 73.6609L136.676 72.9643C136.507 61.205 132.426 60.1393 132.426 60.1393V60.1397Z" fill="url(#paint13_linear_127_15)"/>
<g style="mix-blend-mode:multiply">
<path d="M131.245 75.3877L136.821 75.0235L136.66 72.9849L131.015 73.5993L131.245 75.3877Z" fill="#CAD4E8"/>
</g>
<g style="mix-blend-mode:multiply">
<path d="M110.796 72.3953L110.617 75.1382L115.297 75.6891V72.309L110.796 72.3953Z" fill="#CAD4E8"/>
</g>
<g style="mix-blend-mode:multiply">
<path d="M87.8613 115.045L93.5238 117.045L94.0536 115.359L89.0886 113.672C89.0886 113.672 88.5976 114.608 87.8613 115.045Z" fill="#CAD4E8"/>
</g>
<path d="M13.9547 85.8917C13.9547 85.8917 3.89068 108.821 14.7948 107.877C23.3014 107.141 13.9547 85.8917 13.9547 85.8917Z" fill="#07AEE3"/>
<path d="M13.9547 92.2559V113.242" stroke="black" stroke-miterlimit="10"/>
<path d="M12.0641 93.9914L13.9546 96.2005L16.055 93.9914" stroke="black" stroke-miterlimit="10"/>
<path d="M12.0641 98.0941L13.9546 100.303L16.055 98.0941" stroke="black" stroke-miterlimit="10"/>
<path d="M12.0641 101.986L13.9546 104.195L16.055 101.986" stroke="black" stroke-miterlimit="10"/>
<path d="M151.138 85.2059C151.138 85.2059 141.617 106.898 151.933 106.005C159.981 105.309 151.138 85.2059 151.138 85.2059Z" fill="#07AEE3"/>
<path d="M151.138 91.2265V111.081" stroke="black" stroke-miterlimit="10"/>
<path d="M149.35 92.8687L151.138 94.9588L153.125 92.8687" stroke="black" stroke-miterlimit="10"/>
<path d="M149.35 96.7501L151.138 98.8398L153.125 96.7501" stroke="black" stroke-miterlimit="10"/>
<path d="M149.35 100.432L151.138 102.522L153.125 100.432" stroke="black" stroke-miterlimit="10"/>
<path d="M179.499 74.4896C179.499 74.4896 169.435 97.4185 180.339 96.4746C188.846 95.7384 179.499 74.4896 179.499 74.4896Z" fill="#07AEE3"/>
<path d="M179.499 80.8538V101.84" stroke="black" stroke-miterlimit="10"/>
<path d="M177.609 82.5892L179.499 84.7983L181.6 82.5892" stroke="black" stroke-miterlimit="10"/>
<path d="M177.609 86.6919L179.499 88.901L181.6 86.6919" stroke="black" stroke-miterlimit="10"/>
<path d="M177.609 90.584L179.499 92.7931L181.6 90.584" stroke="black" stroke-miterlimit="10"/>
<path d="M62.9761 75.9117C62.9761 75.9117 62.7457 73.9268 59.7961 72.6344C56.8465 71.342 60.1189 69.4029 61.6396 71.2032C61.6396 71.2032 60.0727 69.2184 60.0727 67.7872C60.0727 66.3561 62.4691 66.0794 62.9761 69.2184C62.9761 69.2184 62.838 63.4021 65.3263 63.3096C67.8146 63.2171 64.6811 72.1946 64.6811 72.1946C64.6811 72.1946 67.0775 69.495 68.7829 71.0645C70.4879 72.634 65.3263 73.0031 64.543 76.5574L62.9761 75.9112V75.9117Z" fill="#384160"/>
<path d="M66.833 75.0771H61.0262V82.2127H66.833V75.0771Z" fill="url(#paint14_linear_127_15)"/>
<path d="M65.4966 64.0945C65.4966 64.0945 63.0079 69.4578 63.6992 75.116" stroke="#FEFEFE" stroke-miterlimit="10"/>
<path d="M61.0493 67.926C61.0493 67.926 62.7655 69.4492 63.578 71.6186" stroke="#FEFEFE" stroke-miterlimit="10"/>
<path d="M64.759 73.9268C64.759 73.9268 65.6808 71.6648 68.3538 71.6186" stroke="#FEFEFE" stroke-miterlimit="10"/>
<path d="M59.5516 71.619C59.5516 71.619 61.8437 71.8498 63.578 73.9272" stroke="#FEFEFE" stroke-miterlimit="10"/>
<path d="M28.0759 22.3509H65.6816C65.6816 22.3509 64.9697 18.5207 60.5393 19.7508C56.1094 20.9809 54.0326 11.1647 49.9427 10.4797C45.8529 9.79468 45.6249 16.6432 40.8388 14.8169C36.0528 12.9906 37.9911 21.4879 33.0335 19.7504C28.0759 18.0128 28.0759 22.3505 28.0759 22.3505V22.3509Z" fill="url(#paint15_linear_127_15)"/>
<path d="M19.8307 59.8874H61.565C61.565 59.8874 61.5649 55.8384 52.2908 57.1774C46.7499 57.9772 44.2365 49.0534 39.5691 49.3577C34.9017 49.662 34.6697 56.0935 31.8875 55.8388C29.1053 55.5836 27.0193 53.7259 25.6272 55.8388C23.7725 58.6536 18.2077 57.5722 19.8307 59.8878V59.8874Z" fill="url(#paint16_linear_127_15)"/>
<path d="M128.266 44.1105H176.233C176.233 44.1105 169.577 40.6908 163.753 41.007C157.93 41.3233 157.614 35.704 152.249 34.5623C146.884 33.421 146.884 41.6392 144.36 41.3229C141.835 41.0066 138.995 36.5815 136.155 38.1621C133.315 39.7427 136.155 42.7888 128.266 44.1105H128.266Z" fill="url(#paint17_linear_127_15)"/>
<path d="M124.804 6.35968H68.8711C68.133 6.35968 67.5346 6.95902 67.5346 7.69834V17.0272C67.5346 17.7666 68.133 18.3659 68.8711 18.3659H124.804C125.542 18.3659 126.141 17.7666 126.141 17.0272V7.69834C126.141 6.95902 125.542 6.35968 124.804 6.35968Z" fill="white"/>
<path d="M124.804 18.4278H68.8707C68.0998 18.4278 67.4728 17.7998 67.4728 17.0272V7.6979C67.4728 6.92575 68.0998 6.2973 68.8707 6.2973H124.804C125.575 6.2973 126.202 6.92534 126.202 7.6979V17.0272C126.202 17.7994 125.575 18.4278 124.804 18.4278ZM68.8707 6.42159C68.1678 6.42159 67.5965 6.9943 67.5965 7.69831V17.0276C67.5965 17.7316 68.1682 18.3043 68.8707 18.3043H124.804C125.507 18.3043 126.079 17.7316 126.079 17.0276V7.69831C126.079 6.9943 125.507 6.42159 124.804 6.42159H68.8707Z" fill="url(#paint18_linear_127_15)"/>
<path d="M124.804 23.7419H68.8711C68.133 23.7419 67.5346 24.3413 67.5346 25.0806V34.4095C67.5346 35.1488 68.133 35.7482 68.8711 35.7482H124.804C125.542 35.7482 126.141 35.1488 126.141 34.4095V25.0806C126.141 24.3413 125.542 23.7419 124.804 23.7419Z" fill="white"/>
<path d="M124.804 35.8105H68.8707C68.0998 35.8105 67.4728 35.1825 67.4728 34.4099V25.0806C67.4728 24.3085 68.0998 23.6804 68.8707 23.6804H124.804C125.575 23.6804 126.202 24.3085 126.202 25.0806V34.4099C126.202 35.1821 125.575 35.8105 124.804 35.8105ZM68.8707 23.8043C68.1678 23.8043 67.5965 24.377 67.5965 25.0806V34.4099C67.5965 35.1139 68.1682 35.6866 68.8707 35.6866H124.804C125.507 35.6866 126.079 35.1139 126.079 34.4099V25.0806C126.079 24.3766 125.507 23.8043 124.804 23.8043H68.8707Z" fill="url(#paint19_linear_127_15)"/>
<path d="M109.039 39.2633H84.636C83.9957 39.2633 83.4767 39.7832 83.4767 40.4244V45.0152C83.4767 45.6564 83.9957 46.1763 84.636 46.1763H109.039C109.679 46.1763 110.198 45.6564 110.198 45.0152V40.4244C110.198 39.7832 109.679 39.2633 109.039 39.2633Z" fill="url(#paint20_linear_127_15)" stroke="white" stroke-width="3" stroke-miterlimit="10"/>
<path d="M76.1059 10.4318C76.1059 11.1366 75.795 11.7692 75.3032 12.1991C74.8922 12.5587 74.353 12.7771 73.7644 12.7771C73.1757 12.7771 72.6369 12.5587 72.2251 12.1991C71.7333 11.7696 71.4224 11.1366 71.4224 10.4318C71.4224 9.13609 72.4707 8.08606 73.7644 8.08606C75.058 8.08606 76.1059 9.13609 76.1059 10.4318Z" fill="url(#paint21_linear_127_15)"/>
<path d="M77.4139 15.5135H70.1152C70.1152 14.2232 70.7826 13.0897 71.7906 12.4398C72.2989 12.9407 72.9955 13.25 73.7644 13.25C74.5332 13.25 75.2303 12.9407 75.7382 12.4398C76.7457 13.0897 77.4135 14.2232 77.4135 15.5135H77.4139Z" fill="url(#paint22_linear_127_15)"/>
<path d="M74.3926 30.2152L74.1453 28.6602L74.816 28.533L74.8861 28.0061H74.041L73.9417 27.3822L75.2015 27.0932V26.4259H73.0628V30.2441C72.3599 30.5422 71.8858 31.2751 71.9761 32.1063C72.066 32.9354 72.7321 33.6035 73.5595 33.6952C74.6449 33.8154 75.5634 32.9672 75.5634 31.9044C75.5634 31.1306 75.0761 30.4708 74.3926 30.2156V30.2152Z" fill="url(#paint23_linear_127_15)"/>
<path d="M88.0332 30.5261C88.2879 29.4452 87.6196 28.3621 86.5404 28.107C85.4613 27.8519 84.38 28.5213 84.1254 29.6022C83.8707 30.6831 84.539 31.7661 85.6181 32.0212C86.6972 32.2764 87.7785 31.6069 88.0332 30.5261Z" fill="url(#paint24_linear_127_15)"/>
<path d="M93.7984 31.4882C94.5825 30.7029 94.5825 29.4297 93.7984 28.6444C93.0144 27.8591 91.7433 27.8591 90.9593 28.6444C90.1752 29.4297 90.1752 30.7029 90.9593 31.4882C91.7433 32.2735 93.0144 32.2735 93.7984 31.4882Z" fill="url(#paint25_linear_127_15)"/>
<path d="M100.265 31.4879C101.049 30.7026 101.049 29.4294 100.265 28.6441C99.4807 27.8588 98.2095 27.8588 97.4255 28.6441C96.6415 29.4294 96.6415 30.7026 97.4255 31.4879C98.2095 32.2732 99.4807 32.2732 100.265 31.4879Z" fill="url(#paint26_linear_127_15)"/>
<path d="M107.108 31.4881C107.892 30.7028 107.892 29.4296 107.108 28.6443C106.324 27.859 105.053 27.859 104.269 28.6443C103.485 29.4296 103.485 30.7028 104.269 31.4881C105.053 32.2734 106.324 32.2734 107.108 31.4881Z" fill="url(#paint27_linear_127_15)"/>
<path d="M121.337 32.4622C119.83 32.4622 118.495 31.5022 118.015 30.0727L118.012 30.0661L118.015 30.0595C118.495 28.6304 119.83 27.67 121.337 27.67C122.844 27.67 124.179 28.6304 124.66 30.0595L124.662 30.0661L124.66 30.0727C124.179 31.5018 122.844 32.4622 121.337 32.4622ZM118.056 30.0661C118.533 31.475 119.851 32.4209 121.337 32.4209C122.824 32.4209 124.142 31.475 124.619 30.0661C124.142 28.6573 122.824 27.7113 121.337 27.7113C119.851 27.7113 118.533 28.6573 118.056 30.0661Z" fill="url(#paint28_linear_127_15)"/>
<path d="M121.337 32.4829C119.822 32.4829 118.478 31.5171 117.995 30.0793L117.99 30.0661L117.995 30.0529C118.478 28.6152 119.821 27.6494 121.337 27.6494C122.853 27.6494 124.196 28.6152 124.68 30.0529L124.684 30.0661L124.68 30.0793C124.196 31.5171 122.853 32.4829 121.337 32.4829ZM118.078 30.0661C118.554 31.463 119.862 32.4003 121.337 32.4003C122.813 32.4003 124.121 31.463 124.597 30.0661C124.121 28.6692 122.813 27.7319 121.337 27.7319C119.861 27.7319 118.553 28.6692 118.078 30.0661Z" fill="url(#paint29_linear_127_15)"/>
<path d="M122.287 30.9271C122.811 30.4019 122.811 29.5504 122.287 29.0252C121.762 28.5 120.912 28.5 120.388 29.0252C119.864 29.5504 119.864 30.402 120.388 30.9271C120.912 31.4523 121.762 31.4523 122.287 30.9271Z" fill="url(#paint30_linear_127_15)"/>
<path d="M119.375 10.0271H84.044C83.7157 10.0271 83.4495 10.2937 83.4495 10.6225V12.9769C83.4495 13.3058 83.7157 13.5724 84.044 13.5724H119.375C119.703 13.5724 119.969 13.3058 119.969 12.9769V10.6225C119.969 10.2937 119.703 10.0271 119.375 10.0271Z" fill="url(#paint31_linear_127_15)"/>
<path d="M91.0228 44.1724V44.7199H89.1664V41.1099H89.7551V44.1724H91.0228Z" fill="#FEFEFE"/>
<path d="M91.3109 42.9151C91.3109 41.8923 92.1399 41.062 93.161 41.062C94.1822 41.062 95.0112 41.8923 95.0112 42.9151C95.0112 43.9379 94.1822 44.7682 93.161 44.7682C92.1399 44.7682 91.3109 43.9379 91.3109 42.9151ZM94.4287 42.9151C94.4287 42.1991 93.8763 41.6454 93.161 41.6454C92.4458 41.6454 91.8934 42.1991 91.8934 42.9151C91.8934 43.6311 92.452 44.1848 93.161 44.1848C93.8701 44.1848 94.4287 43.6311 94.4287 42.9151Z" fill="#FEFEFE"/>
<path d="M99.2407 42.7706V42.9151C99.2407 43.9379 98.4117 44.7682 97.3906 44.7682C96.3695 44.7682 95.5405 43.9379 95.5405 42.9151C95.5405 41.8923 96.3633 41.062 97.3906 41.062C98.0877 41.062 98.7003 41.453 99.0128 42.0306L98.5082 42.3015C98.2922 41.9043 97.8774 41.6458 97.391 41.6458C96.6762 41.6458 96.1176 42.1995 96.1176 42.9155C96.1176 43.6315 96.6762 44.1852 97.391 44.1852C97.9797 44.1852 98.4665 43.8062 98.6104 43.2644H97.3848V42.771H99.2411L99.2407 42.7706Z" fill="#FEFEFE"/>
<path d="M99.9313 41.1099H100.52V44.7199H99.9313V41.1099Z" fill="#FEFEFE"/>
<path d="M104.509 41.1099V44.7199H103.92L101.926 42.0364V44.7199H101.337V41.1099H101.926L103.926 43.7876V41.1099H104.509Z" fill="#FEFEFE"/>
<path d="M102.48 119.832C102.48 119.832 104.793 122.212 107.458 121.58L98.3231 146H109.333L114.172 119.133L102.248 119.162L102.48 119.832L102.48 119.832Z" fill="url(#paint32_linear_127_15)"/>
<path d="M49.8046 119.133L56.5649 146H59.4997L51.7681 119.133H49.8046Z" fill="url(#paint33_linear_127_15)"/>
<path d="M60.8497 119.133L67.6096 146H70.5444L62.8132 119.133H60.8497Z" fill="url(#paint34_linear_127_15)"/>
<path d="M121.29 119.133L114.529 146H111.595L119.326 119.133H121.29Z" fill="url(#paint35_linear_127_15)"/>
<path d="M81.0985 119.511C81.0985 119.511 84.0526 122.241 87.5414 122.873L85.5602 146H95.7021L92.8795 119.511H81.0981H81.0985Z" fill="url(#paint36_linear_127_15)"/>
</g>
<defs>
<linearGradient id="paint0_linear_127_15" x1="95.6972" y1="97.4111" x2="95.6972" y2="119.618" gradientUnits="userSpaceOnUse">
<stop stop-color="#E6EDFA"/>
<stop offset="1" stop-color="#AFD2F2"/>
</linearGradient>
<linearGradient id="paint1_linear_127_15" x1="81.129" y1="116.376" x2="94.0148" y2="116.376" gradientUnits="userSpaceOnUse">
<stop stop-color="#66B3FA"/>
<stop offset="1" stop-color="#499FDE"/>
</linearGradient>
<linearGradient id="paint2_linear_127_15" x1="102.229" y1="114.402" x2="112.707" y2="114.402" gradientUnits="userSpaceOnUse">
<stop stop-color="#66B3FA"/>
<stop offset="1" stop-color="#49A8DE"/>
</linearGradient>
<linearGradient id="paint3_linear_127_15" x1="110.064" y1="66.4659" x2="116.351" y2="66.4659" gradientUnits="userSpaceOnUse">
<stop stop-color="#66B3FA"/>
<stop offset="1" stop-color="#49A8DE"/>
</linearGradient>
<linearGradient id="paint4_linear_127_15" x1="115" y1="72.3953" x2="133.248" y2="72.3953" gradientUnits="userSpaceOnUse">
<stop stop-color="#66D6FA"/>
<stop offset="1" stop-color="#499FDE"/>
</linearGradient>
<linearGradient id="paint5_linear_127_15" x1="60.8802" y1="101.314" x2="70.5753" y2="101.314" gradientUnits="userSpaceOnUse">
<stop stop-color="#0787E3"/>
<stop offset="1" stop-color="#60A8DC"/>
</linearGradient>
<linearGradient id="paint6_linear_127_15" x1="49.8096" y1="101.314" x2="59.5557" y2="101.314" gradientUnits="userSpaceOnUse">
<stop stop-color="#66CEFA"/>
<stop offset="1" stop-color="#498EDE"/>
</linearGradient>
<linearGradient id="paint7_linear_127_15" x1="100.371" y1="101.314" x2="110.117" y2="101.314" gradientUnits="userSpaceOnUse">
<stop stop-color="#66FAFA"/>
<stop offset="1" stop-color="#49B1DE"/>
</linearGradient>
<linearGradient id="paint8_linear_127_15" x1="111.441" y1="101.314" x2="121.136" y2="101.314" gradientUnits="userSpaceOnUse">
<stop stop-color="#0787E3"/>
<stop offset="1" stop-color="#60A8DC"/>
</linearGradient>
<linearGradient id="paint9_linear_127_15" x1="87.3242" y1="81.514" x2="111.441" y2="81.514" gradientUnits="userSpaceOnUse">
<stop stop-color="#6296FB"/>
<stop offset="1" stop-color="#384A60"/>
</linearGradient>
<linearGradient id="paint10_linear_127_15" x1="70.551" y1="63.5747" x2="104.097" y2="63.5747" gradientUnits="userSpaceOnUse">
<stop stop-color="#66B3FA"/>
<stop offset="1" stop-color="#49A8DE"/>
</linearGradient>
<linearGradient id="paint11_linear_127_15" x1="83.8432" y1="76.5351" x2="90.9877" y2="76.5351" gradientUnits="userSpaceOnUse">
<stop stop-color="#66AAFA"/>
<stop offset="1" stop-color="#498EDE"/>
</linearGradient>
<linearGradient id="paint12_linear_127_15" x1="53.6191" y1="83.5563" x2="117.352" y2="83.5563" gradientUnits="userSpaceOnUse">
<stop stop-color="#66FAFA"/>
<stop offset="1" stop-color="#49BADE"/>
</linearGradient>
<linearGradient id="paint13_linear_127_15" x1="128.266" y1="66.9003" x2="136.676" y2="66.9003" gradientUnits="userSpaceOnUse">
<stop stop-color="#66C5FA"/>
<stop offset="1" stop-color="#49A8DE"/>
</linearGradient>
<linearGradient id="paint14_linear_127_15" x1="63.9296" y1="75.021" x2="63.9296" y2="82.2895" gradientUnits="userSpaceOnUse">
<stop stop-color="#FEFEFE"/>
<stop offset="1" stop-color="#61C3FA"/>
</linearGradient>
<linearGradient id="paint15_linear_127_15" x1="46.879" y1="24.0624" x2="46.879" y2="8.25493" gradientUnits="userSpaceOnUse">
<stop stop-color="#FEFEFE"/>
<stop offset="1" stop-color="#61A7FA"/>
</linearGradient>
<linearGradient id="paint16_linear_127_15" x1="40.5511" y1="46.2093" x2="40.5511" y2="61.7409" gradientUnits="userSpaceOnUse">
<stop stop-color="#61B1FA"/>
<stop offset="1" stop-color="#FEFEFE"/>
</linearGradient>
<linearGradient id="paint17_linear_127_15" x1="152.249" y1="31.0059" x2="152.249" y2="47.0541" gradientUnits="userSpaceOnUse">
<stop stop-color="#6195FA"/>
<stop offset="1" stop-color="#FEFEFE"/>
</linearGradient>
<linearGradient id="paint18_linear_127_15" x1="96.8374" y1="6.29772" x2="96.8374" y2="18.4278" gradientUnits="userSpaceOnUse">
<stop stop-color="#6698FA"/>
<stop offset="1" stop-color="#49A8DE"/>
</linearGradient>
<linearGradient id="paint19_linear_127_15" x1="96.8374" y1="23.68" x2="96.8374" y2="35.8105" gradientUnits="userSpaceOnUse">
<stop stop-color="#66CEFA"/>
<stop offset="1" stop-color="#49A8DE"/>
</linearGradient>
<linearGradient id="paint20_linear_127_15" x1="83.8342" y1="39.1019" x2="111.19" y2="46.6884" gradientUnits="userSpaceOnUse">
<stop stop-color="#66CEFA"/>
<stop offset="1" stop-color="#499FDE"/>
</linearGradient>
<linearGradient id="paint21_linear_127_15" x1="73.7639" y1="8.08606" x2="73.7639" y2="12.7771" gradientUnits="userSpaceOnUse">
<stop stop-color="#66D6FA"/>
<stop offset="1" stop-color="#49C3DE"/>
</linearGradient>
<linearGradient id="paint22_linear_127_15" x1="73.7644" y1="12.4398" x2="73.7644" y2="15.5135" gradientUnits="userSpaceOnUse">
<stop stop-color="#66C5FA"/>
<stop offset="1" stop-color="#49A8DE"/>
</linearGradient>
<linearGradient id="paint23_linear_127_15" x1="73.7644" y1="26.4259" x2="73.7644" y2="33.7064" gradientUnits="userSpaceOnUse">
<stop stop-color="#66DFFA"/>
<stop offset="1" stop-color="#499FDE"/>
</linearGradient>
<linearGradient id="paint24_linear_127_15" x1="86.0777" y1="28.0569" x2="86.0777" y2="32.0787" gradientUnits="userSpaceOnUse">
<stop stop-color="#66AAFA"/>
<stop offset="1" stop-color="#4996DE"/>
</linearGradient>
<linearGradient id="paint25_linear_127_15" x1="92.3786" y1="28.0554" x2="92.3786" y2="32.0771" gradientUnits="userSpaceOnUse">
<stop stop-color="#66BCFA"/>
<stop offset="1" stop-color="#49A8DE"/>
</linearGradient>
<linearGradient id="paint26_linear_127_15" x1="98.8452" y1="28.0551" x2="98.8452" y2="32.0768" gradientUnits="userSpaceOnUse">
<stop stop-color="#66BCFA"/>
<stop offset="1" stop-color="#498EDE"/>
</linearGradient>
<linearGradient id="paint27_linear_127_15" x1="105.688" y1="28.0553" x2="105.688" y2="32.077" gradientUnits="userSpaceOnUse">
<stop stop-color="#66E8FA"/>
<stop offset="1" stop-color="#49A8DE"/>
</linearGradient>
<linearGradient id="paint28_linear_127_15" x1="121.337" y1="27.67" x2="121.337" y2="32.4622" gradientUnits="userSpaceOnUse">
<stop stop-color="#010101"/>
<stop offset="1" stop-color="#070E10"/>
</linearGradient>
<linearGradient id="paint29_linear_127_15" x1="121.337" y1="27.6494" x2="121.337" y2="32.4829" gradientUnits="userSpaceOnUse">
<stop/>
<stop offset="1"/>
</linearGradient>
<linearGradient id="paint30_linear_127_15" x1="121.337" y1="28.6312" x2="121.337" y2="31.3209" gradientUnits="userSpaceOnUse">
<stop stop-color="#70DDFF"/>
<stop offset="1" stop-color="#49CCDE"/>
</linearGradient>
<linearGradient id="paint31_linear_127_15" x1="101.709" y1="10.0271" x2="101.709" y2="13.5724" gradientUnits="userSpaceOnUse">
<stop stop-color="#66D6FA"/>
<stop offset="1" stop-color="#49A8DE"/>
</linearGradient>
<linearGradient id="paint32_linear_127_15" x1="106.248" y1="118.202" x2="106.248" y2="146.45" gradientUnits="userSpaceOnUse">
<stop stop-color="#AFD6F2"/>
<stop offset="1" stop-color="white"/>
</linearGradient>
<linearGradient id="paint33_linear_127_15" x1="54.6521" y1="-1.91343e-05" x2="54.6521" y2="-1.91343e-05" gradientUnits="userSpaceOnUse">
<stop stop-color="#AFEAF2"/>
<stop offset="1" stop-color="white"/>
</linearGradient>
<linearGradient id="paint34_linear_127_15" x1="65.6968" y1="-1.91343e-05" x2="65.6968" y2="-1.91343e-05" gradientUnits="userSpaceOnUse">
<stop stop-color="#AFD6F2"/>
<stop offset="1" stop-color="white"/>
</linearGradient>
<linearGradient id="paint35_linear_127_15" x1="116.442" y1="118.202" x2="116.442" y2="146.45" gradientUnits="userSpaceOnUse">
<stop stop-color="#AFE2F2"/>
<stop offset="1" stop-color="white"/>
</linearGradient>
<linearGradient id="paint36_linear_127_15" x1="88.4005" y1="118.592" x2="88.4005" y2="146.443" gradientUnits="userSpaceOnUse">
<stop stop-color="#AFD6F2"/>
<stop offset="1" stop-color="white"/>
</linearGradient>
<clipPath id="clip0_127_15">
<rect width="193" height="146" fill="white"/>
</clipPath>
</defs>
</svg>
