<svg width="20" height="22" viewBox="0 0 20 22" fill="none" xmlns="http://www.w3.org/2000/svg">
<path d="M6.68021 9.94174L8.21021 8.40174L7.81021 7.00174H6.00021C6.00021 7.00174 5.59021 9.54174 8.52021 12.4617C11.4502 15.3817 14.0002 15.0017 14.0002 15.0017V13.1917L12.6002 12.7917L11.0602 14.3217M18.8802 12.4617C18.6497 13.8618 18.0915 15.1875 17.2511 16.3307C16.4107 17.4739 15.3119 18.4022 14.0444 19.0398C12.7769 19.6775 11.3766 20.0064 9.95775 19.9998C8.5389 19.9932 7.14172 19.6512 5.88021 19.0017L1.00021 20.0017L2.00021 15.1217C1.34757 13.8556 1.00479 12.4526 1.00005 11.0282C0.995313 9.60371 1.32876 8.19848 1.97296 6.92801C2.61717 5.65755 3.55374 4.55814 4.70566 3.72019C5.85758 2.88223 7.19195 2.32967 8.59904 2.10794C10.0061 1.8862 11.4458 2.00163 12.7996 2.44472C14.1533 2.88782 15.3826 3.64593 16.3863 4.65671C17.39 5.6675 18.1395 6.90208 18.573 8.25896C19.0066 9.61584 19.1118 11.0562 18.8802 12.4617Z" stroke="white" stroke-width="2" stroke-linecap="round" stroke-linejoin="round"/>
</svg>
